<svg width="17" height="17" viewBox="0 0 17 17" fill="none" xmlns="http://www.w3.org/2000/svg">
<g clip-path="url(#clip0_58_303)">
<path d="M15.4072 7.70312H15.4065C15.3018 7.70321 15.1982 7.72391 15.1016 7.76404C15.0049 7.80417 14.9171 7.86294 14.8432 7.93701C14.7693 8.01107 14.7106 8.09897 14.6707 8.19569C14.6307 8.2924 14.6102 8.39605 14.6103 8.5007C14.6093 9.61789 14.3021 10.7134 13.722 11.6682C13.142 12.6231 12.3113 13.4006 11.3203 13.9164C10.3293 14.4322 9.2159 14.6664 8.10108 14.5937C6.98626 14.521 5.91269 14.1441 4.99708 13.504C2.2379 11.572 1.56491 7.75535 3.49693 4.99614C5.42895 2.23693 9.24562 1.56387 12.0048 3.49596C12.4222 3.78748 12.8016 4.13002 13.1341 4.51562H10.8916C10.6802 4.51562 10.4775 4.59958 10.3281 4.74902C10.1786 4.89847 10.0947 5.10116 10.0947 5.3125C10.0947 5.52384 10.1786 5.72653 10.3281 5.87598C10.4775 6.02542 10.6802 6.10938 10.8916 6.10938H14.6103C14.8217 6.10938 15.0243 6.02542 15.1738 5.87598C15.3232 5.72653 15.4072 5.52384 15.4072 5.3125V1.59375C15.4072 1.38241 15.3232 1.17972 15.1738 1.03027C15.0243 0.880831 14.8217 0.796875 14.6103 0.796875C14.399 0.796875 14.1963 0.880831 14.0468 1.03027C13.8974 1.17972 13.8134 1.38241 13.8134 1.59375V2.92078C13.5338 2.65545 13.2348 2.41129 12.9189 2.19031C12.0904 1.61013 11.1556 1.19884 10.1681 0.979909C9.18052 0.760981 8.15953 0.738707 7.16338 0.91436C6.16723 1.09001 5.21543 1.46015 4.36233 2.00364C3.50923 2.54714 2.77153 3.25334 2.19135 4.08193C1.01962 5.75534 0.560651 7.82568 0.915398 9.83749C1.27014 11.8493 2.40955 13.6378 4.08296 14.8095C5.37136 15.717 6.90869 16.2043 8.4846 16.2046C8.9385 16.2043 9.39152 16.1645 9.83849 16.0855C11.622 15.7709 13.2376 14.838 14.4017 13.4507C15.5658 12.0634 16.2039 10.3103 16.2041 8.4993C16.2039 8.28808 16.1198 8.08558 15.9704 7.93629C15.821 7.787 15.6184 7.70313 15.4072 7.70312Z" fill="#1D243A"/>
</g>
<defs>
<clipPath id="clip0_58_303">
<rect width="17" height="17" fill="white"/>
</clipPath>
</defs>
</svg>
