<svg width="108" height="102" viewBox="0 0 108 102" fill="none" xmlns="http://www.w3.org/2000/svg">
<g clip-path="url(#clip0_485_9829)">
<path d="M105.5 73.0253C101.884 57.3173 76.5113 56.5536 72.7092 40.4667C71.6447 35.9626 73.0214 31.2672 72.7414 26.6577C71.2896 2.74965 39.7179 -13.1737 13.934 14.9881C-0.00918841 30.2171 -7.05217 66.1247 24.3456 74.157C61.5309 83.6699 54.7123 98.1117 73.0906 101.668C87.9316 104.54 109.005 88.2517 105.5 73.0253Z" fill="url(#paint0_linear_485_9829)"/>
<path opacity="0.1" d="M76.9419 67.2113V32.1191C76.9419 28.8182 74.1348 26.1425 70.6724 26.1425H44.5395V17.7494C44.5395 15.2773 42.4373 13.2732 39.844 13.2732H19.035C16.4417 13.2732 14.3394 15.2773 14.3394 17.7494V44.4565C14.3394 46.9286 16.4417 48.9328 19.035 48.9328H24.0795V87.7005C24.0795 91.0014 26.8866 93.6771 30.349 93.6771H64.3959C67.4596 96.9921 71.943 99.0863 76.9419 99.0863C86.1754 99.0863 93.6606 91.9509 93.6606 83.1488C93.6606 74.3467 86.1754 67.2113 76.9419 67.2113Z" fill="#3A5482"/>
<path d="M39.8438 43.753H19.0348C16.4415 43.753 14.3394 41.749 14.3394 39.2769V12.5697C14.3394 10.0976 16.4415 8.09363 19.0348 8.09363H39.8438C42.4371 8.09363 44.5393 10.0976 44.5393 12.5697V39.2767C44.5393 41.7488 42.4371 43.753 39.8438 43.753Z" fill="#90AAD3"/>
<path d="M19.0348 40.7687C18.1717 40.7687 17.4697 40.0994 17.4697 39.2768V12.5697C17.4697 11.7469 18.1719 11.0778 19.0348 11.0778H39.8438C40.7069 11.0778 41.4089 11.7471 41.4089 12.5697V39.2768C41.4089 40.0996 40.7067 40.7687 39.8438 40.7687H19.0348Z" fill="white"/>
<path d="M44.5395 16.2441V12.5698C44.5395 10.0976 42.4373 8.09351 39.844 8.09351H19.035C16.4417 8.09351 14.3394 10.0976 14.3394 12.5698V39.2768C14.3394 41.7489 16.4417 43.7531 19.035 43.7531H23.8684" stroke="#3A5482" stroke-width="2" stroke-miterlimit="10" stroke-linecap="round" stroke-linejoin="round"/>
<path d="M25.9902 16.2001H24.7363C24.5054 16.2001 24.3184 16.0218 24.3184 15.8016V14.6063C24.3184 14.3862 24.5054 14.2079 24.7363 14.2079H25.9902C26.2212 14.2079 26.4082 14.3862 26.4082 14.6063V15.8016C26.4082 16.0216 26.2212 16.2001 25.9902 16.2001Z" fill="#90AAD3"/>
<path d="M30.0664 16.2001H28.8125C28.5816 16.2001 28.3945 16.0218 28.3945 15.8016V14.6063C28.3945 14.3862 28.5816 14.2079 28.8125 14.2079H30.0664C30.2973 14.2079 30.4844 14.3862 30.4844 14.6063V15.8016C30.4844 16.0216 30.2971 16.2001 30.0664 16.2001Z" fill="#90AAD3"/>
<path d="M34.1421 16.2001H32.8882C32.6573 16.2001 32.4702 16.0218 32.4702 15.8016V14.6063C32.4702 14.3862 32.6573 14.2079 32.8882 14.2079H34.1421C34.373 14.2079 34.5601 14.3862 34.5601 14.6063V15.8016C34.5601 16.0216 34.373 16.2001 34.1421 16.2001Z" fill="#90AAD3"/>
<path d="M76.9422 26.9406V82.5206C76.9422 85.8216 74.1355 88.4972 70.6727 88.4972H30.3491C26.8863 88.4972 24.0796 85.8216 24.0796 82.5206V26.9406C24.0796 23.6395 26.8863 20.964 30.3491 20.964H70.6727C74.1355 20.964 76.9422 23.6395 76.9422 26.9406Z" fill="#90AAD3"/>
<path d="M30.3486 84.5131C29.1963 84.5131 28.2588 83.6194 28.2588 82.5209V26.9397C28.2588 25.8412 29.1963 24.9475 30.3486 24.9475H70.672C71.8243 24.9475 72.7618 25.8412 72.7618 26.9397V82.5209C72.7618 83.6194 71.8243 84.5131 70.672 84.5131H30.3486Z" fill="white"/>
<path d="M40.0352 88.4974H63.7093" stroke="#3A5482" stroke-width="2" stroke-miterlimit="10" stroke-linecap="round" stroke-linejoin="round"/>
<path d="M76.9417 61.7822V26.9395C76.9417 23.6386 74.1346 20.9629 70.6722 20.9629H30.3486C26.8862 20.9629 24.0791 23.6386 24.0791 26.9395V82.5209C24.0791 85.8217 26.8862 88.4974 30.3486 88.4974H35.2786" stroke="#3A5482" stroke-width="2" stroke-miterlimit="10" stroke-linecap="round" stroke-linejoin="round"/>
<path d="M42.739 42.7396H35.4448C34.8678 42.7396 34.3999 42.2935 34.3999 41.7435V34.7902C34.3999 34.2401 34.8678 33.7941 35.4448 33.7941H42.739C43.316 33.7941 43.7839 34.2401 43.7839 34.7902V41.7435C43.7839 42.2935 43.316 42.7396 42.739 42.7396Z" stroke="#90AAD3" stroke-width="2" stroke-miterlimit="10" stroke-linecap="round" stroke-linejoin="round"/>
<path d="M54.8272 33.7939H49.6958" stroke="#90AAD3" stroke-width="2" stroke-miterlimit="10" stroke-linecap="round" stroke-linejoin="round"/>
<path d="M66.6214 39.0146H49.6958" stroke="#90AAD3" stroke-width="2" stroke-miterlimit="10" stroke-linecap="round" stroke-linejoin="round"/>
<path d="M66.6214 42.7396H49.6958" stroke="#90AAD3" stroke-width="2" stroke-miterlimit="10" stroke-linecap="round" stroke-linejoin="round"/>
<path d="M42.739 59.2028H35.4448C34.8678 59.2028 34.3999 58.7568 34.3999 58.2067V51.2534C34.3999 50.7034 34.8678 50.2573 35.4448 50.2573H42.739C43.316 50.2573 43.7839 50.7034 43.7839 51.2534V58.2067C43.7839 58.757 43.316 59.2028 42.739 59.2028Z" stroke="#90AAD3" stroke-width="2" stroke-miterlimit="10" stroke-linecap="round" stroke-linejoin="round"/>
<path d="M54.8272 50.2573H49.6958" stroke="#90AAD3" stroke-width="2" stroke-miterlimit="10" stroke-linecap="round" stroke-linejoin="round"/>
<path d="M66.6214 55.478H49.6958" stroke="#90AAD3" stroke-width="2" stroke-miterlimit="10" stroke-linecap="round" stroke-linejoin="round"/>
<path d="M66.6214 59.2029H49.6958" stroke="#90AAD3" stroke-width="2" stroke-miterlimit="10" stroke-linecap="round" stroke-linejoin="round"/>
<path d="M42.739 75.6663H35.4448C34.8678 75.6663 34.3999 75.2203 34.3999 74.6703V67.7169C34.3999 67.1669 34.8678 66.7208 35.4448 66.7208H42.739C43.316 66.7208 43.7839 67.1669 43.7839 67.7169V74.6703C43.7839 75.2203 43.316 75.6663 42.739 75.6663Z" stroke="#90AAD3" stroke-width="2" stroke-miterlimit="10" stroke-linecap="round" stroke-linejoin="round"/>
<path d="M54.8272 66.7208H49.6958" stroke="#90AAD3" stroke-width="2" stroke-miterlimit="10" stroke-linecap="round" stroke-linejoin="round"/>
<path d="M66.6214 71.9415H49.6958" stroke="#90AAD3" stroke-width="2" stroke-miterlimit="10" stroke-linecap="round" stroke-linejoin="round"/>
<path d="M66.6214 75.6664H49.6958" stroke="#90AAD3" stroke-width="2" stroke-miterlimit="10" stroke-linecap="round" stroke-linejoin="round"/>
<path d="M38.6167 54.1925L40.4685 55.9578L43.7838 52.7976" stroke="#3A5482" stroke-width="2" stroke-miterlimit="10" stroke-linecap="round" stroke-linejoin="round"/>
<path d="M76.9419 93.9066C86.1754 93.9066 93.6606 86.7712 93.6606 77.9691C93.6606 69.1671 86.1754 62.0316 76.9419 62.0316C67.7084 62.0316 60.2231 69.1671 60.2231 77.9691C60.2231 86.7712 67.7084 93.9066 76.9419 93.9066Z" fill="#90AAD3"/>
<path d="M76.9421 90.8384C84.398 90.8384 90.4423 85.0766 90.4423 77.9691C90.4423 70.8615 84.398 65.0997 76.9421 65.0997C69.4861 65.0997 63.4419 70.8615 63.4419 77.9691C63.4419 85.0766 69.4861 90.8384 76.9421 90.8384Z" fill="white"/>
<path d="M76.9419 93.9066C86.1754 93.9066 93.6606 86.7712 93.6606 77.9691C93.6606 69.1671 86.1754 62.0316 76.9419 62.0316C67.7084 62.0316 60.2231 69.1671 60.2231 77.9691C60.2231 86.7712 67.7084 93.9066 76.9419 93.9066Z" stroke="#3A5482" stroke-width="2" stroke-miterlimit="10" stroke-linecap="round" stroke-linejoin="round"/>
<path d="M84.7519 76.1753H78.8232V70.5237C78.8232 69.9736 78.3553 69.5276 77.7783 69.5276H76.1049C75.5279 69.5276 75.06 69.9736 75.06 70.5237V76.1753H69.1313C68.5543 76.1753 68.0864 76.6214 68.0864 77.1714V78.7666C68.0864 79.3166 68.5543 79.7627 69.1313 79.7627H75.06V85.4143C75.06 85.9643 75.5279 86.4104 76.1049 86.4104H77.7783C78.3553 86.4104 78.8232 85.9643 78.8232 85.4143V79.7627H84.7519C85.3289 79.7627 85.7968 79.3166 85.7968 78.7666V77.1714C85.7968 76.6214 85.3291 76.1753 84.7519 76.1753Z" fill="#90AAD3"/>
<path d="M87.5293 46.2848H85.4395C84.8624 46.2848 84.3945 45.8387 84.3945 45.2887V43.2965C84.3945 42.7465 84.8624 42.3004 85.4395 42.3004H87.5293C88.1063 42.3004 88.5742 42.7465 88.5742 43.2965V45.2887C88.5742 45.8387 88.1063 46.2848 87.5293 46.2848Z" stroke="#90AAD3" stroke-width="2" stroke-miterlimit="10" stroke-linecap="round" stroke-linejoin="round"/>
<path d="M96.2432 54.7898H94.1533C93.5763 54.7898 93.1084 54.3437 93.1084 53.7937V51.8015C93.1084 51.2515 93.5763 50.8054 94.1533 50.8054H96.2432C96.8202 50.8054 97.2881 51.2515 97.2881 51.8015V53.7937C97.2881 54.3437 96.8202 54.7898 96.2432 54.7898Z" stroke="#90AAD3" stroke-width="2" stroke-miterlimit="10" stroke-linecap="round" stroke-linejoin="round"/>
<path d="M17.4736 73.1857H15.3838C14.8068 73.1857 14.3389 72.7396 14.3389 72.1896V70.1974C14.3389 69.6473 14.8068 69.2013 15.3838 69.2013H17.4736C18.0506 69.2013 18.5186 69.6473 18.5186 70.1974V72.1896C18.5186 72.7398 18.0508 73.1857 17.4736 73.1857Z" stroke="#90AAD3" stroke-width="2" stroke-miterlimit="10" stroke-linecap="round" stroke-linejoin="round"/>
<path d="M52.7383 13.2733H53.1554M53.1554 13.2733C54.0787 13.2733 54.8273 12.5596 54.8273 11.6795M53.1554 13.2733C54.0787 13.2733 54.8273 13.9869 54.8273 14.867M54.8273 11.6795V11.2819M54.8273 11.6795C54.8273 12.5596 55.5759 13.2733 56.4992 13.2733M56.4992 13.2733H56.9163M56.4992 13.2733C55.5759 13.2733 54.8273 13.9869 54.8273 14.867M54.8273 14.867V15.2646" stroke="#90AAD3" stroke-width="2" stroke-miterlimit="10" stroke-linecap="round" stroke-linejoin="round"/>
<path d="M12.2505 51.4057H12.6676M12.6676 51.4057C13.5909 51.4057 14.3395 50.6921 14.3395 49.8119M12.6676 51.4057C13.5909 51.4057 14.3395 52.1193 14.3395 52.9995M14.3395 49.8119V49.4143M14.3395 49.8119C14.3395 50.6921 15.0881 51.4057 16.0114 51.4057M16.0114 51.4057H16.4285M16.0114 51.4057C15.0881 51.4057 14.3395 52.1193 14.3395 52.9995M14.3395 52.9995V53.3971" stroke="#90AAD3" stroke-width="2" stroke-miterlimit="10" stroke-linecap="round" stroke-linejoin="round"/>
</g>
<defs>
<linearGradient id="paint0_linear_485_9829" x1="26.2298" y1="81.9876" x2="81.1585" y2="24.3663" gradientUnits="userSpaceOnUse">
<stop stop-color="#CFDBFF" stop-opacity="0"/>
<stop offset="1" stop-color="#D9DDEE"/>
</linearGradient>
<clipPath id="clip0_485_9829">
<rect width="107" height="102" fill="white" transform="translate(0.5)"/>
</clipPath>
</defs>
</svg>
