<svg width="104" height="102" viewBox="0 0 104 102" fill="none" xmlns="http://www.w3.org/2000/svg">
<g clip-path="url(#clip0_485_9508)">
<path d="M69.3609 0.084631C50.085 1.80827 48.2195 38.4201 39.9061 57.1781C35.7865 66.4733 26.0711 76.0629 27.7839 87.0175C29.7161 99.3761 42.4487 102.97 52.2631 101.788C76.5491 98.8621 87.0455 73.6872 88.6343 49.8312C89.6138 35.123 92.7181 -2.00398 69.3609 0.084631Z" fill="url(#paint0_linear_485_9508)"/>
<path opacity="0.11" d="M83.887 26.2834H76.4424V23.8928C76.4424 22.7925 75.5417 21.9006 74.4307 21.9006H72.0166C70.9055 21.9006 70.0049 22.7925 70.0049 23.8928V26.2834H60.751V23.8928C60.751 22.7925 59.8503 21.9006 58.7393 21.9006H56.3252C55.2141 21.9006 54.3135 22.7925 54.3135 23.8928V26.2834H45.0596V23.8928C45.0596 22.7925 44.1589 21.9006 43.0479 21.9006H40.6338C39.5227 21.9006 38.6221 22.7925 38.6221 23.8928V26.2834H29.3682V23.8928C29.3682 22.7925 28.4675 21.9006 27.3564 21.9006H24.9424C23.8313 21.9006 22.9307 22.7925 22.9307 23.8928V26.2834H15.4873C13.2652 26.2834 11.4639 28.0673 11.4639 30.2678V83.26C11.4639 85.4606 13.2652 87.2444 15.4873 87.2444H83.8857C86.1079 87.2444 87.9092 85.4606 87.9092 83.26V30.2716C87.9092 28.069 86.1085 26.2834 83.887 26.2834Z" fill="#3A5482"/>
<path d="M87.5066 83.6584H19.1084C16.8863 83.6584 15.085 81.8746 15.085 79.6741V26.6819C15.085 24.4813 16.8863 22.6975 19.1084 22.6975H87.5068C89.729 22.6975 91.5303 24.4813 91.5303 26.6819V79.6739C91.5303 81.8744 89.7288 83.6584 87.5066 83.6584Z" fill="white"/>
<path d="M79.0576 72.1038H27.96C27.4045 72.1038 26.9541 71.6577 26.9541 71.1077V47.4006C26.9541 46.8506 27.4045 46.4045 27.96 46.4045H79.0576C79.6131 46.4045 80.0635 46.8506 80.0635 47.4006V71.1077C80.0635 71.6577 79.6133 72.1038 79.0576 72.1038Z" fill="white"/>
<path d="M91.5303 35.6467V26.6819C91.5303 24.4813 89.729 22.6975 87.5068 22.6975H19.1084C16.8863 22.6975 15.085 24.4813 15.085 26.6819V35.6467H91.5303Z" fill="white"/>
<path d="M30.9775 28.4749H28.5635C27.4524 28.4749 26.5518 27.583 26.5518 26.4827V20.3069C26.5518 19.2066 27.4524 18.3147 28.5635 18.3147H30.9775C32.0886 18.3147 32.9893 19.2066 32.9893 20.3069V26.4827C32.9893 27.583 32.0886 28.4749 30.9775 28.4749Z" fill="white"/>
<path d="M46.6689 28.4749H44.2549C43.1438 28.4749 42.2432 27.583 42.2432 26.4827V20.3069C42.2432 19.2066 43.1438 18.3147 44.2549 18.3147H46.6689C47.78 18.3147 48.6807 19.2066 48.6807 20.3069V26.4827C48.6807 27.583 47.78 28.4749 46.6689 28.4749Z" fill="white"/>
<path d="M62.3497 28.4749H59.9463C58.8352 28.4749 57.9346 27.583 57.9346 26.4827V20.3069C57.9346 19.2066 58.8352 18.3147 59.9463 18.3147H62.3604C63.4714 18.3147 64.3721 19.2066 64.3721 20.3069V26.4888C64.3719 27.5857 63.4666 28.4749 62.3497 28.4749Z" fill="white"/>
<path d="M78.0518 28.4749H75.6377C74.5266 28.4749 73.626 27.583 73.626 26.4827V20.3069C73.626 19.2066 74.5266 18.3147 75.6377 18.3147H78.0518C79.1628 18.3147 80.0635 19.2066 80.0635 20.3069V26.4827C80.0635 27.583 79.1628 28.4749 78.0518 28.4749Z" fill="white"/>
<path d="M29.7705 50.9866H24.1377C23.0266 50.9866 22.126 50.0947 22.126 48.9944V43.4163C22.126 42.316 23.0266 41.4241 24.1377 41.4241H29.7705C30.8816 41.4241 31.7822 42.316 31.7822 43.4163V48.9944C31.7822 50.0947 30.8816 50.9866 29.7705 50.9866Z" fill="#90AAD3"/>
<path d="M43.0479 50.9866H37.415C36.304 50.9866 35.4033 50.0947 35.4033 48.9944V43.4163C35.4033 42.316 36.304 41.4241 37.415 41.4241H43.0479C44.1589 41.4241 45.0596 42.316 45.0596 43.4163V48.9944C45.0596 50.0947 44.1589 50.9866 43.0479 50.9866Z" fill="#90AAD3"/>
<path d="M56.124 50.9866H50.4912C49.3801 50.9866 48.4795 50.0947 48.4795 48.9944V43.4163C48.4795 42.316 49.3801 41.4241 50.4912 41.4241H56.124C57.2351 41.4241 58.1357 42.316 58.1357 43.4163V48.9944C58.1357 50.0947 57.2351 50.9866 56.124 50.9866Z" fill="#90AAD3"/>
<path d="M69.2002 50.9866H63.5674C62.4563 50.9866 61.5557 50.0947 61.5557 48.9944V43.4163C61.5557 42.316 62.4563 41.4241 63.5674 41.4241H69.2002C70.3113 41.4241 71.2119 42.316 71.2119 43.4163V48.9944C71.2119 50.0947 70.3113 50.9866 69.2002 50.9866Z" fill="#90AAD3"/>
<path d="M82.4707 50.9866H76.8447C75.7337 50.9866 74.833 50.0947 74.833 48.9944V43.4163C74.833 42.316 75.7337 41.4241 76.8447 41.4241H82.4775C83.5886 41.4241 84.4893 42.316 84.4893 43.4163V48.9874C84.4893 50.0915 83.5856 50.9866 82.4707 50.9866Z" fill="#90AAD3"/>
<path d="M29.7705 51.9827H24.1377C22.4738 51.9827 21.1201 50.6421 21.1201 48.9944V43.4163C21.1201 41.7685 22.4738 40.428 24.1377 40.428H29.7705C31.4344 40.428 32.7881 41.7685 32.7881 43.4163V48.9944C32.7881 50.6421 31.4344 51.9827 29.7705 51.9827ZM24.1377 42.4202C23.5831 42.4202 23.1318 42.867 23.1318 43.4163V48.9944C23.1318 49.5436 23.5831 49.9905 24.1377 49.9905H29.7705C30.3251 49.9905 30.7764 49.5436 30.7764 48.9944V43.4163C30.7764 42.867 30.3251 42.4202 29.7705 42.4202H24.1377Z" fill="#3A5482"/>
<path d="M43.0479 51.9827H37.415C35.7511 51.9827 34.3975 50.6421 34.3975 48.9944V43.4163C34.3975 41.7685 35.7511 40.428 37.415 40.428H43.0479C44.7117 40.428 46.0654 41.7685 46.0654 43.4163V48.9944C46.0654 50.6421 44.7117 51.9827 43.0479 51.9827ZM37.415 42.4202C36.8604 42.4202 36.4092 42.867 36.4092 43.4163V48.9944C36.4092 49.5436 36.8604 49.9905 37.415 49.9905H43.0479C43.6025 49.9905 44.0537 49.5436 44.0537 48.9944V43.4163C44.0537 42.867 43.6025 42.4202 43.0479 42.4202H37.415Z" fill="#3A5482"/>
<path d="M56.124 51.9827H50.4912C48.8273 51.9827 47.4736 50.6421 47.4736 48.9944V43.4163C47.4736 41.7685 48.8273 40.428 50.4912 40.428H56.124C57.7881 40.428 59.1416 41.7685 59.1416 43.4163V48.9944C59.1416 50.6421 57.7881 51.9827 56.124 51.9827ZM50.4912 42.4202C49.9366 42.4202 49.4854 42.867 49.4854 43.4163V48.9944C49.4854 49.5436 49.9366 49.9905 50.4912 49.9905H56.124C56.6787 49.9905 57.1299 49.5436 57.1299 48.9944V43.4163C57.1299 42.867 56.6787 42.4202 56.124 42.4202H50.4912Z" fill="#3A5482"/>
<path d="M69.2002 51.9827H63.5674C61.9033 51.9827 60.5498 50.6421 60.5498 48.9944V43.4163C60.5498 41.7685 61.9033 40.428 63.5674 40.428H69.2002C70.8643 40.428 72.2178 41.7685 72.2178 43.4163V48.9944C72.2178 50.6421 70.8643 51.9827 69.2002 51.9827ZM63.5674 42.4202C63.0128 42.4202 62.5615 42.867 62.5615 43.4163V48.9944C62.5615 49.5436 63.0128 49.9905 63.5674 49.9905H69.2002C69.7548 49.9905 70.2061 49.5436 70.2061 48.9944V43.4163C70.2061 42.867 69.7548 42.4202 69.2002 42.4202H63.5674Z" fill="#3A5482"/>
<path d="M82.4705 51.9827H76.8447C75.1806 51.9827 73.8271 50.6421 73.8271 48.9944V43.4163C73.8271 41.7685 75.1806 40.428 76.8447 40.428H82.4775C84.1416 40.428 85.4951 41.7685 85.4951 43.4163V48.9874C85.4951 50.6389 84.1382 51.9827 82.4705 51.9827ZM76.8447 42.4202C76.2901 42.4202 75.8389 42.867 75.8389 43.4163V48.9944C75.8389 49.5436 76.2901 49.9905 76.8447 49.9905H82.4705C83.029 49.9905 83.4834 49.5404 83.4834 48.9874V43.4163C83.4834 42.867 83.0322 42.4202 82.4775 42.4202H76.8447Z" fill="#3A5482"/>
<path d="M29.7705 63.9358H24.1377C23.0266 63.9358 22.126 63.0439 22.126 61.9436V56.3655C22.126 55.2652 23.0266 54.3733 24.1377 54.3733H29.7705C30.8816 54.3733 31.7822 55.2652 31.7822 56.3655V61.9436C31.7822 63.0439 30.8816 63.9358 29.7705 63.9358Z" fill="#90AAD3"/>
<path d="M43.0479 63.9358H37.415C36.304 63.9358 35.4033 63.0439 35.4033 61.9436V56.3655C35.4033 55.2652 36.304 54.3733 37.415 54.3733H43.0479C44.1589 54.3733 45.0596 55.2652 45.0596 56.3655V61.9436C45.0596 63.0439 44.1589 63.9358 43.0479 63.9358Z" fill="#90AAD3"/>
<path d="M56.124 63.9358H50.4912C49.3801 63.9358 48.4795 63.0439 48.4795 61.9436V56.3655C48.4795 55.2652 49.3801 54.3733 50.4912 54.3733H56.124C57.2351 54.3733 58.1357 55.2652 58.1357 56.3655V61.9436C58.1357 63.0439 57.2351 63.9358 56.124 63.9358Z" fill="#90AAD3"/>
<path d="M69.2002 63.9358H63.5674C62.4563 63.9358 61.5557 63.0439 61.5557 61.9436V56.3655C61.5557 55.2652 62.4563 54.3733 63.5674 54.3733H69.2002C70.3113 54.3733 71.2119 55.2652 71.2119 56.3655V61.9436C71.2119 63.0439 70.3113 63.9358 69.2002 63.9358Z" fill="#90AAD3"/>
<path d="M82.4707 63.9358H76.8447C75.7337 63.9358 74.833 63.0439 74.833 61.9436V56.3655C74.833 55.2652 75.7337 54.3733 76.8447 54.3733H82.4775C83.5886 54.3733 84.4893 55.2652 84.4893 56.3655V61.9366C84.4893 63.0407 83.5856 63.9358 82.4707 63.9358Z" fill="#90AAD3"/>
<path d="M29.7637 76.885H24.1377C23.0266 76.885 22.126 75.9931 22.126 74.8928V69.3147C22.126 68.2144 23.0266 67.3225 24.1377 67.3225H29.7705C30.8816 67.3225 31.7822 68.2144 31.7822 69.3147V74.8858C31.7822 75.9897 30.8786 76.885 29.7637 76.885Z" fill="#90AAD3"/>
<path d="M43.041 76.885H37.415C36.304 76.885 35.4033 75.9931 35.4033 74.8928V69.3147C35.4033 68.2144 36.304 67.3225 37.415 67.3225H43.0479C44.1589 67.3225 45.0596 68.2144 45.0596 69.3147V74.8858C45.0596 75.9897 44.1559 76.885 43.041 76.885Z" fill="#90AAD3"/>
<path d="M56.1172 76.885H50.4912C49.3801 76.885 48.4795 75.9931 48.4795 74.8928V69.3147C48.4795 68.2144 49.3801 67.3225 50.4912 67.3225H56.124C57.2351 67.3225 58.1357 68.2144 58.1357 69.3147V74.8858C58.1357 75.9897 57.2321 76.885 56.1172 76.885Z" fill="#90AAD3"/>
<path d="M69.1934 76.885H63.5674C62.4563 76.885 61.5557 75.9931 61.5557 74.8928V69.3147C61.5557 68.2144 62.4563 67.3225 63.5674 67.3225H69.2002C70.3113 67.3225 71.2119 68.2144 71.2119 69.3147V74.8858C71.2119 75.9897 70.308 76.885 69.1934 76.885Z" fill="#90AAD3"/>
<path d="M76.871 98.6857C76.1186 98.6857 75.3664 98.4022 74.7937 97.8351C73.6482 96.7007 73.6482 94.8552 74.7937 93.721C75.9391 92.5867 77.8028 92.5867 78.9483 93.721C80.0935 94.8552 80.0935 96.7007 78.9483 97.8349C78.3755 98.402 77.6232 98.6857 76.871 98.6857ZM76.871 94.8615C76.6338 94.8615 76.3968 94.951 76.2162 95.1299C75.8553 95.4873 75.8553 96.069 76.2162 96.4266C76.5773 96.7838 77.1647 96.7838 77.5256 96.4266C77.8865 96.069 77.8865 95.4873 77.5256 95.1297C77.3451 94.951 77.108 94.8615 76.871 94.8615Z" fill="#90AAD3"/>
<path d="M42.6106 14.1428C41.8258 14.1428 41.0881 13.84 40.5333 13.2905C39.388 12.1564 39.388 10.3108 40.5333 9.17664C41.6787 8.04229 43.5424 8.04249 44.6877 9.17644C45.8331 10.3108 45.8331 12.1564 44.6877 13.2905C44.1328 13.8402 43.3951 14.1428 42.6106 14.1428ZM42.6106 10.317C42.3734 10.317 42.1364 10.4064 41.956 10.5851C41.5951 10.9427 41.5951 11.5244 41.956 11.882C42.131 12.0552 42.3633 12.1508 42.6106 12.1508C42.8578 12.1508 43.0904 12.0554 43.2654 11.882C43.6263 11.5244 43.6263 10.9427 43.2654 10.5851C43.0847 10.4064 42.8476 10.317 42.6106 10.317Z" fill="#90AAD3"/>
<path d="M52.5154 5.56466H51.8995V4.95465C51.8995 4.47593 51.5758 4.03585 51.1018 3.94182C50.4552 3.81353 49.8877 4.29962 49.8877 4.9172V5.56466H49.2718C48.7881 5.56466 48.3435 5.8854 48.2488 6.35516C48.1196 6.99545 48.6105 7.55685 49.2339 7.55685H49.8877V8.16685C49.8877 8.64558 50.2114 9.08565 50.6854 9.17968C51.332 9.30798 51.8995 8.82188 51.8995 8.20431V7.55685H52.5533C53.1765 7.55685 53.6676 6.99545 53.5384 6.35516C53.4437 5.8854 52.9991 5.56466 52.5154 5.56466Z" fill="#90AAD3"/>
<path d="M69.2127 88.639H68.5967V88.029C68.5967 87.5503 68.273 87.1102 67.7991 87.0162C67.1525 86.8879 66.585 87.374 66.585 87.9915V88.639H65.969C65.4854 88.639 65.041 88.9597 64.9461 89.4295C64.8169 90.0698 65.3078 90.6312 65.9312 90.6312H66.585V91.2412C66.585 91.7199 66.9087 92.16 67.3827 92.254C68.0292 92.3823 68.5967 91.8962 68.5967 91.2787V90.6312H69.2505C69.8738 90.6312 70.3648 90.0698 70.2357 89.4295C70.1409 88.9597 69.6963 88.639 69.2127 88.639Z" fill="#90AAD3"/>
<path d="M25.1561 88.639H24.5401V88.029C24.5401 87.5503 24.2164 87.1102 23.7424 87.0162C23.0959 86.8879 22.5284 87.374 22.5284 87.9915V88.639H21.9124C21.4288 88.639 20.9842 88.9597 20.8894 89.4295C20.7603 90.0698 21.2513 90.6312 21.8746 90.6312H22.5284V91.2412C22.5284 91.7199 22.852 92.16 23.326 92.254C23.9726 92.3823 24.5401 91.8962 24.5401 91.2787V90.6312H25.1939C25.8171 90.6312 26.3082 90.0698 26.179 89.4295C26.0843 88.9597 25.6397 88.639 25.1561 88.639Z" fill="#90AAD3"/>
<path d="M87.5068 21.7014H81.0693V20.3069C81.0693 18.6566 79.7183 17.3186 78.0518 17.3186H74.833C73.6109 17.3186 72.6201 18.2998 72.6201 19.51V21.7014H65.3779V19.51C65.3779 18.2998 64.3872 17.3186 63.165 17.3186H59.1416C57.9195 17.3186 56.9287 18.2998 56.9287 19.51V21.7014H49.6865V19.51C49.6865 18.2998 48.6958 17.3186 47.4736 17.3186H43.4502C42.2281 17.3186 41.2373 18.2998 41.2373 19.51V21.7014H33.9951V19.51C33.9951 18.2998 33.0043 17.3186 31.7822 17.3186H28.2014C26.7348 17.3186 25.5459 18.496 25.5459 19.9483V21.7014H18.5049C16.0606 21.7014 14.0791 23.6637 14.0791 26.0842V80.2273C14.0791 82.6723 16.0808 84.6545 18.5497 84.6545H33.2516C33.3085 84.6545 33.3648 84.6336 33.4059 84.5946C34.3212 83.7256 33.7139 82.6624 32.8561 82.6624H19.1084C17.4419 82.6624 16.0908 81.3244 16.0908 79.6741V36.6428H90.5244V63.4796C90.5244 63.9583 90.8481 64.3984 91.3221 64.4924C91.9686 64.6207 92.5361 64.1346 92.5361 63.5172V26.6809C92.5361 23.9353 90.28 21.7014 87.5068 21.7014ZM75.6377 19.3108H78.0518C78.6072 19.3108 79.0576 19.7568 79.0576 20.3069V26.4827C79.0576 27.0327 78.6072 27.4788 78.0518 27.4788H75.6377C75.0823 27.4788 74.6318 27.0327 74.6318 26.4827V20.3069C74.6318 19.7568 75.0823 19.3108 75.6377 19.3108ZM59.9463 19.3108H62.3604C62.9158 19.3108 63.3662 19.7568 63.3662 20.3069V26.4827C63.3662 27.0327 62.9158 27.4788 62.3604 27.4788H59.9463C59.3909 27.4788 58.9404 27.0327 58.9404 26.4827V20.3069C58.9404 19.7568 59.3909 19.3108 59.9463 19.3108ZM44.2549 19.3108H46.6689C47.2244 19.3108 47.6748 19.7568 47.6748 20.3069V26.4827C47.6748 27.0327 47.2244 27.4788 46.6689 27.4788H44.2549C43.6994 27.4788 43.249 27.0327 43.249 26.4827V20.3069C43.249 19.7568 43.6994 19.3108 44.2549 19.3108ZM28.5635 19.3108H30.9775C31.533 19.3108 31.9834 19.7568 31.9834 20.3069V26.4827C31.9834 27.0327 31.533 27.4788 30.9775 27.4788H28.5635C28.008 27.4788 27.5576 27.0327 27.5576 26.4827V20.3069C27.5576 19.7568 28.008 19.3108 28.5635 19.3108ZM16.0908 34.6506V26.6819C16.0908 25.0316 17.4419 23.6936 19.1084 23.6936H25.5459V26.4827C25.5459 28.133 26.897 29.4709 28.5635 29.4709H30.9775C32.644 29.4709 33.9951 28.133 33.9951 26.4827V23.6936H41.2373V26.4827C41.2373 28.133 42.5884 29.4709 44.2549 29.4709H46.6689C48.3355 29.4709 49.6865 28.133 49.6865 26.4827V23.6936H56.9287V26.4827C56.9287 28.133 58.2798 29.4709 59.9463 29.4709H62.3604C64.0269 29.4709 65.3779 28.133 65.3779 26.4827V23.6936H72.6201V26.4827C72.6201 28.133 73.9712 29.4709 75.6377 29.4709H78.0518C79.7183 29.4709 81.0693 28.133 81.0693 26.4827V23.6936H87.5068C89.1733 23.6936 90.5244 25.0316 90.5244 26.6819V34.6506H16.0908Z" fill="#3A5482"/>
<path d="M90.5242 68.7903V79.3096C90.5242 81.1612 89.0083 82.6623 87.1387 82.6623H38.0913C38.0346 82.6623 37.9781 82.6832 37.937 82.722C37.0217 83.591 37.629 84.6545 38.4868 84.6545H87.7619C90.3984 84.6545 92.5359 82.5378 92.5359 79.9268V69.1814C92.5359 68.3313 91.4608 67.7304 90.5845 68.6377C90.5453 68.6781 90.5242 68.7341 90.5242 68.7903Z" fill="#3A5482"/>
</g>
<defs>
<linearGradient id="paint0_linear_485_9508" x1="96.5959" y1="66.3121" x2="55.8729" y2="49.4986" gradientUnits="userSpaceOnUse">
<stop stop-color="#D2DBFC" stop-opacity="0"/>
<stop offset="1" stop-color="#D9DDEE"/>
</linearGradient>
<clipPath id="clip0_485_9508">
<rect width="103" height="102" fill="white" transform="translate(0.5)"/>
</clipPath>
</defs>
</svg>
