<svg width="102" height="102" viewBox="0 0 102 102" fill="none" xmlns="http://www.w3.org/2000/svg">
<path d="M16.3969 5.57274C1.14707 11.8483 -5.98117 35.4444 6.10423 48.7142C11.3226 54.4439 20.1848 57.2632 22.7292 64.5839C25.9026 73.7141 25.9301 92.0466 37.8493 96.0515C67.9611 106.169 92.0506 99.1577 100.733 65.8023C104.175 52.5792 100.217 41.9477 93.5045 31.0737C79.0424 7.64342 42.787 -5.28747 16.3969 5.57274Z" fill="url(#paint0_linear_485_10114)"/>
<path opacity="0.1" d="M91.7514 77.1355H10.249C9.14874 77.1355 8.25684 78.0274 8.25684 79.1277V81.1677C8.25684 83.3683 10.0406 85.1521 12.2412 85.1521H89.7592C91.9598 85.1521 93.7436 83.3683 93.7436 81.1677V79.1277C93.7436 78.0274 92.8517 77.1355 91.7514 77.1355Z" fill="#3A5482"/>
<path d="M89.1425 77.8596H12.8584V26.8861C12.8584 24.1355 15.0883 21.9056 17.8389 21.9056H84.162C86.9126 21.9056 89.1425 24.1355 89.1425 26.8861V77.8596Z" fill="#90AAD3"/>
<path d="M89.1425 66.9151V26.8861C89.1425 24.1355 86.9126 21.9056 84.162 21.9056H17.8389C15.0883 21.9056 12.8584 24.1355 12.8584 26.8861V71.4846" stroke="#3A5482" stroke-width="2" stroke-miterlimit="10" stroke-linecap="round" stroke-linejoin="round"/>
<path d="M93.7436 73.948V75.988C93.7436 78.1886 91.9598 79.9724 89.7592 79.9724H12.2412C10.0406 79.9724 8.25684 78.1886 8.25684 75.988V73.948C8.25684 72.8477 9.14874 71.9558 10.249 71.9558H41.375C42.4752 71.9558 43.3671 72.8477 43.3671 73.948V74.1711C43.3671 75.2714 44.259 76.1633 45.3593 76.1633H56.6391C57.7394 76.1633 58.6313 75.2714 58.6313 74.1711V73.948C58.6313 72.8477 59.5232 71.9558 60.6235 71.9558H91.7514C92.8517 71.9558 93.7436 72.8477 93.7436 73.948Z" fill="white"/>
<path d="M93.7436 73.948V75.988C93.7436 78.1886 91.9598 79.9724 89.7592 79.9724H12.2412C10.0406 79.9724 8.25684 78.1886 8.25684 75.988V73.948C8.25684 72.8477 9.14874 71.9558 10.249 71.9558H41.375C42.4752 71.9558 43.3671 72.8477 43.3671 73.948V74.1711C43.3671 75.2714 44.259 76.1633 45.3593 76.1633H56.6391C57.7394 76.1633 58.6313 75.2714 58.6313 74.1711V73.948C58.6313 72.8477 59.5232 71.9558 60.6235 71.9558H91.7514C92.8517 71.9558 93.7436 72.8477 93.7436 73.948Z" stroke="#3A5482" stroke-width="2" stroke-miterlimit="10" stroke-linecap="round" stroke-linejoin="round"/>
<path d="M83.9468 29.0759V65.3875C83.9468 66.4892 83.0543 67.3797 81.9546 67.3797H20.0454C18.9457 67.3797 18.0532 66.4892 18.0532 65.3875V29.0759C18.0532 27.9762 18.9457 27.0837 20.0454 27.0837H81.9546C83.0543 27.0837 83.9468 27.9762 83.9468 29.0759Z" fill="white"/>
<path d="M83.9468 13.9958C85.047 13.9958 85.939 13.1039 85.939 12.0037C85.939 10.9034 85.047 10.0115 83.9468 10.0115C82.8465 10.0115 81.9546 10.9034 81.9546 12.0037C81.9546 13.1039 82.8465 13.9958 83.9468 13.9958Z" stroke="#90AAD3" stroke-width="2" stroke-miterlimit="10" stroke-linecap="round" stroke-linejoin="round"/>
<path d="M31.98 88.3258C33.0802 88.3258 33.9722 87.4339 33.9722 86.3336C33.9722 85.2334 33.0802 84.3414 31.98 84.3414C30.8797 84.3414 29.9878 85.2334 29.9878 86.3336C29.9878 87.4339 30.8797 88.3258 31.98 88.3258Z" stroke="#90AAD3" stroke-width="2" stroke-miterlimit="10" stroke-linecap="round" stroke-linejoin="round"/>
<path d="M20.0527 86.3336C20.0527 87.4889 19.1162 88.4254 17.9609 88.4254C19.1162 88.4254 20.0527 89.3619 20.0527 90.5172C20.0527 89.3619 20.9893 88.4254 22.1445 88.4254C20.9893 88.4256 20.0527 87.4889 20.0527 86.3336Z" stroke="#90AAD3" stroke-width="2" stroke-miterlimit="10" stroke-linecap="round" stroke-linejoin="round"/>
<path d="M74.103 10.8676C74.103 12.0228 73.1665 12.9594 72.0112 12.9594C73.1665 12.9594 74.103 13.8959 74.103 15.0511C74.103 13.8959 75.0396 12.9594 76.1948 12.9594C75.0396 12.9594 74.103 12.0228 74.103 10.8676Z" stroke="#90AAD3" stroke-width="2" stroke-miterlimit="10" stroke-linecap="round" stroke-linejoin="round"/>
<path d="M95.8354 61.2466C95.8354 62.4019 94.8989 63.3384 93.7437 63.3384C94.8989 63.3384 95.8354 64.2749 95.8354 65.4302C95.8354 64.2749 96.772 63.3384 97.9272 63.3384C96.772 63.3386 95.8354 62.4019 95.8354 61.2466Z" stroke="#90AAD3" stroke-width="2" stroke-miterlimit="10" stroke-linecap="round" stroke-linejoin="round"/>
<path d="M71.0291 29.8176C71.1769 29.1785 71.2576 28.5137 71.2576 27.8296C71.2576 22.9765 67.3232 19.0421 62.47 19.0421C62.2345 19.0421 62.0021 19.054 61.7714 19.0724C59.6873 15.2661 55.6456 12.6848 51.0004 12.6848C46.3552 12.6848 42.3135 15.2661 40.2294 19.0722C39.9987 19.054 39.7663 19.0419 39.5308 19.0419C34.6776 19.0419 30.7432 22.9763 30.7432 27.8294C30.7432 28.5135 30.8239 29.1783 30.9719 29.8174C28.521 30.7077 26.77 33.0571 26.77 35.8159C26.77 39.3397 29.6266 42.1963 33.1504 42.1963H68.8504C72.3742 42.1963 75.2308 39.3397 75.2308 35.8159C75.231 33.0573 73.48 30.7079 71.0291 29.8176Z" fill="white"/>
<path d="M49.937 23.8624C49.937 21.9056 51.5232 20.3195 53.4799 20.3195C55.4366 20.3195 57.0228 21.9056 57.0228 23.8624" stroke="#90AAD3" stroke-width="2" stroke-miterlimit="10" stroke-linecap="round" stroke-linejoin="round"/>
<path d="M33.458 36.389C33.458 34.4322 35.0442 32.8461 37.0009 32.8461C38.9576 32.8461 40.5438 34.4322 40.5438 36.389" stroke="#90AAD3" stroke-width="2" stroke-miterlimit="10" stroke-linecap="round" stroke-linejoin="round"/>
<path d="M37.582 32.4568C37.582 30.5001 39.1682 28.9139 41.1249 28.9139" stroke="#90AAD3" stroke-width="2" stroke-miterlimit="10" stroke-linecap="round" stroke-linejoin="round"/>
<path d="M53.3008 27.1228C54.1415 25.1352 56.1096 23.7405 58.4036 23.7405C61.4622 23.7405 63.9417 26.22 63.9417 29.2786" stroke="#90AAD3" stroke-width="2" stroke-miterlimit="10" stroke-linecap="round" stroke-linejoin="round"/>
<path d="M57.4218 42.1965H68.8506C72.3744 42.1965 75.231 39.3399 75.231 35.8161C75.231 33.0575 73.48 30.7081 71.0291 29.8176C71.1769 29.1785 71.2576 28.5137 71.2576 27.8296C71.2576 22.9765 67.3232 19.0421 62.47 19.0421C62.2345 19.0421 62.0021 19.054 61.7714 19.0722C59.6873 15.2661 55.6456 12.6848 51.0004 12.6848C46.3552 12.6848 42.3135 15.2661 40.2294 19.0722C39.9987 19.054 39.7663 19.0421 39.5308 19.0421C34.6776 19.0421 30.7432 22.9765 30.7432 27.8296C30.7432 28.5137 30.8239 29.1785 30.9719 29.8176C28.521 30.7079 26.77 33.0573 26.77 35.8161C26.77 39.3399 29.6266 42.1965 33.1504 42.1965H40.4386" stroke="#3A5482" stroke-width="2" stroke-miterlimit="10" stroke-linecap="round" stroke-linejoin="round"/>
<path d="M56.8467 48.3161V33.2081C56.8467 32.6581 56.4007 32.212 55.8506 32.212H46.1497C45.5996 32.212 45.1536 32.6581 45.1536 33.2081V48.3161H39.0567C38.1692 48.3161 37.7249 49.3891 38.3523 50.0166L50.2956 61.96C50.6847 62.3491 51.3152 62.3491 51.7043 61.96L63.6477 50.0166C64.2752 49.3891 63.8307 48.3161 62.9432 48.3161H56.8467Z" fill="#90AAD3"/>
<path d="M56.8467 48.3161V33.2081C56.8467 32.6581 56.4007 32.212 55.8506 32.212H46.1497C45.5996 32.212 45.1536 32.6581 45.1536 33.2081V48.3161H39.0567C38.1692 48.3161 37.7249 49.3891 38.3523 50.0166L50.2956 61.96C50.6847 62.3491 51.3152 62.3491 51.7043 61.96L63.6477 50.0166C64.2752 49.3891 63.8307 48.3161 62.9432 48.3161H56.8467Z" stroke="#3A5482" stroke-width="2" stroke-miterlimit="10" stroke-linecap="round" stroke-linejoin="round"/>
<path d="M78.7515 51.85H73.8208C73.2708 51.85 72.8247 51.4039 72.8247 50.8539V45.9232C72.8247 45.3732 73.2708 44.9271 73.8208 44.9271H78.7515C79.3015 44.9271 79.7476 45.3732 79.7476 45.9232V50.8539C79.7476 51.4039 79.3015 51.85 78.7515 51.85Z" fill="#90AAD3"/>
<path d="M23.2822 56.1747H23.9859" stroke="#3A5482" stroke-width="2" stroke-miterlimit="10" stroke-linecap="round" stroke-linejoin="round"/>
<path d="M27.7451 56.1747H36.2149" stroke="#90AAD3" stroke-width="2" stroke-miterlimit="10" stroke-linecap="round" stroke-linejoin="round"/>
<path d="M23.2822 59.7566H23.9859" stroke="#3A5482" stroke-width="2" stroke-miterlimit="10" stroke-linecap="round" stroke-linejoin="round"/>
<path d="M27.7451 59.7566H36.2149" stroke="#90AAD3" stroke-width="2" stroke-miterlimit="10" stroke-linecap="round" stroke-linejoin="round"/>
<path d="M23.2822 63.3384H23.9859" stroke="#3A5482" stroke-width="2" stroke-miterlimit="10" stroke-linecap="round" stroke-linejoin="round"/>
<path d="M27.7451 63.3384H36.2149" stroke="#90AAD3" stroke-width="2" stroke-miterlimit="10" stroke-linecap="round" stroke-linejoin="round"/>
<path d="M72.8247 56.1747H78.7184" stroke="#90AAD3" stroke-width="2" stroke-miterlimit="10" stroke-linecap="round" stroke-linejoin="round"/>
<path d="M66.5 59.7566H78.7185" stroke="#90AAD3" stroke-width="2" stroke-miterlimit="10" stroke-linecap="round" stroke-linejoin="round"/>
<path d="M66.5 63.3384H78.7185" stroke="#90AAD3" stroke-width="2" stroke-miterlimit="10" stroke-linecap="round" stroke-linejoin="round"/>
<path d="M62.4639 37.5503C63.014 37.5503 63.46 37.1043 63.46 36.5542C63.46 36.0041 63.014 35.5581 62.4639 35.5581C61.9137 35.5581 61.4678 36.0041 61.4678 36.5542C61.4678 37.1043 61.9137 37.5503 62.4639 37.5503Z" fill="#90AAD3"/>
<path d="M69.9194 37.5844C70.4696 37.5844 70.9155 37.1384 70.9155 36.5883C70.9155 36.0381 70.4696 35.5922 69.9194 35.5922C69.3693 35.5922 68.9233 36.0381 68.9233 36.5883C68.9233 37.1384 69.3693 37.5844 69.9194 37.5844Z" fill="#90AAD3"/>
<path d="M64.7388 34.7953C65.2889 34.7953 65.7349 34.3493 65.7349 33.7992C65.7349 33.2491 65.2889 32.8031 64.7388 32.8031C64.1886 32.8031 63.7427 33.2491 63.7427 33.7992C63.7427 34.3493 64.1886 34.7953 64.7388 34.7953Z" fill="#90AAD3"/>
<path d="M45.1372 21.7383C45.6873 21.7383 46.1333 21.2923 46.1333 20.7422C46.1333 20.1921 45.6873 19.7461 45.1372 19.7461C44.5871 19.7461 44.1411 20.1921 44.1411 20.7422C44.1411 21.2923 44.5871 21.7383 45.1372 21.7383Z" fill="#90AAD3"/>
<path d="M36.0049 27.3063C36.555 27.3063 37.001 26.8603 37.001 26.3102C37.001 25.7601 36.555 25.3141 36.0049 25.3141C35.4548 25.3141 35.0088 25.7601 35.0088 26.3102C35.0088 26.8603 35.4548 27.3063 36.0049 27.3063Z" fill="#90AAD3"/>
<path d="M43.9595 24.8584C44.5096 24.8584 44.9556 24.4124 44.9556 23.8623C44.9556 23.3122 44.5096 22.8662 43.9595 22.8662C43.4093 22.8662 42.9634 23.3122 42.9634 23.8623C42.9634 24.4124 43.4093 24.8584 43.9595 24.8584Z" fill="#90AAD3"/>
<defs>
<linearGradient id="paint0_linear_485_10114" x1="19.2977" y1="79.4529" x2="81.5509" y2="17.1997" gradientUnits="userSpaceOnUse">
<stop stop-color="#D2DEFF" stop-opacity="0"/>
<stop offset="1" stop-color="#D9DDEE"/>
</linearGradient>
</defs>
</svg>
