<svg width="102" height="102" viewBox="0 0 102 102" fill="none" xmlns="http://www.w3.org/2000/svg">
<path d="M87.9582 73.9399C82.7123 56.2271 64.4045 38.3644 77.0204 19.0782C79.4338 15.3889 79.171 9.21568 77.1645 6.60671C64.5557 -9.7874 36.7079 7.11671 36.905 26.9446C37.0347 39.9824 27.3968 48.144 18.903 56.5833C-26.2846 95.3605 102.848 127.017 87.9582 73.9399Z" fill="url(#paint0_linear_485_10238)"/>
<path opacity="0.1" d="M77.4839 14.9221H26.5156C24.315 14.9221 22.5312 16.7059 22.5312 18.9065V36.3571H15.0376C13.9373 36.3571 13.0454 37.249 13.0454 38.3492V68.9265C13.0454 70.0268 13.9373 70.9187 15.0376 70.9187H22.5312V94.4596C22.5312 96.6602 24.315 98.444 26.5156 98.444H78.6792C80.8798 98.444 81.4683 96.6602 81.4683 94.4596V18.9065C81.4683 16.7059 79.6845 14.9221 77.4839 14.9221Z" fill="#3A5482"/>
<path d="M81.4681 14.1246V89.6783C81.4681 91.8797 80.8804 93.6627 78.6791 93.6627H26.5156C24.3143 93.6627 22.5312 91.8797 22.5312 89.6783V14.1246C22.5312 11.9253 24.3143 10.1403 26.5156 10.1403H77.4837C79.6851 10.1403 81.4681 11.9253 81.4681 14.1246Z" fill="#90AAD3"/>
<path d="M76.2884 16.316V87.4869C76.2884 88.037 75.8424 88.483 75.2923 88.483H28.707C28.157 88.483 27.7109 88.037 27.7109 87.4869V16.316C27.7109 15.766 28.157 15.3199 28.707 15.3199H75.2923C75.8424 15.3199 76.2884 15.766 76.2884 16.316Z" fill="white"/>
<path d="M61.9777 18.1123H42.021C41.471 18.1123 41.0249 17.6663 41.0249 17.1163V9.33337C41.0249 8.78333 41.471 8.33728 42.021 8.33728H61.9775C62.5276 8.33728 62.9736 8.78333 62.9736 9.33337V17.1163C62.9738 17.6663 62.5278 18.1123 61.9777 18.1123Z" fill="white"/>
<path d="M45.8062 14.2208C46.3563 14.2208 46.8022 13.7749 46.8022 13.2247C46.8022 12.6746 46.3563 12.2286 45.8062 12.2286C45.256 12.2286 44.8101 12.6746 44.8101 13.2247C44.8101 13.7749 45.256 14.2208 45.8062 14.2208Z" fill="#3A5482"/>
<path d="M58.1924 14.2208C58.7425 14.2208 59.1885 13.7749 59.1885 13.2247C59.1885 12.6746 58.7425 12.2286 58.1924 12.2286C57.6423 12.2286 57.1963 12.6746 57.1963 13.2247C57.1963 13.7749 57.6423 14.2208 58.1924 14.2208Z" fill="#3A5482"/>
<path d="M32.3706 54.6903V83.9962H65.6013C65.9687 83.9962 66.1402 83.5414 65.8647 83.2987L33.0324 54.3913C32.775 54.1648 32.3706 54.3474 32.3706 54.6903Z" fill="#90AAD3"/>
<path d="M71.6291 61.9371V69.5432L64.4672 77.1335L49.5637 83.9965H32.3711L42.6368 71.5175C42.7962 71.3242 43.093 71.3242 43.2524 71.5175L48.4122 77.7889L59.5306 64.2779C59.69 64.0846 59.9868 64.0846 60.1462 64.2779L64.4672 69.5273L70.9239 61.6841C71.161 61.3952 71.6291 61.5625 71.6291 61.9371Z" fill="white"/>
<path d="M43.2523 79.1237L47.2606 83.9966H38.6284L42.6367 79.1237C42.7961 78.9304 43.0929 78.9304 43.2523 79.1237Z" fill="#90AAD3"/>
<path d="M71.6289 69.5433V83.5981C71.6289 83.8173 71.4516 83.9966 71.2305 83.9966H49.5635L59.5304 71.8841C59.6898 71.6908 59.9866 71.6908 60.146 71.8841L64.467 77.1335L70.9237 69.2903C71.1608 69.0014 71.6289 69.1687 71.6289 69.5433Z" fill="#90AAD3"/>
<path d="M36.8568 66.1375H15.0376C13.9373 66.1375 13.0454 65.2456 13.0454 64.1453V33.568C13.0454 32.4677 13.9373 31.5758 15.0376 31.5758H36.8568C37.9571 31.5758 38.849 32.4677 38.849 33.568V64.1453C38.849 65.2456 37.9571 66.1375 36.8568 66.1375Z" fill="#90AAD3"/>
<path d="M77.484 9.14465H68.6492C68.099 9.14465 67.6531 9.5907 67.6531 10.1407C67.6531 10.6908 68.099 11.1368 68.6492 11.1368H77.484C79.1317 11.1368 80.4722 12.4774 80.4722 14.1251V89.6782C80.4722 92.6665 79.306 92.6665 78.6793 92.6665H26.5156C24.8679 92.6665 23.5273 91.326 23.5273 89.6782V71.627C23.5273 71.077 23.0815 70.6309 22.5312 70.6309C21.981 70.6309 21.5352 71.077 21.5352 71.627V89.6782C21.5352 92.4245 23.7694 94.6587 26.5156 94.6587H78.6795C80.4063 94.6587 82.4646 93.7947 82.4646 89.6782V14.1251C82.4644 11.3789 80.2304 9.14465 77.484 9.14465Z" fill="#3A5482"/>
<path d="M71.6289 83.0005H34.48L42.9442 72.7112L47.6425 78.4216C47.8318 78.6515 48.1139 78.7848 48.4117 78.7848C48.7096 78.7848 48.9916 78.6515 49.1809 78.4216L59.8379 65.471L63.6976 70.1602C63.8866 70.3901 64.1689 70.5232 64.4666 70.5232C64.7642 70.5232 65.0463 70.3901 65.2355 70.1602L71.2474 62.8575C71.3647 62.9061 71.4934 62.933 71.6285 62.933C72.1787 62.933 72.6246 62.4869 72.6246 61.9369C72.6246 61.34 72.2616 60.8245 71.6998 60.6236C71.1384 60.4232 70.5314 60.5908 70.1541 61.051L64.4664 67.9601L60.9137 63.6438C60.6477 63.3215 60.2555 63.1368 59.8375 63.1368C59.8373 63.1368 59.8373 63.1368 59.8371 63.1368C59.419 63.1368 59.0269 63.3219 58.7605 63.6448L48.4115 76.2211L44.0203 70.8838C43.7544 70.5613 43.3621 70.3764 42.944 70.3764C42.5258 70.3764 42.1335 70.5613 41.867 70.8846L33.3665 81.2175V78.3667H34.1455C34.6953 78.3667 35.1416 77.9204 35.1416 77.3706C35.1416 76.8207 34.6953 76.3745 34.1455 76.3745H33.3665V72.914H34.1455C34.6953 72.914 35.1416 72.4678 35.1416 71.9179C35.1416 71.3681 34.6953 70.9219 34.1455 70.9219H33.3665V67.1335H36.8564C38.5042 67.1335 39.8447 65.793 39.8447 64.1452V33.5679C39.8447 31.9202 38.5042 30.5797 36.8564 30.5797H23.5269V14.1252C23.5269 12.4774 24.8675 11.1369 26.5152 11.1369H40.029V17.1163C40.029 18.2147 40.9227 19.1084 42.0212 19.1084H61.9777C63.0762 19.1084 63.9699 18.2147 63.9699 17.1163V9.33337C63.9699 8.23488 63.0762 7.34119 61.9777 7.34119H42.0216C40.9868 7.34119 40.1344 8.13448 40.039 9.14471H26.5156C23.7694 9.14471 21.5351 11.379 21.5351 14.1252V30.5797H15.0376C13.3899 30.5797 12.0493 31.9202 12.0493 33.5679V64.1452C12.0493 65.793 13.3899 67.1335 15.0376 67.1335H31.3745V83.9966C31.3745 84.5464 31.8208 84.9927 32.3706 84.9927H71.6287C72.1785 84.9927 72.6248 84.5464 72.6248 83.9966C72.6248 83.4467 72.1787 83.0005 71.6289 83.0005ZM42.0216 9.33337H61.9781L61.9795 17.1161H42.0216V9.33337ZM14.0415 64.1452V33.5679C14.0415 33.0187 14.4884 32.5718 15.0376 32.5718H36.8566C37.4059 32.5718 37.8527 33.0187 37.8527 33.5679V64.1452C37.8527 64.6945 37.4059 65.1413 36.8566 65.1413H15.0376C14.4886 65.1413 14.0415 64.6945 14.0415 64.1452Z" fill="#3A5482"/>
<path d="M23.8139 39.6429H20.1118C19.5618 39.6429 19.1157 39.1969 19.1157 38.6469C19.1157 38.0968 19.5618 37.6508 20.1118 37.6508H23.8139C24.3639 37.6508 24.81 38.0968 24.81 38.6469C24.81 39.1969 24.3641 39.6429 23.8139 39.6429Z" fill="white"/>
<path d="M31.7826 43.7032H20.1118C19.5618 43.7032 19.1157 43.2572 19.1157 42.7072C19.1157 42.1571 19.5618 41.7111 20.1118 41.7111H31.7826C32.3327 41.7111 32.7787 42.1571 32.7787 42.7072C32.7787 43.2572 32.3329 43.7032 31.7826 43.7032Z" fill="white"/>
<path d="M31.7826 47.7637H20.1118C19.5618 47.7637 19.1157 47.3176 19.1157 46.7676C19.1157 46.2175 19.5618 45.7715 20.1118 45.7715H31.7826C32.3327 45.7715 32.7787 46.2175 32.7787 46.7676C32.7787 47.3176 32.3329 47.7637 31.7826 47.7637Z" fill="white"/>
<path d="M31.7826 55.9653H23.6978C23.1477 55.9653 22.7017 55.5193 22.7017 54.9692C22.7017 54.4192 23.1477 53.9731 23.6978 53.9731H31.7826C32.3327 53.9731 32.7787 54.4192 32.7787 54.9692C32.7787 55.5193 32.3329 55.9653 31.7826 55.9653Z" fill="white"/>
<path d="M20.1118 55.9653C20.6619 55.9653 21.1079 55.5194 21.1079 54.9692C21.1079 54.4191 20.6619 53.9731 20.1118 53.9731C19.5617 53.9731 19.1157 54.4191 19.1157 54.9692C19.1157 55.5194 19.5617 55.9653 20.1118 55.9653Z" fill="white"/>
<path d="M20.1118 60.0258C20.6619 60.0258 21.1079 59.5798 21.1079 59.0297C21.1079 58.4795 20.6619 58.0336 20.1118 58.0336C19.5617 58.0336 19.1157 58.4795 19.1157 59.0297C19.1157 59.5798 19.5617 60.0258 20.1118 60.0258Z" fill="white"/>
<path d="M31.7826 60.0258H23.6978C23.1477 60.0258 22.7017 59.5797 22.7017 59.0297C22.7017 58.4796 23.1477 58.0336 23.6978 58.0336H31.7826C32.3327 58.0336 32.7787 58.4796 32.7787 59.0297C32.7787 59.5797 32.3329 60.0258 31.7826 60.0258Z" fill="white"/>
<path d="M66.8247 26.9473H70.5268C71.0768 26.9473 71.5229 26.5012 71.5229 25.9512C71.5229 25.4011 71.0768 24.9551 70.5268 24.9551H66.8247C66.2747 24.9551 65.8286 25.4011 65.8286 25.9512C65.8286 26.5012 66.2747 26.9473 66.8247 26.9473Z" fill="#3A5482"/>
<path d="M56.8638 31.0076H70.5268C71.0768 31.0076 71.5229 30.5615 71.5229 30.0115C71.5229 29.4614 71.0768 29.0154 70.5268 29.0154H56.8638C56.3137 29.0154 55.8677 29.4614 55.8677 30.0115C55.8677 30.5615 56.3137 31.0076 56.8638 31.0076Z" fill="#3A5482"/>
<path d="M56.8638 35.068H70.5268C71.0768 35.068 71.5229 34.6219 71.5229 34.0719C71.5229 33.5219 71.0768 33.0758 70.5268 33.0758H56.8638C56.3137 33.0758 55.8677 33.5219 55.8677 34.0719C55.8677 34.6219 56.3137 35.068 56.8638 35.068Z" fill="#3A5482"/>
<path d="M45.7427 40.8793H70.5267C71.0767 40.8793 71.5228 40.4332 71.5228 39.8832C71.5228 39.3331 71.0767 38.8871 70.5267 38.8871H45.7427C45.1926 38.8871 44.7466 39.3331 44.7466 39.8832C44.7466 40.4332 45.1926 40.8793 45.7427 40.8793Z" fill="#3A5482"/>
<path d="M45.7427 44.9395H70.5267C71.0767 44.9395 71.5228 44.4934 71.5228 43.9434C71.5228 43.3933 71.0767 42.9473 70.5267 42.9473H45.7427C45.1926 42.9473 44.7466 43.3933 44.7466 43.9434C44.7466 44.4934 45.1926 44.9395 45.7427 44.9395Z" fill="#3A5482"/>
<path d="M62.3008 56.0209H70.5269C71.077 56.0209 71.523 55.5748 71.523 55.0248V50.6183C71.523 50.0682 71.077 49.6222 70.5269 49.6222H62.3008C61.7507 49.6222 61.3047 50.0682 61.3047 50.6183V55.0248C61.3047 55.5748 61.7507 56.0209 62.3008 56.0209Z" fill="#90AAD3"/>
<path d="M52.3574 56.0209H57.7945C58.3445 56.0209 58.7906 55.5748 58.7906 55.0248V50.6183C58.7906 50.0682 58.3445 49.6222 57.7945 49.6222H52.3574C51.8074 49.6222 51.3613 50.0682 51.3613 50.6183V55.0248C51.3613 55.5748 51.8074 56.0209 52.3574 56.0209Z" fill="#90AAD3"/>
<path d="M10.9996 78.4252C10.4494 78.4252 10.0036 77.9791 10.0036 77.4291C10.0036 76.7334 9.43737 76.1674 8.7417 76.1674C8.19146 76.1674 7.74561 75.7214 7.74561 75.1713C7.74561 74.6213 8.19146 74.1752 8.7417 74.1752C9.43737 74.1752 10.0036 73.6092 10.0036 72.9136C10.0036 72.3635 10.4494 71.9175 10.9996 71.9175C11.5499 71.9175 11.9957 72.3635 11.9957 72.9136C11.9957 73.6092 12.5617 74.1752 13.2574 74.1752C13.8076 74.1752 14.2535 74.6213 14.2535 75.1713C14.2535 75.7214 13.8076 76.1674 13.2574 76.1674C12.5617 76.1674 11.9957 76.7334 11.9957 77.4291C11.9957 77.9791 11.5499 78.4252 10.9996 78.4252Z" fill="#90AAD3"/>
<path d="M91.0009 15.0842C90.4507 15.0842 90.0048 14.6382 90.0048 14.0881C90.0048 13.3925 89.4388 12.8265 88.7432 12.8265C88.1929 12.8265 87.7471 12.3804 87.7471 11.8304C87.7471 11.2803 88.1929 10.8343 88.7432 10.8343C89.4388 10.8343 90.0048 10.2683 90.0048 9.57263C90.0048 9.02259 90.4507 8.57654 91.0009 8.57654C91.5512 8.57654 91.997 9.02259 91.997 9.57263C91.997 10.2683 92.563 10.8343 93.2587 10.8343C93.8089 10.8343 94.2548 11.2803 94.2548 11.8304C94.2548 12.3804 93.8089 12.8265 93.2587 12.8265C92.563 12.8265 91.997 13.3925 91.997 14.0881C91.997 14.6382 91.5512 15.0842 91.0009 15.0842Z" fill="#90AAD3"/>
<path d="M15.8505 88.3284C15.3003 88.3284 14.8544 87.8823 14.8544 87.3323C14.8544 86.6366 14.2884 86.0706 13.5928 86.0706C13.0425 86.0706 12.5967 85.6246 12.5967 85.0745C12.5967 84.5245 13.0425 84.0784 13.5928 84.0784C14.2884 84.0784 14.8544 83.5124 14.8544 82.8168C14.8544 82.2667 15.3003 81.8207 15.8505 81.8207C16.4008 81.8207 16.8466 82.2667 16.8466 82.8168C16.8466 83.5124 17.4128 84.0784 18.1085 84.0784C18.6587 84.0784 19.1046 84.5245 19.1046 85.0745C19.1046 85.6246 18.6587 86.0706 18.1085 86.0706C17.4128 86.0706 16.8466 86.6366 16.8466 87.3323C16.8466 87.8823 16.4006 88.3284 15.8505 88.3284Z" fill="#90AAD3"/>
<path d="M89.2714 24.7868C89.0166 24.7868 88.7614 24.6896 88.5672 24.4951L87.4785 23.4066L86.3897 24.4951C86.0011 24.884 85.3699 24.884 84.9813 24.4951C84.5922 24.1061 84.5922 23.4753 84.9813 23.0865L86.7742 21.2935C87.1629 20.9046 87.794 20.9046 88.1827 21.2935L89.9757 23.0865C90.3647 23.4755 90.3647 24.1063 89.9757 24.4951C89.7814 24.6896 89.5264 24.7868 89.2714 24.7868Z" fill="#90AAD3"/>
<path d="M15.8505 25.6833C15.5957 25.6833 15.3405 25.5861 15.1463 25.3916L14.0576 24.3031L12.9688 25.3916C12.5802 25.7805 11.949 25.7805 11.5604 25.3916C11.1713 25.0025 11.1713 24.3718 11.5604 23.9829L13.3533 22.19C13.742 21.8011 14.3731 21.8011 14.7618 22.19L16.5548 23.9829C16.9438 24.372 16.9438 25.0027 16.5548 25.3916C16.3603 25.5861 16.1053 25.6833 15.8505 25.6833Z" fill="#90AAD3"/>
<defs>
<linearGradient id="paint0_linear_485_10238" x1="9.26077" y1="51" x2="89.1608" y2="51" gradientUnits="userSpaceOnUse">
<stop stop-color="#D2DEFF" stop-opacity="0"/>
<stop offset="1" stop-color="#D9DDEE"/>
</linearGradient>
</defs>
</svg>
