<svg width="108" height="102" viewBox="0 0 108 102" fill="none" xmlns="http://www.w3.org/2000/svg">
<g clip-path="url(#clip0_479_8412)">
<path d="M104.404 35.6572C114.926 11.3356 80.1984 -11.5339 58.4213 6.43479C48.522 14.603 5.68245 5.06138 1.98493 19.4561C-0.433894 28.8722 11.2265 35.3307 14.3872 43.7198C18.1929 53.8204 12.8436 65.037 14.5773 75.6324C18.4408 99.2434 48.569 105.565 70.3892 100.233C92.8984 94.7331 81.9075 81.2906 83.1756 66.4783C84.2347 54.1082 99.4334 47.1455 104.404 35.6572Z" fill="url(#paint0_linear_479_8412)"/>
<path opacity="0.1" d="M90.0484 35.2233H69.1987V21.1042C69.1987 17.8034 66.3656 15.1277 62.8706 15.1277H22.1704C18.6754 15.1277 15.8423 17.8034 15.8423 21.1042V76.6857C15.8423 79.9865 18.6754 82.6622 22.1704 82.6622H46.2399V92.6198C46.2399 93.7201 47.1842 94.612 48.3492 94.612H90.0484C91.2134 94.612 92.1578 93.7201 92.1578 92.6198V37.2155C92.1578 36.1152 91.2134 35.2233 90.0484 35.2233Z" fill="#3A5482"/>
<path d="M90.0483 89.4322H48.3491C47.1841 89.4322 46.2397 88.5403 46.2397 87.44V32.0359C46.2397 30.9356 47.1841 30.0437 48.3491 30.0437H90.0483C91.2133 30.0437 92.1577 30.9356 92.1577 32.0359V87.44C92.1577 88.5403 91.2133 89.4322 90.0483 89.4322Z" fill="#90AAD3"/>
<path d="M50.4585 77.652V41.8241C50.4585 37.5186 54.1541 34.0281 58.7131 34.0281H79.6843C84.2431 34.0281 87.9389 37.5184 87.9389 41.8241V77.652C87.9389 81.9575 84.2433 85.448 79.6843 85.448H58.7131C54.1541 85.4478 50.4585 81.9575 50.4585 77.652Z" fill="white"/>
<path d="M61.7749 89.4322H90.0481C91.2131 89.4322 92.1575 88.5403 92.1575 87.44V32.0359C92.1575 30.9356 91.2131 30.0437 90.0481 30.0437H69.7519" stroke="#3A5482" stroke-width="2" stroke-miterlimit="10" stroke-linecap="round" stroke-linejoin="round"/>
<path d="M46.2397 78.0583V87.44C46.2397 88.5402 47.1841 89.4321 48.3491 89.4321H56.9739" stroke="#3A5482" stroke-width="2" stroke-miterlimit="10" stroke-linecap="round" stroke-linejoin="round"/>
<path d="M62.8706 77.4824H22.1704C18.6754 77.4824 15.8423 74.8067 15.8423 71.5058V15.9246C15.8423 12.6237 18.6754 9.948 22.1704 9.948H62.8706C66.3656 9.948 69.1987 12.6237 69.1987 15.9246V71.506C69.1987 74.8067 66.3656 77.4824 62.8706 77.4824Z" fill="#90AAD3"/>
<path d="M22.1704 73.498C21.0073 73.498 20.061 72.6043 20.061 71.5058V15.9246C20.061 14.8261 21.0073 13.9324 22.1704 13.9324H62.8706C64.0337 13.9324 64.98 14.8261 64.98 15.9246V71.5058C64.98 72.6043 64.0337 73.498 62.8706 73.498H22.1704Z" fill="white"/>
<path d="M69.1987 40.085V15.9246C69.1987 12.6237 66.3656 9.948 62.8706 9.948H22.1704C18.6754 9.948 15.8423 12.6237 15.8423 15.9246V71.506C15.8423 74.8069 18.6754 77.4826 22.1704 77.4826H62.8706C66.3656 77.4826 69.1987 74.8069 69.1987 71.506V44.6194" stroke="#3A5482" stroke-width="2" stroke-miterlimit="10" stroke-linecap="round" stroke-linejoin="round"/>
<path d="M27.7725 20.3977H26.5068C26.2737 20.3977 26.085 20.2194 26.085 19.9993V18.804C26.085 18.5838 26.2737 18.4055 26.5068 18.4055H27.7725C28.0055 18.4055 28.1943 18.5838 28.1943 18.804V19.9993C28.1943 20.2192 28.0053 20.3977 27.7725 20.3977Z" fill="#90AAD3"/>
<path d="M31.8862 20.3977H30.6206C30.3875 20.3977 30.1987 20.2194 30.1987 19.9993V18.804C30.1987 18.5838 30.3875 18.4055 30.6206 18.4055H31.8862C32.1193 18.4055 32.3081 18.5838 32.3081 18.804V19.9993C32.3081 20.2192 32.1193 20.3977 31.8862 20.3977Z" fill="#90AAD3"/>
<path d="M36.0005 20.3977H34.7349C34.5018 20.3977 34.313 20.2194 34.313 19.9993V18.804C34.313 18.5838 34.5018 18.4055 34.7349 18.4055H36.0005C36.2336 18.4055 36.4224 18.5838 36.4224 18.804V19.9993C36.4224 20.2192 36.2336 20.3977 36.0005 20.3977Z" fill="#90AAD3"/>
<path d="M57.9536 30.0421H27.0869C26.5045 30.0421 26.0322 29.596 26.0322 29.046V24.2554C26.0322 23.7053 26.5045 23.2593 27.0869 23.2593H57.9536C58.536 23.2593 59.0083 23.7053 59.0083 24.2554V29.046C59.0083 29.5962 58.5362 30.0421 57.9536 30.0421Z" fill="#90AAD3"/>
<path d="M26.9199 35.3923H47.9616" stroke="#90AAD3" stroke-width="2" stroke-miterlimit="10" stroke-linecap="round" stroke-linejoin="round"/>
<path d="M26.9199 39.5474H58.1203" stroke="#90AAD3" stroke-width="2" stroke-miterlimit="10" stroke-linecap="round" stroke-linejoin="round"/>
<path d="M26.9199 43.7024H58.1203" stroke="#90AAD3" stroke-width="2" stroke-miterlimit="10" stroke-linecap="round" stroke-linejoin="round"/>
<path d="M26.9199 50.0278H58.1203" stroke="#90AAD3" stroke-width="2" stroke-miterlimit="10" stroke-linecap="round" stroke-linejoin="round"/>
<path d="M26.9199 54.1829H58.1203" stroke="#90AAD3" stroke-width="2" stroke-miterlimit="10" stroke-linecap="round" stroke-linejoin="round"/>
<path d="M26.9199 58.3376H58.1203" stroke="#90AAD3" stroke-width="2" stroke-miterlimit="10" stroke-linecap="round" stroke-linejoin="round"/>
<path d="M49.1417 69.0251H27.1396C26.5573 69.0251 26.085 68.579 26.085 68.029V64.575C26.085 64.0249 26.5573 63.5789 27.1396 63.5789H49.1417C49.7241 63.5789 50.1964 64.0249 50.1964 64.575V68.029C50.1964 68.579 49.7241 69.0251 49.1417 69.0251Z" fill="#90AAD3"/>
<path d="M77.6601 41.2205H74.46" stroke="#90AAD3" stroke-width="2" stroke-miterlimit="10" stroke-linecap="round" stroke-linejoin="round"/>
<path d="M80.86 45.3752H74.46" stroke="#90AAD3" stroke-width="2" stroke-miterlimit="10" stroke-linecap="round" stroke-linejoin="round"/>
<path d="M80.86 49.5305H74.46" stroke="#90AAD3" stroke-width="2" stroke-miterlimit="10" stroke-linecap="round" stroke-linejoin="round"/>
<path d="M80.86 55.583H74.46" stroke="#90AAD3" stroke-width="2" stroke-miterlimit="10" stroke-linecap="round" stroke-linejoin="round"/>
<path d="M80.86 59.7378H74.46" stroke="#90AAD3" stroke-width="2" stroke-miterlimit="10" stroke-linecap="round" stroke-linejoin="round"/>
<path d="M80.86 63.8928H74.46" stroke="#90AAD3" stroke-width="2" stroke-miterlimit="10" stroke-linecap="round" stroke-linejoin="round"/>
<path d="M80.86 69.9453H74.46" stroke="#90AAD3" stroke-width="2" stroke-miterlimit="10" stroke-linecap="round" stroke-linejoin="round"/>
<path d="M80.86 74.1003H74.46" stroke="#90AAD3" stroke-width="2" stroke-miterlimit="10" stroke-linecap="round" stroke-linejoin="round"/>
<path d="M80.86 78.2551H74.46" stroke="#90AAD3" stroke-width="2" stroke-miterlimit="10" stroke-linecap="round" stroke-linejoin="round"/>
<path d="M34.0381 90.4518H31.9287C31.3463 90.4518 30.874 90.0057 30.874 89.4557V87.4635C30.874 86.9135 31.3463 86.4674 31.9287 86.4674H34.0381C34.6205 86.4674 35.0928 86.9135 35.0928 87.4635V89.4557C35.0928 90.0057 34.6207 90.4518 34.0381 90.4518Z" stroke="#90AAD3" stroke-width="2" stroke-miterlimit="10" stroke-linecap="round" stroke-linejoin="round"/>
<path d="M86.7886 13.6201H84.6792C84.0968 13.6201 83.6245 13.1741 83.6245 12.624V10.6318C83.6245 10.0818 84.0968 9.63574 84.6792 9.63574H86.7886C87.371 9.63574 87.8433 10.0818 87.8433 10.6318V12.624C87.8433 13.1743 87.3712 13.6201 86.7886 13.6201Z" stroke="#90AAD3" stroke-width="2" stroke-miterlimit="10" stroke-linecap="round" stroke-linejoin="round"/>
<path d="M77.2974 19.6945H77.7184M77.7184 19.6945C78.6503 19.6945 79.4059 18.9809 79.4059 18.1008M77.7184 19.6945C78.6503 19.6945 79.4059 20.4081 79.4059 21.2883M79.4059 18.1008V17.7031M79.4059 18.1008C79.4059 18.9809 80.1615 19.6945 81.0934 19.6945M81.0934 19.6945H81.5144M81.0934 19.6945C80.1615 19.6945 79.4059 20.4081 79.4059 21.2883M79.4059 21.2883V21.6859" stroke="#90AAD3" stroke-width="2" stroke-miterlimit="10" stroke-linecap="round" stroke-linejoin="round"/>
<path d="M7.5498 70.8195H7.97084M7.97084 70.8195C8.90276 70.8195 9.65834 70.1059 9.65834 69.2258M7.97084 70.8195C8.90276 70.8195 9.65834 71.5331 9.65834 72.4133M9.65834 69.2258V68.8281M9.65834 69.2258C9.65834 70.1059 10.4139 70.8195 11.3458 70.8195M11.3458 70.8195H11.7669M11.3458 70.8195C10.4139 70.8195 9.65834 71.5331 9.65834 72.4133M9.65834 72.4133V72.8109" stroke="#90AAD3" stroke-width="2" stroke-miterlimit="10" stroke-linecap="round" stroke-linejoin="round"/>
<path d="M97.2163 66.7983H97.6373M97.6373 66.7983C98.5693 66.7983 99.3248 66.0847 99.3248 65.2045M97.6373 66.7983C98.5693 66.7983 99.3248 67.5119 99.3248 68.392M99.3248 65.2045V64.8069M99.3248 65.2045C99.3248 66.0847 100.08 66.7983 101.012 66.7983M101.012 66.7983H101.433M101.012 66.7983C100.08 66.7983 99.3248 67.5119 99.3248 68.392M99.3248 68.392V68.7897" stroke="#90AAD3" stroke-width="2" stroke-miterlimit="10" stroke-linecap="round" stroke-linejoin="round"/>
</g>
<defs>
<linearGradient id="paint0_linear_479_8412" x1="13.9035" y1="82.7125" x2="90.5106" y2="1.59904" gradientUnits="userSpaceOnUse">
<stop stop-color="#CFDBFF" stop-opacity="0"/>
<stop offset="1" stop-color="#D9DDEE"/>
</linearGradient>
<clipPath id="clip0_479_8412">
<rect width="108" height="102" fill="white"/>
</clipPath>
</defs>
</svg>
