<svg width="102" height="102" viewBox="0 0 102 102" fill="none" xmlns="http://www.w3.org/2000/svg">
<g clip-path="url(#clip0_483_9083)">
<path d="M49.8346 85.4562C50.8672 72.7746 69.0756 71.6093 77.7771 69.0283C89.1118 65.6662 95.137 53.9807 93.238 41.6175C92.6999 38.1149 91.4327 34.7349 91.1638 31.2012C90.4673 22.0487 96.6979 19.4706 99.6481 12.4029C103.861 2.31009 91.1028 -3.07101 82.751 1.84372C78.4319 4.38535 75.0521 8.19481 71.5555 11.7851C68.0586 15.3755 64.0306 18.8275 59.1146 19.8033C51.6079 21.293 43.9828 16.6752 36.4043 17.7416C29.902 18.6566 24.3233 24.1795 23.3431 30.6725C22.6425 35.3137 24.0386 40.3338 22.0635 44.5917C20.4224 48.1298 16.8494 50.2688 13.8193 52.7244C8.277 57.2156 4.05257 63.4314 2.37295 70.3644C0.108037 79.7136 2.04145 93.7973 12.0032 97.3464C17.759 99.397 24.241 94.0796 30.0245 96.0495C33.4963 97.2321 35.868 100.818 39.4557 101.579C44.1453 102.574 48.3835 103.28 49.8346 85.4562Z" fill="url(#paint0_linear_483_9083)"/>
<path opacity="0.1" d="M74.1009 38.1299H68.5616C70.1798 36.2471 71.16 33.8001 71.16 31.1226C71.16 25.1803 66.3429 20.3632 60.4006 20.3632C58.5148 20.3632 56.7431 20.8497 55.202 21.7021C55.2289 21.3919 55.2454 21.0788 55.2454 20.7616C55.2454 14.8193 50.4283 10.0022 44.486 10.0022C38.5437 10.0022 33.7266 14.8193 33.7266 20.7616C33.7266 24.4507 35.5841 27.705 38.4138 29.6434C35.4572 31.3913 33.4114 34.5125 33.152 38.1299H27.8984C26.7982 38.1299 25.9062 39.0218 25.9062 40.1221V41.9137C25.9062 43.0139 26.7982 43.9058 27.8984 43.9058H30.0809L41.1811 63.7405C41.5061 64.3212 41.8119 64.9107 42.1085 65.5041C41.6135 65.8329 41.1353 66.1855 40.6805 66.5662L36.7441 64.8427C36.1642 64.5887 35.4875 64.7461 35.0735 65.2252C33.369 67.1971 32.029 69.4887 31.1511 71.9975C30.9415 72.5963 31.1417 73.2631 31.6523 73.6396L35.1195 76.1966C34.9665 77.0909 34.8852 78.0041 34.8852 78.9414C34.8852 79.8786 34.9665 80.7968 35.1195 81.6909L31.6523 84.2478C31.1417 84.6244 30.9415 85.2911 31.1511 85.89C32.0286 88.398 33.3672 90.6888 35.0649 92.6602C35.4783 93.1404 36.1555 93.2985 36.7362 93.0449L40.6807 91.3213C42.0866 92.4929 43.6931 93.43 45.4432 94.0755L45.9212 98.3499C45.9917 98.9805 46.4676 99.4885 47.0912 99.6056C48.3586 99.8439 49.6659 99.9666 50.9996 99.9666C52.3376 99.9666 53.6463 99.8411 54.9143 99.6012C55.5371 99.4835 56.0124 98.9759 56.0829 98.3459L56.5608 94.0755C58.311 93.43 59.9129 92.4927 61.3186 91.3213L65.2589 93.0447C65.8393 93.2985 66.5162 93.1408 66.9298 92.6612C68.6311 90.6892 69.9705 88.3976 70.8482 85.8858C71.0576 85.2868 70.857 84.6198 70.346 84.2435L66.8796 81.6909C67.0326 80.7966 67.1186 79.8786 67.1186 78.9414C67.1186 78.0091 67.0326 77.0909 66.8796 76.1966L70.3466 73.6436C70.8574 73.2675 71.058 72.6011 70.8492 72.0023C69.9744 69.4937 68.6353 67.2021 66.934 65.2272C66.5204 64.7471 65.8434 64.5889 65.2629 64.8427L61.3184 66.5664C60.8642 66.1867 60.3862 65.8339 59.891 65.5047C60.1878 64.9113 60.4936 64.3216 60.8185 63.7409L71.9188 43.9062H74.1013C75.2015 43.9062 76.0934 43.0143 76.0934 41.9141V40.1225C76.093 39.022 75.2011 38.1299 74.1009 38.1299ZM42.6199 78.9412C42.6199 76.6504 43.5407 74.574 45.0319 73.0607C46.0937 76.8303 46.6435 80.7416 46.6435 84.6907V86.105C44.2304 84.6331 42.6199 81.9752 42.6199 78.9412ZM59.3786 78.9412C59.3786 81.975 57.7685 84.6325 55.3558 86.1046V84.6907C55.3558 80.7416 55.9056 76.8307 56.9672 73.0613C58.458 74.5746 59.3786 76.6508 59.3786 78.9412Z" fill="#3A5482"/>
<path d="M44.486 26.7398C50.4282 26.7398 55.2454 21.9226 55.2454 15.9804C55.2454 10.0381 50.4282 5.22095 44.486 5.22095C38.5437 5.22095 33.7266 10.0381 33.7266 15.9804C33.7266 21.9226 38.5437 26.7398 44.486 26.7398Z" fill="white"/>
<path d="M44.486 23.7188C48.7598 23.7188 52.2245 20.2542 52.2245 15.9804C52.2245 11.7066 48.7598 8.24194 44.486 8.24194C40.2122 8.24194 36.7476 11.7066 36.7476 15.9804C36.7476 20.2542 40.2122 23.7188 44.486 23.7188Z" fill="#90AAD3"/>
<path d="M43.1374 20.195L44.15 21.6732C44.3116 21.909 44.6598 21.909 44.8216 21.6732L45.8342 20.195C46.0193 19.9248 45.8258 19.5579 45.4985 19.5579H43.4733C43.1457 19.5581 42.9523 19.9248 43.1374 20.195Z" fill="white"/>
<path d="M48.2869 16.7664L46.7015 15.181C47.3629 13.9185 47.1639 12.3194 46.1042 11.2598C44.7993 9.95508 42.6765 9.95508 41.3716 11.2598C40.0669 12.5644 40.0669 14.6877 41.3716 15.9924C42.024 16.6446 42.8809 16.971 43.7379 16.971C44.2728 16.971 44.8075 16.8439 45.2928 16.5897L46.8782 18.175C47.0728 18.3695 47.3276 18.4667 47.5826 18.4667C47.8376 18.4667 48.0924 18.3695 48.2871 18.175C48.6759 17.7862 48.6759 17.1554 48.2869 16.7664ZM42.7805 14.5837C42.2525 14.0558 42.2525 13.1966 42.7805 12.6686C43.0444 12.4047 43.3913 12.2726 43.7381 12.2726C44.0849 12.2726 44.4316 12.4047 44.6957 12.6686C45.2237 13.1966 45.2237 14.0558 44.6957 14.5837C44.1678 15.1117 43.3084 15.1119 42.7805 14.5837Z" fill="white"/>
<path d="M60.4005 37.1008C66.3428 37.1008 71.1599 32.2837 71.1599 26.3414C71.1599 20.3992 66.3428 15.582 60.4005 15.582C54.4583 15.582 49.6411 20.3992 49.6411 26.3414C49.6411 32.2837 54.4583 37.1008 60.4005 37.1008Z" fill="#90AAD3"/>
<path d="M60.4006 34.0799C64.6744 34.0799 68.139 30.6153 68.139 26.3415C68.139 22.0677 64.6744 18.603 60.4006 18.603C56.1267 18.603 52.6621 22.0677 52.6621 26.3415C52.6621 30.6153 56.1267 34.0799 60.4006 34.0799Z" fill="white"/>
<path d="M59.0518 30.556L60.0645 32.0342C60.226 32.2701 60.5743 32.2701 60.736 32.0342L61.7487 30.556C61.9337 30.2859 61.7403 29.9189 61.413 29.9189H59.3877C59.0602 29.9191 58.867 30.2859 59.0518 30.556Z" fill="#90AAD3"/>
<path d="M64.2014 27.1275L62.616 25.5421C63.2774 24.2796 63.0784 22.6805 62.0188 21.6208C60.7139 20.3162 58.591 20.3162 57.2861 21.6208C55.9814 22.9255 55.9814 25.0488 57.2861 26.3535C57.9386 27.0057 58.7954 27.332 59.6524 27.332C60.1874 27.332 60.7221 27.2049 61.2074 26.9507L62.7927 28.5361C62.9874 28.7306 63.2422 28.8278 63.4972 28.8278C63.7522 28.8278 64.007 28.7306 64.2016 28.5361C64.5905 28.1473 64.5905 27.5165 64.2014 27.1275ZM58.695 24.9448C58.1671 24.4169 58.1671 23.5577 58.695 23.0297C58.959 22.7658 59.3058 22.6337 59.6526 22.6337C59.9995 22.6337 60.3461 22.7658 60.6103 23.0297C61.1382 23.5577 61.1382 24.4169 60.6103 24.9448C60.0824 25.4727 59.2231 25.4729 58.695 24.9448Z" fill="#90AAD3"/>
<path d="M43.88 44.8882C49.8223 44.8882 54.6394 40.071 54.6394 34.1288C54.6394 28.1865 49.8223 23.3694 43.88 23.3694C37.9378 23.3694 33.1206 28.1865 33.1206 34.1288C33.1206 40.071 37.9378 44.8882 43.88 44.8882Z" fill="white"/>
<path d="M43.8801 41.8673C48.1539 41.8673 51.6185 38.4027 51.6185 34.1288C51.6185 29.855 48.1539 26.3904 43.8801 26.3904C39.6062 26.3904 36.1416 29.855 36.1416 34.1288C36.1416 38.4027 39.6062 41.8673 43.8801 41.8673Z" fill="#90AAD3"/>
<path d="M42.5319 38.3434L43.5445 39.8216C43.7061 40.0575 44.0543 40.0575 44.2161 39.8216L45.2287 38.3434C45.4138 38.0733 45.2204 37.7063 44.8931 37.7063H42.8676C42.5403 37.7065 42.3468 38.0735 42.5319 38.3434Z" fill="white"/>
<path d="M47.6809 34.9148L46.0955 33.3294C46.7569 32.067 46.5579 30.4678 45.4983 29.4082C44.1934 28.1035 42.0705 28.1035 40.7656 29.4082C39.4609 30.7129 39.4609 32.8362 40.7656 34.1408C41.4181 34.7931 42.2749 35.1194 43.1319 35.1194C43.6668 35.1194 44.2015 34.9923 44.6868 34.7381L46.2722 36.3235C46.4669 36.5179 46.7217 36.6151 46.9767 36.6151C47.2317 36.6151 47.4865 36.5179 47.6811 36.3235C48.0698 35.9346 48.0698 35.3039 47.6809 34.9148ZM42.1745 32.7324C41.6466 32.2044 41.6466 31.3452 42.1745 30.8173C42.4385 30.5533 42.7853 30.4212 43.1321 30.4212C43.479 30.4212 43.8256 30.5533 44.0898 30.8173C44.6177 31.3452 44.6177 32.2044 44.0898 32.7324C43.5619 33.2603 42.7024 33.2603 42.1745 32.7324Z" fill="white"/>
<path d="M28.4092 36.1377L41.1809 58.9592C44.7628 65.3621 46.6435 72.5724 46.6435 79.9094V85.0423H55.3559V79.9094C55.3559 72.5724 57.2365 65.3621 60.8185 58.9592L73.5902 36.1377H28.4092Z" fill="white"/>
<path d="M47.4463 48.6106C47.9964 48.6106 48.4424 48.1646 48.4424 47.6145C48.4424 47.0644 47.9964 46.6184 47.4463 46.6184C46.8962 46.6184 46.4502 47.0644 46.4502 47.6145C46.4502 48.1646 46.8962 48.6106 47.4463 48.6106Z" fill="#90AAD3"/>
<path d="M50.9995 48.6106C51.5496 48.6106 51.9956 48.1646 51.9956 47.6145C51.9956 47.0644 51.5496 46.6184 50.9995 46.6184C50.4494 46.6184 50.0034 47.0644 50.0034 47.6145C50.0034 48.1646 50.4494 48.6106 50.9995 48.6106Z" fill="#90AAD3"/>
<path d="M54.5527 48.6106C55.1029 48.6106 55.5488 48.1646 55.5488 47.6145C55.5488 47.0644 55.1029 46.6184 54.5527 46.6184C54.0026 46.6184 53.5566 47.0644 53.5566 47.6145C53.5566 48.1646 54.0026 48.6106 54.5527 48.6106Z" fill="#90AAD3"/>
<path d="M76.0932 35.3408V37.1324C76.0932 38.2327 75.2013 39.1246 74.101 39.1246H27.8984C26.7982 39.1246 25.9062 38.2327 25.9062 37.1324V35.3408C25.9062 34.2405 26.7982 33.3486 27.8984 33.3486H74.101C75.2011 33.3486 76.0932 34.2407 76.0932 35.3408Z" fill="#90AAD3"/>
<path d="M67.1183 74.1598C67.1183 73.2275 67.0323 72.3093 66.8793 71.4152L70.3463 68.8622C70.8571 68.4861 71.0577 67.8197 70.8489 67.2208C69.9741 64.7123 68.635 62.4207 66.9337 60.4458C66.5201 59.9659 65.8431 59.8075 65.2626 60.0613L61.3181 61.7849C59.917 60.6133 58.3105 59.6714 56.5603 59.0307L56.0824 54.7603C56.0119 54.1304 55.5368 53.6228 54.9138 53.505C53.6458 53.2652 52.3371 53.1396 50.9991 53.1396C49.6614 53.1396 48.3557 53.2652 47.0891 53.505C46.4663 53.623 45.9912 54.1306 45.9209 54.7603L45.4429 59.0307C43.6928 59.6714 42.0861 60.6088 40.6804 61.7849L36.744 60.0615C36.1641 59.8075 35.4874 59.9649 35.0734 60.444C33.3689 62.4161 32.0289 64.7075 31.151 67.2162C30.9414 67.8151 31.1416 68.4819 31.6522 68.8584L35.1194 71.4154C34.9664 72.3095 34.8851 73.2229 34.8851 74.16C34.8851 75.0971 34.9664 76.0153 35.1194 76.9094L31.6522 79.4664C31.1416 79.8429 30.9414 80.5097 31.151 81.1086C32.0285 83.6165 33.3671 85.9072 35.0648 87.8788C35.4782 88.3589 36.1554 88.5171 36.7361 88.2635L40.6806 86.5401C42.0865 87.7117 43.693 88.6488 45.4431 89.2943L45.9211 93.5687C45.9916 94.1992 46.4675 94.7072 47.0911 94.8244C48.3585 95.0626 49.6658 95.1852 50.9995 95.1852C52.3375 95.1852 53.6462 95.0597 54.9142 94.8198C55.5369 94.7021 56.0123 94.1944 56.0828 93.5645L56.5607 89.2941C58.3109 88.6486 59.9128 87.7113 61.3185 86.5399L65.2588 88.2633C65.8391 88.5171 66.5161 88.3593 66.9297 87.8798C68.631 85.9077 69.9703 83.6161 70.8481 81.1044C71.0575 80.5053 70.8569 79.8383 70.3459 79.462L66.8795 76.9094C67.0323 76.0151 67.1183 75.0969 67.1183 74.1598ZM50.9991 82.5441C46.3695 82.5441 42.6198 78.7895 42.6198 74.1598C42.6198 69.535 46.3695 65.7805 50.9991 65.7805C55.6288 65.7805 59.3785 69.5352 59.3785 74.1598C59.3785 78.7895 55.6288 82.5441 50.9991 82.5441Z" fill="#90AAD3"/>
<path d="M46.6436 79.9879V84.8287C46.6436 86.2129 48.0204 87.1751 49.3203 86.6996L53.2636 85.2568C54.5203 84.797 55.356 83.6013 55.356 82.2633V79.9877H46.6436V79.9879Z" fill="white"/>
<path d="M74.1009 32.3524H70.5028C71.5778 30.5463 72.1567 28.4701 72.1567 26.3404C72.1567 19.8594 66.883 14.5865 60.4008 14.5865C58.9341 14.5865 57.5255 14.8572 56.2238 15.3513C55.8954 9.16099 50.7562 4.22534 44.4852 4.22534C38.004 4.22534 32.7313 9.49906 32.7313 15.9812C32.7313 19.3855 34.2051 22.5949 36.7314 24.8134C34.3858 26.6181 32.7301 29.2877 32.2629 32.3526H27.8984C26.2507 32.3526 24.9102 33.6932 24.9102 35.3409V37.1325C24.9102 38.7802 26.2507 40.1208 27.8984 40.1208H29.496L38.4505 56.1184C38.6329 56.4446 38.9716 56.6282 39.3204 56.6282C39.4852 56.6282 39.6521 56.5874 39.8061 56.5011C40.2861 56.2324 40.4576 55.6254 40.1886 55.1453L31.7788 40.1208H70.2205L59.9499 58.472C59.7967 58.7455 59.6455 59.0243 59.4965 59.3047C58.8477 58.9322 58.1759 58.6029 57.483 58.3198L57.0722 54.6494C56.9527 53.5802 56.1596 52.7267 55.0988 52.5259C52.4135 52.0185 49.59 52.0179 46.9035 52.5259C45.8431 52.7267 45.0502 53.58 44.9306 54.6492L44.5199 58.3196C43.0897 58.9035 41.7505 59.6779 40.5257 60.6298L37.1432 59.149C36.159 58.7178 35.0245 58.9768 34.3195 59.7922C32.5062 61.89 31.1236 64.277 30.2104 66.8868C29.8534 67.9072 30.195 69.0214 31.0606 69.6597L34.0435 71.8595C33.9405 72.6243 33.8885 73.3955 33.8885 74.1597C33.8885 74.9265 33.9405 75.6993 34.0435 76.4647L31.0606 78.6644C30.195 79.3027 29.8532 80.417 30.2102 81.4371C31.1218 84.0425 32.5012 86.4284 34.3095 88.5285C35.0137 89.3463 36.1491 89.6063 37.1344 89.176L40.5265 87.6938C41.7511 88.6425 43.0901 89.4167 44.5197 90.0034L44.9304 93.6791C45.0504 94.7497 45.8443 95.6034 46.9065 95.8032C48.2409 96.054 49.6177 96.1809 50.9988 96.1809C52.3768 96.1809 53.7562 96.0522 55.0986 95.7982C56.1594 95.5976 56.9523 94.7444 57.0718 93.675L57.4828 90.0032C58.9082 89.4179 60.2454 88.6437 61.4712 87.6938L64.8589 89.1756C65.8434 89.6065 66.9786 89.3469 67.6832 88.5303C69.4949 86.4306 70.8759 84.0425 71.7877 81.4328C72.1447 80.412 71.8023 79.2975 70.9359 78.6596L67.9548 76.4645C68.0605 75.6875 68.1139 74.9147 68.1139 74.1597C68.1139 73.4072 68.0603 72.6361 67.9548 71.8597L70.9365 69.6641C71.8021 69.0266 72.1447 67.9128 71.7889 66.8926C70.8805 64.2876 69.5007 61.8998 67.6878 59.7954C66.9834 58.9778 65.848 58.718 64.8633 59.1484L61.4722 60.6301C61.3724 60.5527 61.2706 60.4781 61.1694 60.4028C61.3393 60.0797 61.5118 59.759 61.6877 59.445L72.5027 40.1206H74.1003C75.748 40.1206 77.0885 38.78 77.0885 37.1323V35.3407C77.0891 33.693 75.7486 32.3524 74.1009 32.3524ZM61.717 62.6976L65.6615 60.9742C65.8408 60.8957 66.0488 60.9447 66.1791 61.0959C67.8281 63.0098 69.0827 65.1809 69.9085 67.5488C69.9746 67.7387 69.9133 67.9441 69.7557 68.06L66.2887 70.613C65.9855 70.8363 65.8339 71.2119 65.8976 71.5832C66.0468 72.455 66.1223 73.322 66.1223 74.1599C66.1223 75.001 66.0466 75.8694 65.8976 76.7416C65.8341 77.1127 65.9855 77.4882 66.2887 77.7116L69.7551 80.264C69.9129 80.3799 69.974 80.5855 69.9077 80.7753C69.0786 83.148 67.8229 85.3193 66.1755 87.2288C66.0452 87.3801 65.8369 87.4287 65.6578 87.3504L61.7174 85.6271C61.372 85.4761 60.9703 85.5331 60.6807 85.7745C59.3401 86.8914 57.838 87.7612 56.2158 88.3594C55.8622 88.4899 55.6124 88.8086 55.5705 89.1834L55.0926 93.4538C55.0709 93.6485 54.9249 93.8041 54.729 93.8409C52.2838 94.3035 49.6976 94.3007 47.2751 93.8453C47.079 93.8084 46.9326 93.6526 46.9109 93.4578L46.433 89.1834C46.3911 88.8088 46.1413 88.4901 45.7877 88.3594C44.1597 87.759 42.656 86.8894 41.318 85.7745C41.1357 85.6225 40.9092 85.5436 40.6801 85.5436C40.5452 85.5436 40.4096 85.5711 40.2815 85.6269L36.3369 87.3504C36.1576 87.4289 35.9497 87.3796 35.8194 87.2286C34.1742 85.3181 32.9197 83.1484 32.0908 80.7793C32.0245 80.5897 32.0856 80.3843 32.2432 80.2681L35.7102 77.7112C36.0132 77.4876 36.1642 77.1125 36.1007 76.7416C35.9546 75.8879 35.8807 75.0193 35.8807 74.1599C35.8807 73.3035 35.9548 72.4367 36.1007 71.5832C36.1642 71.2121 36.0132 70.8369 35.7102 70.6134L32.243 68.0564C32.0854 67.9403 32.0243 67.7349 32.0906 67.545C32.9207 65.1727 34.1778 63.0026 35.8263 61.0953C35.9568 60.9443 36.1652 60.8959 36.3439 60.974L40.2805 62.6972C40.6269 62.849 41.0291 62.7915 41.3192 62.5488C42.6558 61.4304 44.1583 60.5614 45.7851 59.966C46.1399 59.8363 46.3907 59.5167 46.4326 59.1412L46.9105 54.8705C46.9322 54.6759 47.0784 54.5203 47.2741 54.4835C49.7165 54.0213 52.2872 54.0221 54.7284 54.4835C54.9243 54.5205 55.0705 54.6761 55.0924 54.8707L55.5703 59.1412C55.6122 59.5167 55.863 59.8361 56.2178 59.966C57.8374 60.5588 59.3383 61.4278 60.6791 62.549C60.969 62.7913 61.3708 62.8486 61.717 62.6976ZM34.7235 15.9812C34.7235 10.5976 39.1025 6.21753 44.4852 6.21753C49.8689 6.21753 54.2489 10.5974 54.2489 15.9812C54.2489 16.0793 54.3129 16.1593 54.4166 16.2225C51.7437 17.8031 49.7416 20.4149 48.9816 23.5494C47.432 22.7967 45.6998 22.3724 43.8794 22.3724C41.9481 22.3724 40.1151 22.8477 38.4953 23.689C36.1232 21.8437 34.7235 19.0048 34.7235 15.9812ZM43.8796 24.3644C48.6126 24.3644 52.637 27.7959 53.4791 32.3526H34.282C35.1241 27.7957 39.1477 24.3644 43.8796 24.3644ZM75.097 37.1325C75.097 37.6817 74.6501 38.1286 74.1009 38.1286H27.8984C27.3492 38.1286 26.9023 37.6817 26.9023 37.1325V35.3409C26.9023 34.7917 27.3492 34.3448 27.8984 34.3448H57.3991C57.9492 34.3448 58.3952 33.899 58.3952 33.3487C58.3952 32.7985 57.9492 32.3526 57.3991 32.3526H55.4984C55.0153 29.1845 53.2606 26.4404 50.7883 24.6357C51.5995 20.0047 55.6343 16.5791 60.401 16.5791C65.7847 16.5791 70.1647 20.9581 70.1647 26.3408C70.1647 28.526 69.4324 30.6435 68.0942 32.3528H63.2837C62.7336 32.3528 62.2876 32.7987 62.2876 33.3489C62.2876 33.8992 62.7336 34.345 63.2837 34.345H74.1011C74.6503 34.345 75.0971 34.7919 75.0971 35.3411L75.097 37.1325Z" fill="#3A5482"/>
<path d="M74.1009 32.3524H70.5028C71.5778 30.5463 72.1567 28.4701 72.1567 26.3404C72.1567 19.8594 66.883 14.5865 60.4008 14.5865C58.9341 14.5865 57.5255 14.8572 56.2238 15.3513C55.8954 9.16099 50.7562 4.22534 44.4852 4.22534C38.004 4.22534 32.7313 9.49906 32.7313 15.9812C32.7313 19.3855 34.2051 22.5949 36.7314 24.8134C34.3858 26.6181 32.7301 29.2877 32.2629 32.3526H27.8984C26.2507 32.3526 24.9102 33.6932 24.9102 35.3409V37.1325C24.9102 38.7802 26.2507 40.1208 27.8984 40.1208H29.496L38.4505 56.1184C38.6329 56.4446 38.9716 56.6282 39.3204 56.6282C39.4852 56.6282 39.6521 56.5874 39.8061 56.5011C40.2861 56.2324 40.4576 55.6254 40.1886 55.1453L31.7788 40.1208H70.2205L59.9499 58.472C59.7967 58.7455 59.6455 59.0243 59.4965 59.3047C58.8477 58.9322 58.1759 58.6029 57.483 58.3198L57.0722 54.6494C56.9527 53.5802 56.1596 52.7267 55.0988 52.5259C52.4135 52.0185 49.59 52.0179 46.9035 52.5259C45.8431 52.7267 45.0502 53.58 44.9306 54.6492L44.5199 58.3196C43.0897 58.9035 41.7505 59.6779 40.5257 60.6298L37.1432 59.149C36.159 58.7178 35.0245 58.9768 34.3195 59.7922C32.5062 61.89 31.1236 64.277 30.2104 66.8868C29.8534 67.9072 30.195 69.0214 31.0606 69.6597L34.0435 71.8595C33.9405 72.6243 33.8885 73.3955 33.8885 74.1597C33.8885 74.9265 33.9405 75.6993 34.0435 76.4647L31.0606 78.6644C30.195 79.3027 29.8532 80.417 30.2102 81.4371C31.1218 84.0425 32.5012 86.4284 34.3095 88.5285C35.0137 89.3463 36.1491 89.6063 37.1344 89.176L40.5265 87.6938C41.7511 88.6425 43.0901 89.4167 44.5197 90.0034L44.9304 93.6791C45.0504 94.7497 45.8443 95.6034 46.9065 95.8032C48.2409 96.054 49.6177 96.1809 50.9988 96.1809C52.3768 96.1809 53.7562 96.0522 55.0986 95.7982C56.1594 95.5976 56.9523 94.7444 57.0718 93.675L57.4828 90.0032C58.9082 89.4179 60.2454 88.6437 61.4712 87.6938L64.8589 89.1756C65.8434 89.6065 66.9786 89.3469 67.6832 88.5303C69.4949 86.4306 70.8759 84.0425 71.7877 81.4328C72.1447 80.412 71.8023 79.2975 70.9359 78.6596L67.9548 76.4645C68.0605 75.6875 68.1139 74.9147 68.1139 74.1597C68.1139 73.4072 68.0603 72.6361 67.9548 71.8597L70.9365 69.6641C71.8021 69.0266 72.1447 67.9128 71.7889 66.8926C70.8805 64.2876 69.5007 61.8998 67.6878 59.7954C66.9834 58.9778 65.848 58.718 64.8633 59.1484L61.4722 60.6301C61.3724 60.5527 61.2706 60.4781 61.1694 60.4028C61.3393 60.0797 61.5118 59.759 61.6877 59.445L72.5027 40.1206H74.1003C75.748 40.1206 77.0885 38.78 77.0885 37.1323V35.3407C77.0891 33.693 75.7486 32.3524 74.1009 32.3524ZM61.717 62.6976L65.6615 60.9742C65.8408 60.8957 66.0488 60.9447 66.1791 61.0959C67.8281 63.0098 69.0827 65.1809 69.9085 67.5488C69.9746 67.7387 69.9133 67.9441 69.7557 68.06L66.2887 70.613C65.9855 70.8363 65.8339 71.2119 65.8976 71.5832C66.0468 72.455 66.1223 73.322 66.1223 74.1599C66.1223 75.001 66.0466 75.8694 65.8976 76.7416C65.8341 77.1127 65.9855 77.4882 66.2887 77.7116L69.7551 80.264C69.9129 80.3799 69.974 80.5855 69.9077 80.7753C69.0786 83.148 67.8229 85.3193 66.1755 87.2288C66.0452 87.3801 65.8369 87.4287 65.6578 87.3504L61.7174 85.6271C61.372 85.4761 60.9703 85.5331 60.6807 85.7745C59.3401 86.8914 57.838 87.7612 56.2158 88.3594C55.8622 88.4899 55.6124 88.8086 55.5705 89.1834L55.0926 93.4538C55.0709 93.6485 54.9249 93.8041 54.729 93.8409C52.2838 94.3035 49.6976 94.3007 47.2751 93.8453C47.079 93.8084 46.9326 93.6526 46.9109 93.4578L46.433 89.1834C46.3911 88.8088 46.1413 88.4901 45.7877 88.3594C44.1597 87.759 42.656 86.8894 41.318 85.7745C41.1357 85.6225 40.9092 85.5436 40.6801 85.5436C40.5452 85.5436 40.4096 85.5711 40.2815 85.6269L36.3369 87.3504C36.1576 87.4289 35.9497 87.3796 35.8194 87.2286C34.1742 85.3181 32.9197 83.1484 32.0908 80.7793C32.0245 80.5897 32.0856 80.3843 32.2432 80.2681L35.7102 77.7112C36.0132 77.4876 36.1642 77.1125 36.1007 76.7416C35.9546 75.8879 35.8807 75.0193 35.8807 74.1599C35.8807 73.3035 35.9548 72.4367 36.1007 71.5832C36.1642 71.2121 36.0132 70.8369 35.7102 70.6134L32.243 68.0564C32.0854 67.9403 32.0243 67.7349 32.0906 67.545C32.9207 65.1727 34.1778 63.0026 35.8263 61.0953C35.9568 60.9443 36.1652 60.8959 36.3439 60.974L40.2805 62.6972C40.6269 62.849 41.0291 62.7915 41.3192 62.5488C42.6558 61.4304 44.1583 60.5614 45.7851 59.966C46.1399 59.8363 46.3907 59.5167 46.4326 59.1412L46.9105 54.8705C46.9322 54.6759 47.0784 54.5203 47.2741 54.4835C49.7165 54.0213 52.2872 54.0221 54.7284 54.4835C54.9243 54.5205 55.0705 54.6761 55.0924 54.8707L55.5703 59.1412C55.6122 59.5167 55.863 59.8361 56.2178 59.966C57.8374 60.5588 59.3383 61.4278 60.6791 62.549C60.969 62.7913 61.3708 62.8486 61.717 62.6976ZM34.7235 15.9812C34.7235 10.5976 39.1025 6.21753 44.4852 6.21753C49.8689 6.21753 54.2489 10.5974 54.2489 15.9812C54.2489 16.0793 54.3129 16.1593 54.4166 16.2225C51.7437 17.8031 49.7416 20.4149 48.9816 23.5494C47.432 22.7967 45.6998 22.3724 43.8794 22.3724C41.9481 22.3724 40.1151 22.8477 38.4953 23.689C36.1232 21.8437 34.7235 19.0048 34.7235 15.9812ZM43.8796 24.3644C48.6126 24.3644 52.637 27.7959 53.4791 32.3526H34.282C35.1241 27.7957 39.1477 24.3644 43.8796 24.3644ZM75.097 37.1325C75.097 37.6817 74.6501 38.1286 74.1009 38.1286H27.8984C27.3492 38.1286 26.9023 37.6817 26.9023 37.1325V35.3409C26.9023 34.7917 27.3492 34.3448 27.8984 34.3448H57.3991C57.9492 34.3448 58.3952 33.899 58.3952 33.3487C58.3952 32.7985 57.9492 32.3526 57.3991 32.3526H55.4984C55.0153 29.1845 53.2606 26.4404 50.7883 24.6357C51.5995 20.0047 55.6343 16.5791 60.401 16.5791C65.7847 16.5791 70.1647 20.9581 70.1647 26.3408C70.1647 28.526 69.4324 30.6435 68.0942 32.3528H63.2837C62.7336 32.3528 62.2876 32.7987 62.2876 33.3489C62.2876 33.8992 62.7336 34.345 63.2837 34.345H74.1011C74.6503 34.345 75.0971 34.7919 75.0971 35.3411L75.097 37.1325Z" fill="#3A5482"/>
<path d="M50.9997 64.7837C45.8302 64.7837 41.6245 68.9894 41.6245 74.1591C41.6245 77.2665 43.1187 80.1052 45.6475 81.8629V84.8287C45.6475 85.8039 46.1247 86.7193 46.9239 87.2781C47.4325 87.6333 48.032 87.8166 48.6366 87.8166C48.9823 87.8166 49.3297 87.7568 49.6626 87.6349L53.6059 86.1921C55.2485 85.5913 56.3522 84.0125 56.3522 82.2633V81.8629C58.881 80.1052 60.3752 77.2665 60.3752 74.1591C60.375 68.9896 56.1693 64.7837 50.9997 64.7837ZM43.6167 74.1591C43.6167 72.8375 43.9675 71.597 44.5783 70.5226C45.233 73.3704 45.59 76.2946 45.641 79.2472C44.3512 77.8929 43.6167 76.0919 43.6167 74.1591ZM54.3598 82.2635C54.3598 83.1798 53.7816 84.0067 52.9214 84.3215L48.9779 85.7642C48.6681 85.8774 48.3354 85.8345 48.0651 85.6451C47.7947 85.4562 47.6395 85.1586 47.6395 84.8287V79.9877C47.6395 76.119 47.1383 72.2899 46.1522 68.5971C47.4503 67.4642 49.1454 66.7757 50.9995 66.7757C52.8529 66.7757 54.5474 67.4636 55.8453 68.5955C54.8598 72.2911 54.3596 76.12 54.3596 79.9875V82.2635H54.3598ZM56.3585 79.2474C56.4095 76.2951 56.7661 73.3706 57.4202 70.5208C58.0316 71.5956 58.3828 72.8367 58.3828 74.1591C58.3828 76.0921 57.6483 77.8929 56.3585 79.2474Z" fill="#3A5482"/>
<path d="M25.9062 56.7061C25.3562 56.7061 24.9102 56.2602 24.9102 55.71C24.9102 55.1059 24.4187 54.6143 23.8145 54.6143C23.2644 54.6143 22.8184 54.1684 22.8184 53.6182C22.8184 53.0679 23.2644 52.6221 23.8145 52.6221C24.4187 52.6221 24.9102 52.1304 24.9102 51.5264C24.9102 50.9761 25.3562 50.5303 25.9062 50.5303C26.4563 50.5303 26.9023 50.9761 26.9023 51.5264C26.9023 52.1304 27.3938 52.6221 27.998 52.6221C28.5481 52.6221 28.9941 53.0679 28.9941 53.6182C28.9941 54.1684 28.5481 54.6143 27.998 54.6143C27.3938 54.6143 26.9023 55.1059 26.9023 55.71C26.9023 56.26 26.4563 56.7061 25.9062 56.7061Z" fill="#90AAD3"/>
<path d="M17.9351 67.7214C17.385 67.7214 16.939 67.2756 16.939 66.7253C16.939 66.1213 16.4475 65.6296 15.8433 65.6296C15.2932 65.6296 14.8472 65.1838 14.8472 64.6335C14.8472 64.0833 15.2932 63.6375 15.8433 63.6375C16.4475 63.6375 16.939 63.1458 16.939 62.5417C16.939 61.9915 17.385 61.5457 17.9351 61.5457C18.4851 61.5457 18.9312 61.9915 18.9312 62.5417C18.9312 63.1458 19.4226 63.6375 20.0269 63.6375C20.5769 63.6375 21.0229 64.0833 21.0229 64.6335C21.0229 65.1838 20.5769 65.6296 20.0269 65.6296C19.4226 65.6296 18.9312 66.1213 18.9312 66.7253C18.9312 67.2754 18.4853 67.7214 17.9351 67.7214Z" fill="#90AAD3"/>
<path d="M80.1362 22.646C79.5862 22.646 79.1401 22.2001 79.1401 21.6499C79.1401 21.0459 78.6487 20.5542 78.0444 20.5542C77.4944 20.5542 77.0483 20.1083 77.0483 19.5581C77.0483 19.0079 77.4944 18.562 78.0444 18.562C78.6487 18.562 79.1401 18.0703 79.1401 17.4663C79.1401 16.9161 79.5862 16.4702 80.1362 16.4702C80.6863 16.4702 81.1323 16.9161 81.1323 17.4663C81.1323 18.0703 81.6238 18.562 82.228 18.562C82.7781 18.562 83.2241 19.0079 83.2241 19.5581C83.2241 20.1083 82.7781 20.5542 82.228 20.5542C81.6238 20.5542 81.1323 21.0459 81.1323 21.6499C81.1323 22.2001 80.6865 22.646 80.1362 22.646Z" fill="#90AAD3"/>
<path d="M78.2043 92.0473C77.9493 92.0473 77.6945 91.9501 77.4998 91.7555L75.408 89.6637C75.0189 89.2748 75.0189 88.6441 75.408 88.2552L77.4998 86.1634C77.8889 85.7743 78.5194 85.7743 78.9085 86.1634L81.0003 88.2552C81.3894 88.6441 81.3894 89.2748 81.0003 89.6637L78.9085 91.7555C78.7141 91.9501 78.4591 92.0473 78.2043 92.0473ZM77.5211 88.9594L78.2043 89.6425L78.8874 88.9594L78.2043 88.2763L77.5211 88.9594Z" fill="#90AAD3"/>
<path d="M68.1393 10.6486C67.8843 10.6486 67.6295 10.5514 67.4349 10.3568L65.3431 8.26498C64.954 7.8761 64.954 7.24538 65.3431 6.8565L67.4349 4.76471C67.8239 4.37563 68.4545 4.37563 68.8435 4.76471L70.9353 6.8565C71.3244 7.24538 71.3244 7.8761 70.9353 8.26498L68.8435 10.3568C68.6491 10.5514 68.3943 10.6486 68.1393 10.6486ZM67.4562 7.56074L68.1393 8.24386L68.8224 7.56074L68.1393 6.87762L67.4562 7.56074Z" fill="#90AAD3"/>
</g>
<defs>
<linearGradient id="paint0_linear_483_9083" x1="1.5207" y1="51" x2="100.479" y2="51" gradientUnits="userSpaceOnUse">
<stop stop-color="#D1DDFF" stop-opacity="0"/>
<stop offset="1" stop-color="#D9DDEE"/>
</linearGradient>
<clipPath id="clip0_483_9083">
<rect width="102" height="102" fill="white"/>
</clipPath>
</defs>
</svg>
