<svg width="102" height="102" viewBox="0 0 102 102" fill="none" xmlns="http://www.w3.org/2000/svg">
<g clip-path="url(#clip0_483_9313)">
<path d="M98.6036 35.6572C108.541 11.3356 75.7432 -11.5339 55.1759 6.43479C45.8266 14.603 5.36703 5.06138 1.87492 19.4561C-0.409517 28.8722 10.6031 35.3307 13.5882 43.7198C17.1825 53.8204 12.1303 65.037 13.7677 75.6324C17.4166 99.2434 45.871 105.565 66.479 100.233C87.7376 94.7331 77.3573 81.2906 78.555 66.4783C79.5553 54.1082 93.9096 47.1455 98.6036 35.6572Z" fill="url(#paint0_linear_483_9313)"/>
<path opacity="0.1" d="M72.3729 67.5949C72.241 67.5949 72.1107 67.6017 71.9796 67.6048C72.4448 66.3984 72.7024 65.0887 72.7024 63.7183C72.7024 62.7802 72.5827 61.8701 72.3579 61.0023C73.0056 61.1233 73.6726 61.1896 74.3551 61.1896C80.3257 61.1896 85.1657 56.3496 85.1657 50.379C85.1657 44.4084 80.3257 39.5684 74.3551 39.5684C73.6724 39.5684 73.0054 39.6345 72.3579 39.7556C72.5825 38.8878 72.7024 37.9778 72.7024 37.0397C72.7024 36.1016 72.5827 35.1915 72.3579 34.3237C73.0056 34.4447 73.6726 34.511 74.3551 34.511C80.3257 34.511 85.1657 29.671 85.1657 23.7004C85.1657 17.7298 80.3259 12.8894 74.3553 12.8894C68.3847 12.8894 63.5447 17.7294 63.5447 23.7C63.5447 24.6381 63.6644 25.5482 63.8892 26.416C63.2415 26.295 62.5747 26.2287 61.892 26.2287C61.2093 26.2287 60.5423 26.2948 59.8948 26.416C60.1193 25.5482 60.2393 24.6381 60.2393 23.7C60.2393 17.7294 55.3992 12.8894 49.4287 12.8894C43.4581 12.8894 38.6181 17.7294 38.6181 23.7C38.6181 24.6381 38.7378 25.5482 38.9625 26.416C38.3148 26.295 37.6481 26.2287 36.9653 26.2287C36.2826 26.2287 35.6156 26.2948 34.9682 26.416C35.1927 25.5482 35.3126 24.6381 35.3126 23.7C35.3126 17.7294 30.4726 12.8894 24.502 12.8894C18.5314 12.8894 13.6914 17.7294 13.6914 23.7C13.6914 29.6706 18.5314 34.5106 24.502 34.5106C25.1847 34.5106 25.8517 34.4445 26.4992 34.3233C26.2747 35.1911 26.1547 36.1012 26.1547 37.0393C26.1547 37.9774 26.2745 38.8875 26.4992 39.7552C25.8515 39.6341 25.1847 39.568 24.502 39.568C18.5314 39.568 13.6914 44.408 13.6914 50.3786C13.6914 56.3492 18.5314 61.1892 24.502 61.1892C25.1847 61.1892 25.8517 61.1231 26.4992 61.0019C26.2747 61.8697 26.1547 62.7798 26.1547 63.7179C26.1547 69.6885 30.9947 74.5285 36.9653 74.5285C37.1371 74.5285 37.3076 74.5235 37.4773 74.5155C36.9297 75.9407 36.6265 77.4873 36.6265 79.1053C36.6265 86.1758 42.3582 91.9077 49.4289 91.9077C52.4594 91.9077 55.2421 90.8525 57.4349 89.0924C59.6914 95.1522 65.5275 99.4697 72.3735 99.4697C81.1756 99.4697 88.311 92.3343 88.311 83.5322C88.311 74.7301 81.175 67.5949 72.3729 67.5949Z" fill="#3A5482"/>
<path d="M49.4283 29.3309C55.3988 29.3309 60.2389 24.4909 60.2389 18.5203C60.2389 12.5498 55.3988 7.70972 49.4283 7.70972C43.4577 7.70972 38.6177 12.5498 38.6177 18.5203C38.6177 24.4909 43.4577 29.3309 49.4283 29.3309Z" fill="#90AAD3"/>
<path d="M56.0551 23.2555V23.2521H42.8007V23.2555C41.8452 21.9197 41.2832 20.2863 41.2832 18.5198C41.2832 14.0215 44.9303 10.376 49.4287 10.376C53.927 10.376 57.5725 14.0215 57.5725 18.5198C57.5725 20.2863 57.0107 21.9197 56.0551 23.2555Z" fill="white"/>
<path d="M56.0555 23.252C54.5779 25.3173 52.1608 26.665 49.4285 26.665C46.695 26.665 44.2781 25.3171 42.8003 23.252C43.2529 21.881 44.0044 20.8767 44.813 20.1466C45.115 19.8736 45.576 19.885 45.8687 20.1679C46.7978 21.0664 48.0326 21.6154 49.3869 21.6154C50.7579 21.6154 52.0072 21.0522 52.9403 20.1336C53.2304 19.8479 53.6914 19.834 53.9958 20.1043C54.8223 20.8381 55.5937 21.8541 56.0555 23.252Z" fill="#90AAD3"/>
<path d="M38.9151 21.0492C38.7207 20.238 38.6177 19.3911 38.6177 18.5203C38.6177 12.5497 43.4577 7.70972 49.4283 7.70972C55.3989 7.70972 60.2389 12.5497 60.2389 18.5203C60.2389 19.358 60.1437 20.1734 59.9634 20.9564" stroke="#3A5482" stroke-width="2" stroke-miterlimit="10" stroke-linecap="round" stroke-linejoin="round"/>
<path d="M51.3267 29.1648C50.7103 29.274 50.076 29.3309 49.4284 29.3309C48.7909 29.3309 48.1663 29.2758 47.5591 29.17" stroke="#3A5482" stroke-width="2" stroke-miterlimit="10" stroke-linecap="round" stroke-linejoin="round"/>
<path d="M49.3877 19.7235C51.2301 19.7235 52.7236 18.0887 52.7236 16.0722C52.7236 14.0556 51.2301 12.4209 49.3877 12.4209C47.5453 12.4209 46.0518 14.0556 46.0518 16.0722C46.0518 18.0887 47.5453 19.7235 49.3877 19.7235Z" fill="#90AAD3"/>
<path d="M24.501 29.3309C30.4716 29.3309 35.3116 24.4909 35.3116 18.5203C35.3116 12.5498 30.4716 7.70972 24.501 7.70972C18.5305 7.70972 13.6904 12.5498 13.6904 18.5203C13.6904 24.4909 18.5305 29.3309 24.501 29.3309Z" fill="#90AAD3"/>
<path d="M31.1278 23.2555V23.2521H17.8734V23.2555C16.918 21.9197 16.356 20.2863 16.356 18.5198C16.356 14.0215 20.0031 10.376 24.5014 10.376C28.9998 10.376 32.6453 14.0215 32.6453 18.5198C32.6453 20.2863 32.0835 21.9197 31.1278 23.2555Z" fill="white"/>
<path d="M31.1283 23.252C29.6507 25.3173 27.2335 26.665 24.5013 26.665C21.7678 26.665 19.3509 25.3171 17.873 23.252C18.3257 21.881 19.0771 20.8767 19.8858 20.1466C20.188 19.8736 20.6488 19.885 20.9414 20.1679C21.8706 21.0664 23.1053 21.6154 24.4596 21.6154C25.8306 21.6154 27.0799 21.0522 28.0131 20.1336C28.3031 19.8479 28.7641 19.834 29.0685 20.1043C29.8951 20.8381 30.6665 21.8541 31.1283 23.252Z" fill="#90AAD3"/>
<path d="M26.1599 29.2044C25.6191 29.2877 25.065 29.3309 24.501 29.3309C18.5304 29.3309 13.6904 24.4909 13.6904 18.5203C13.6904 12.5497 18.5304 7.70972 24.501 7.70972C30.4716 7.70972 35.3116 12.5497 35.3116 18.5203C35.3116 19.3911 35.2086 20.238 35.0142 21.0492" stroke="#3A5482" stroke-width="2" stroke-miterlimit="10" stroke-linecap="round" stroke-linejoin="round"/>
<path d="M24.4604 19.7235C26.3028 19.7235 27.7963 18.0887 27.7963 16.0722C27.7963 14.0556 26.3028 12.4209 24.4604 12.4209C22.6181 12.4209 21.1245 14.0556 21.1245 16.0722C21.1245 18.0887 22.6181 19.7235 24.4604 19.7235Z" fill="#90AAD3"/>
<path d="M74.355 29.3309C80.3256 29.3309 85.1656 24.4909 85.1656 18.5203C85.1656 12.5498 80.3256 7.70972 74.355 7.70972C68.3845 7.70972 63.5444 12.5498 63.5444 18.5203C63.5444 24.4909 68.3845 29.3309 74.355 29.3309Z" fill="#90AAD3"/>
<path d="M80.9818 23.2555V23.2521H67.7274V23.2555C66.772 21.9197 66.21 20.2863 66.21 18.5198C66.21 14.0215 69.8571 10.376 74.3554 10.376C78.8538 10.376 82.4993 14.0215 82.4993 18.5198C82.4993 20.2863 81.9375 21.9197 80.9818 23.2555Z" fill="white"/>
<path d="M80.9823 23.252C79.5047 25.3173 77.0875 26.665 74.3553 26.665C71.6218 26.665 69.2049 25.3171 67.7271 23.252C68.1797 21.881 68.9311 20.8767 69.7398 20.1466C70.0418 19.8736 70.5028 19.885 70.7954 20.1679C71.7246 21.0664 72.9593 21.6154 74.3136 21.6154C75.6846 21.6154 76.9339 21.0522 77.8671 20.1336C78.1571 19.8479 78.6181 19.834 78.9225 20.1043C79.7491 20.8381 80.5205 21.8541 80.9823 23.252Z" fill="#90AAD3"/>
<path d="M72.5234 29.1765C73.1187 29.2781 73.7305 29.3309 74.3549 29.3309C79.5875 29.3309 83.9514 25.613 84.9501 20.6748" stroke="#3A5482" stroke-width="2" stroke-miterlimit="10" stroke-linecap="round" stroke-linejoin="round"/>
<path d="M84.8997 16.1407C83.8151 11.3156 79.5076 7.70972 74.355 7.70972C68.3845 7.70972 63.5444 12.5497 63.5444 18.5203C63.5444 19.358 63.6397 20.1734 63.82 20.9564" stroke="#3A5482" stroke-width="2" stroke-miterlimit="10" stroke-linecap="round" stroke-linejoin="round"/>
<path d="M74.3144 19.7235C76.1568 19.7235 77.6503 18.0887 77.6503 16.0722C77.6503 14.0556 76.1568 12.4209 74.3144 12.4209C72.4721 12.4209 70.9785 14.0556 70.9785 16.0722C70.9785 18.0887 72.4721 19.7235 74.3144 19.7235Z" fill="#90AAD3"/>
<path d="M61.8917 42.6705C67.8622 42.6705 72.7023 37.8305 72.7023 31.8599C72.7023 25.8894 67.8622 21.0493 61.8917 21.0493C55.9211 21.0493 51.0811 25.8894 51.0811 31.8599C51.0811 37.8305 55.9211 42.6705 61.8917 42.6705Z" fill="#90AAD3"/>
<path d="M68.5185 36.5948V36.5914H55.264V36.5948C54.3086 35.2591 53.7466 33.6257 53.7466 31.8592C53.7466 27.3608 57.3937 23.7153 61.892 23.7153C66.3904 23.7153 70.0359 27.3608 70.0359 31.8592C70.0359 33.6255 69.4741 35.2591 68.5185 36.5948Z" fill="white"/>
<path d="M68.5189 36.5913C67.0413 38.6566 64.6242 40.0044 61.8919 40.0044C59.1584 40.0044 56.7415 38.6564 55.2637 36.5913C55.7163 35.2203 56.4677 34.2161 57.2764 33.4859C57.5786 33.213 58.0394 33.2244 58.332 33.5072C59.2612 34.4057 60.496 34.9548 61.8502 34.9548C63.2213 34.9548 64.4706 34.3916 65.4037 33.473C65.6938 33.1873 66.1548 33.1734 66.4592 33.4437C67.2857 34.1774 68.0571 35.1936 68.5189 36.5913Z" fill="#90AAD3"/>
<path d="M63.6742 42.5242C63.0943 42.6204 62.4988 42.6704 61.8916 42.6704C61.3278 42.6704 60.7742 42.6272 60.2339 42.5441" stroke="#3A5482" stroke-width="2" stroke-miterlimit="10" stroke-linecap="round" stroke-linejoin="round"/>
<path d="M51.3768 34.3834C51.1832 33.5738 51.0806 32.7287 51.0806 31.8597C51.0806 25.8891 55.9206 21.0491 61.8912 21.0491C67.8618 21.0491 72.7018 25.8891 72.7018 31.8597C72.7018 32.6984 72.6064 33.515 72.4255 34.2989" stroke="#3A5482" stroke-width="2" stroke-miterlimit="10" stroke-linecap="round" stroke-linejoin="round"/>
<path d="M61.8511 33.0631C63.6934 33.0631 65.187 31.4283 65.187 29.4118C65.187 27.3952 63.6934 25.7605 61.8511 25.7605C60.0087 25.7605 58.5151 27.3952 58.5151 29.4118C58.5151 31.4283 60.0087 33.0631 61.8511 33.0631Z" fill="#90AAD3"/>
<path d="M36.9644 42.6708C42.9349 42.6708 47.775 37.8307 47.775 31.8602C47.775 25.8896 42.9349 21.0496 36.9644 21.0496C30.9939 21.0496 26.1538 25.8896 26.1538 31.8602C26.1538 37.8307 30.9939 42.6708 36.9644 42.6708Z" fill="#90AAD3"/>
<path d="M43.5912 36.5948V36.5914H30.3368V36.5948C29.3813 35.2591 28.8193 33.6257 28.8193 31.8592C28.8193 27.3608 32.4664 23.7153 36.9648 23.7153C41.4632 23.7153 45.1087 27.3608 45.1087 31.8592C45.1087 33.6255 44.5469 35.2591 43.5912 36.5948Z" fill="white"/>
<path d="M43.5916 36.5913C42.114 38.6566 39.6969 40.0044 36.9646 40.0044C34.2312 40.0044 31.8142 38.6564 30.3364 36.5913C30.7891 35.2203 31.5405 34.2161 32.3491 33.4859C32.6514 33.213 33.1121 33.2244 33.4048 33.5072C34.334 34.4057 35.5687 34.9548 36.923 34.9548C38.294 34.9548 39.5433 34.3916 40.4765 33.473C40.7665 33.1873 41.2275 33.1734 41.5319 33.4437C42.3585 34.1774 43.1299 35.1936 43.5916 36.5913Z" fill="#90AAD3"/>
<path d="M38.8174 42.5122C38.2153 42.6162 37.5962 42.6704 36.9644 42.6704C36.4024 42.6704 35.8504 42.6276 35.3115 42.5449" stroke="#3A5482" stroke-width="2" stroke-miterlimit="10" stroke-linecap="round" stroke-linejoin="round"/>
<path d="M26.4528 34.3958C26.2574 33.5824 26.1538 32.7333 26.1538 31.8602C26.1538 25.8896 30.9938 21.0496 36.9644 21.0496C42.935 21.0496 47.775 25.8896 47.775 31.8602C47.775 32.731 47.672 33.5778 47.4776 34.389" stroke="#3A5482" stroke-width="2" stroke-miterlimit="10" stroke-linecap="round" stroke-linejoin="round"/>
<path d="M36.9238 33.0631C38.7662 33.0631 40.2597 31.4283 40.2597 29.4118C40.2597 27.3952 38.7662 25.7605 36.9238 25.7605C35.0814 25.7605 33.5879 27.3952 33.5879 29.4118C33.5879 31.4283 35.0814 33.0631 36.9238 33.0631Z" fill="#90AAD3"/>
<path d="M49.4283 56.0096C55.3988 56.0096 60.2389 51.1696 60.2389 45.199C60.2389 39.2285 55.3988 34.3884 49.4283 34.3884C43.4577 34.3884 38.6177 39.2285 38.6177 45.199C38.6177 51.1696 43.4577 56.0096 49.4283 56.0096Z" fill="#90AAD3"/>
<path d="M56.0551 49.9342V49.9308H42.8007V49.9342C41.8452 48.5984 41.2832 46.965 41.2832 45.1986C41.2832 40.7002 44.9303 37.0547 49.4287 37.0547C53.927 37.0547 57.5725 40.7002 57.5725 45.1986C57.5725 46.965 57.0107 48.5984 56.0551 49.9342Z" fill="white"/>
<path d="M56.0555 49.9307C54.5779 51.996 52.1608 53.3438 49.4285 53.3438C46.695 53.3438 44.2781 51.9958 42.8003 49.9307C43.2529 48.5597 44.0044 47.5555 44.813 46.8253C45.115 46.5524 45.576 46.5638 45.8687 46.8468C46.7978 47.7453 48.0326 48.2944 49.3869 48.2944C50.7579 48.2944 52.0072 47.7312 52.9403 46.8126C53.2304 46.5269 53.6914 46.513 53.9958 46.7833C54.8223 47.5168 55.5937 48.533 56.0555 49.9307Z" fill="#90AAD3"/>
<path d="M59.9295 47.7668C60.1301 46.9434 60.2389 46.0842 60.2389 45.199C60.2389 39.2284 55.3989 34.3884 49.4283 34.3884C43.4577 34.3884 38.6177 39.2284 38.6177 45.199C38.6177 46.0955 38.7288 46.9657 38.9344 47.7988" stroke="#3A5482" stroke-width="2" stroke-miterlimit="10" stroke-linecap="round" stroke-linejoin="round"/>
<path d="M47.6489 55.8616C48.2279 55.9581 48.8217 56.0099 49.4279 56.0099C50.0844 56.0099 50.7261 55.9481 51.3502 55.8359" stroke="#3A5482" stroke-width="2" stroke-miterlimit="10" stroke-linecap="round" stroke-linejoin="round"/>
<path d="M49.3877 46.4024C51.2301 46.4024 52.7236 44.7677 52.7236 42.7511C52.7236 40.7346 51.2301 39.0999 49.3877 39.0999C47.5453 39.0999 46.0518 40.7346 46.0518 42.7511C46.0518 44.7677 47.5453 46.4024 49.3877 46.4024Z" fill="#90AAD3"/>
<path d="M24.501 56.0096C30.4716 56.0096 35.3116 51.1696 35.3116 45.199C35.3116 39.2285 30.4716 34.3884 24.501 34.3884C18.5305 34.3884 13.6904 39.2285 13.6904 45.199C13.6904 51.1696 18.5305 56.0096 24.501 56.0096Z" fill="#90AAD3"/>
<path d="M31.1278 49.9342V49.9308H17.8734V49.9342C16.918 48.5984 16.356 46.965 16.356 45.1986C16.356 40.7002 20.0031 37.0547 24.5014 37.0547C28.9998 37.0547 32.6453 40.7002 32.6453 45.1986C32.6453 46.965 32.0835 48.5984 31.1278 49.9342Z" fill="white"/>
<path d="M31.1283 49.9307C29.6507 51.996 27.2335 53.3438 24.5013 53.3438C21.7678 53.3438 19.3509 51.9958 17.873 49.9307C18.3257 48.5597 19.0771 47.5555 19.8858 46.8253C20.188 46.5524 20.6488 46.5638 20.9414 46.8468C21.8706 47.7453 23.1053 48.2944 24.4596 48.2944C25.8306 48.2944 27.0799 47.7312 28.0131 46.8126C28.3031 46.5269 28.7641 46.513 29.0685 46.7833C29.8951 47.5168 30.6665 48.533 31.1283 49.9307Z" fill="#90AAD3"/>
<path d="M35.017 47.7028C35.2077 46.8988 35.3116 46.0613 35.3116 45.199C35.3116 39.2284 30.4716 34.3884 24.501 34.3884C18.5304 34.3884 13.6904 39.2284 13.6904 45.199C13.6904 51.1696 18.5304 56.0096 24.501 56.0096C25.1397 56.0096 25.7645 55.9511 26.3729 55.8449" stroke="#3A5482" stroke-width="2" stroke-miterlimit="10" stroke-linecap="round" stroke-linejoin="round"/>
<path d="M24.4604 46.4024C26.3028 46.4024 27.7963 44.7677 27.7963 42.7511C27.7963 40.7346 26.3028 39.0999 24.4604 39.0999C22.6181 39.0999 21.1245 40.7346 21.1245 42.7511C21.1245 44.7677 22.6181 46.4024 24.4604 46.4024Z" fill="#90AAD3"/>
<path d="M74.3555 56.0096C80.3261 56.0096 85.1661 51.1696 85.1661 45.199C85.1661 39.2285 80.3261 34.3884 74.3555 34.3884C68.385 34.3884 63.5449 39.2285 63.5449 45.199C63.5449 51.1696 68.385 56.0096 74.3555 56.0096Z" fill="#90AAD3"/>
<path d="M80.9823 49.9342V49.9308H67.7279V49.9342C66.7724 48.5984 66.2104 46.965 66.2104 45.1986C66.2104 40.7002 69.8575 37.0547 74.3559 37.0547C78.8543 37.0547 82.4998 40.7002 82.4998 45.1986C82.4998 46.965 81.938 48.5984 80.9823 49.9342Z" fill="white"/>
<path d="M80.9828 49.9307C79.5051 51.996 77.088 53.3438 74.3557 53.3438C71.6223 53.3438 69.2053 51.9958 67.7275 49.9307C68.1802 48.5597 68.9316 47.5555 69.7402 46.8253C70.0423 46.5524 70.5032 46.5638 70.7959 46.8468C71.7251 47.7453 72.9598 48.2944 74.3141 48.2944C75.6851 48.2944 76.9344 47.7312 77.8676 46.8126C78.1576 46.5269 78.6186 46.513 78.923 46.7833C79.7496 47.5168 80.521 48.533 80.9828 49.9307Z" fill="#90AAD3"/>
<path d="M63.8419 47.7279C63.6474 46.9167 63.5444 46.0698 63.5444 45.199C63.5444 39.2284 68.3845 34.3884 74.355 34.3884C80.3256 34.3884 85.1656 39.2284 85.1656 45.199C85.1656 51.1696 80.3256 56.0096 74.355 56.0096C73.7391 56.0096 73.1352 55.958 72.5473 55.8592" stroke="#3A5482" stroke-width="2" stroke-miterlimit="10" stroke-linecap="round" stroke-linejoin="round"/>
<path d="M74.3149 46.4024C76.1573 46.4024 77.6508 44.7677 77.6508 42.7511C77.6508 40.7346 76.1573 39.0999 74.3149 39.0999C72.4725 39.0999 70.979 40.7346 70.979 42.7511C70.979 44.7677 72.4725 46.4024 74.3149 46.4024Z" fill="#90AAD3"/>
<path d="M61.8917 69.3492C67.8622 69.3492 72.7023 64.5092 72.7023 58.5386C72.7023 52.5681 67.8622 47.728 61.8917 47.728C55.9211 47.728 51.0811 52.5681 51.0811 58.5386C51.0811 64.5092 55.9211 69.3492 61.8917 69.3492Z" fill="#90AAD3"/>
<path d="M68.5185 63.2738V63.2704H55.264V63.2738C54.3086 61.938 53.7466 60.3046 53.7466 58.5382C53.7466 54.0398 57.3937 50.3943 61.892 50.3943C66.3904 50.3943 70.0359 54.0398 70.0359 58.5382C70.0359 60.3044 69.4741 61.938 68.5185 63.2738Z" fill="white"/>
<path d="M68.5189 63.2703C67.0413 65.3356 64.6242 66.6833 61.8919 66.6833C59.1584 66.6833 56.7415 65.3354 55.2637 63.2703C55.7163 61.8993 56.4677 60.895 57.2764 60.1649C57.5786 59.892 58.0394 59.9033 58.332 60.1862C59.2612 61.0847 60.496 61.6337 61.8502 61.6337C63.2213 61.6337 64.4706 61.0705 65.4037 60.1519C65.6938 59.8663 66.1548 59.8523 66.4592 60.1226C67.2857 60.8564 68.0571 61.8724 68.5189 63.2703Z" fill="#90AAD3"/>
<path d="M72.06 62.2174C72.4756 61.0693 72.7023 59.8304 72.7023 58.5386C72.7023 52.568 67.8623 47.728 61.8917 47.728C55.9211 47.728 51.0811 52.568 51.0811 58.5386C51.0811 59.3656 51.1771 60.1696 51.3528 60.9434" stroke="#3A5482" stroke-width="2" stroke-miterlimit="10" stroke-linecap="round" stroke-linejoin="round"/>
<path d="M61.8511 59.7418C63.6934 59.7418 65.187 58.107 65.187 56.0905C65.187 54.0739 63.6934 52.4392 61.8511 52.4392C60.0087 52.4392 58.5151 54.0739 58.5151 56.0905C58.5151 58.107 60.0087 59.7418 61.8511 59.7418Z" fill="#90AAD3"/>
<path d="M36.9644 69.3492C42.9349 69.3492 47.775 64.5092 47.775 58.5386C47.775 52.5681 42.9349 47.728 36.9644 47.728C30.9939 47.728 26.1538 52.5681 26.1538 58.5386C26.1538 64.5092 30.9939 69.3492 36.9644 69.3492Z" fill="#90AAD3"/>
<path d="M43.5912 63.2738V63.2704H30.3368V63.2738C29.3813 61.938 28.8193 60.3046 28.8193 58.5382C28.8193 54.0398 32.4664 50.3943 36.9648 50.3943C41.4632 50.3943 45.1087 54.0398 45.1087 58.5382C45.1087 60.3044 44.5469 61.938 43.5912 63.2738Z" fill="white"/>
<path d="M43.5916 63.2703C42.114 65.3356 39.6969 66.6833 36.9646 66.6833C34.2312 66.6833 31.8142 65.3354 30.3364 63.2703C30.7891 61.8993 31.5405 60.895 32.3491 60.1649C32.6514 59.892 33.1121 59.9033 33.4048 60.1862C34.334 61.0847 35.5687 61.6337 36.923 61.6337C38.294 61.6337 39.5433 61.0705 40.4765 60.1519C40.7665 59.8663 41.2275 59.8523 41.5319 60.1226C42.3585 60.8564 43.1299 61.8724 43.5916 63.2703Z" fill="#90AAD3"/>
<path d="M47.5033 60.9434C47.6792 60.1696 47.775 59.3656 47.775 58.5386C47.775 52.568 42.935 47.728 36.9644 47.728C30.9938 47.728 26.1538 52.568 26.1538 58.5386C26.1538 64.5092 30.9938 69.3492 36.9644 69.3492C37.1019 69.3492 37.2381 69.3439 37.3742 69.3389" stroke="#3A5482" stroke-width="2" stroke-miterlimit="10" stroke-linecap="round" stroke-linejoin="round"/>
<path d="M36.9238 59.7418C38.7662 59.7418 40.2597 58.107 40.2597 56.0905C40.2597 54.0739 38.7662 52.4392 36.9238 52.4392C35.0814 52.4392 33.5879 54.0739 33.5879 56.0905C33.5879 58.107 35.0814 59.7418 36.9238 59.7418Z" fill="#90AAD3"/>
<path d="M49.4279 86.7283C56.4984 86.7283 62.2303 80.9965 62.2303 73.9259C62.2303 66.8554 56.4984 61.1235 49.4279 61.1235C42.3573 61.1235 36.6255 66.8554 36.6255 73.9259C36.6255 80.9965 42.3573 86.7283 49.4279 86.7283Z" fill="#90AAD3"/>
<path d="M57.2761 79.5334V79.5295H41.5797L41.5817 79.5354C40.4481 77.9536 39.7827 76.0172 39.7827 73.9254C39.7827 68.5983 44.0998 64.2812 49.4269 64.2812C54.754 64.2812 59.0731 68.5983 59.0731 73.9254C59.0731 76.017 58.4077 77.9514 57.2761 79.5334Z" fill="white"/>
<path d="M57.2761 79.5291C55.5262 81.9749 52.6638 83.571 49.4283 83.571C46.1912 83.571 43.3288 81.9749 41.5791 79.5291C42.115 77.9054 43.0051 76.7163 43.9626 75.8515C44.3204 75.5284 44.8662 75.5417 45.2127 75.8768C46.3131 76.9408 47.7754 77.5909 49.3791 77.5909C51.0027 77.5909 52.4821 76.9241 53.5872 75.8361C53.9309 75.4979 54.4767 75.4813 54.8371 75.8015C55.8159 76.6705 56.7293 77.8738 57.2761 79.5291Z" fill="#90AAD3"/>
<path d="M60.2389 67.0656C57.9674 63.4936 53.9745 61.1235 49.4279 61.1235C42.3574 61.1235 36.6255 66.8553 36.6255 73.9259C36.6255 80.9966 42.3572 86.7283 49.4279 86.7283C50.7533 86.7283 52.0317 86.5269 53.2342 86.153" stroke="#3A5482" stroke-width="2" stroke-miterlimit="10" stroke-linecap="round" stroke-linejoin="round"/>
<path d="M49.3797 75.3507C51.5615 75.3507 53.3302 73.4148 53.3302 71.0267C53.3302 68.6386 51.5615 66.7026 49.3797 66.7026C47.1979 66.7026 45.4292 68.6386 45.4292 71.0267C45.4292 73.4148 47.1979 75.3507 49.3797 75.3507Z" fill="#90AAD3"/>
<path d="M72.3726 94.2903C81.1746 94.2903 88.3101 87.1548 88.3101 78.3528C88.3101 69.5507 81.1746 62.4153 72.3726 62.4153C63.5705 62.4153 56.4351 69.5507 56.4351 78.3528C56.4351 87.1548 63.5705 94.2903 72.3726 94.2903Z" fill="#90AAD3"/>
<path d="M72.3727 91.2221C79.4803 91.2221 85.2421 85.4603 85.2421 78.3527C85.2421 71.2452 79.4803 65.4834 72.3727 65.4834C65.2652 65.4834 59.5034 71.2452 59.5034 78.3527C59.5034 85.4603 65.2652 91.2221 72.3727 91.2221Z" fill="white"/>
<path d="M72.3726 94.2903C81.1746 94.2903 88.3101 87.1548 88.3101 78.3528C88.3101 69.5507 81.1746 62.4153 72.3726 62.4153C63.5705 62.4153 56.4351 69.5507 56.4351 78.3528C56.4351 87.1548 63.5705 94.2903 72.3726 94.2903Z" stroke="#3A5482" stroke-width="2" stroke-miterlimit="10" stroke-linecap="round" stroke-linejoin="round"/>
<path d="M79.8179 76.5591H74.1662V70.9075C74.1662 70.3574 73.7202 69.9114 73.1701 69.9114H71.575C71.0249 69.9114 70.5789 70.3574 70.5789 70.9075V76.5591H64.9272C64.3772 76.5591 63.9312 77.0052 63.9312 77.5552V79.1503C63.9312 79.7004 64.3772 80.1464 64.9272 80.1464H70.5789V85.7981C70.5789 86.3481 71.0249 86.7942 71.575 86.7942H73.1701C73.7202 86.7942 74.1662 86.3481 74.1662 85.7981V80.1464H79.8179C80.3679 80.1464 80.8139 79.7004 80.8139 79.1503V77.5552C80.8139 77.0052 80.3679 76.5591 79.8179 76.5591Z" fill="#90AAD3"/>
<path d="M89.3062 62.9602H87.314C86.7639 62.9602 86.3179 62.5142 86.3179 61.9641V59.9719C86.3179 59.4219 86.7639 58.9758 87.314 58.9758H89.3062C89.8562 58.9758 90.3022 59.4219 90.3022 59.9719V61.9641C90.3022 62.5144 89.8564 62.9602 89.3062 62.9602Z" stroke="#90AAD3" stroke-width="2" stroke-miterlimit="10" stroke-linecap="round" stroke-linejoin="round"/>
<path d="M33.6416 87.5555H31.6494C31.0994 87.5555 30.6533 87.1095 30.6533 86.5594V84.5673C30.6533 84.0172 31.0994 83.5712 31.6494 83.5712H33.6416C34.1916 83.5712 34.6377 84.0172 34.6377 84.5673V86.5594C34.6377 87.1095 34.1916 87.5555 33.6416 87.5555Z" stroke="#90AAD3" stroke-width="2" stroke-miterlimit="10" stroke-linecap="round" stroke-linejoin="round"/>
<path d="M92.8501 19.6433H90.8579C90.3079 19.6433 89.8618 19.1973 89.8618 18.6472V16.655C89.8618 16.105 90.3079 15.6589 90.8579 15.6589H92.8501C93.4001 15.6589 93.8462 16.105 93.8462 16.655V18.6472C93.8462 19.1973 93.4001 19.6433 92.8501 19.6433Z" stroke="#90AAD3" stroke-width="2" stroke-miterlimit="10" stroke-linecap="round" stroke-linejoin="round"/>
<path d="M89.8628 50.5717H90.2604M90.2604 50.5717C91.1406 50.5717 91.8542 49.8581 91.8542 48.978M90.2604 50.5717C91.1406 50.5717 91.8542 51.2853 91.8542 52.1655M91.8542 48.978V48.5803M91.8542 48.978C91.8542 49.8581 92.5678 50.5717 93.4479 50.5717M93.4479 50.5717H93.8456M93.4479 50.5717C92.5678 50.5717 91.8542 51.2853 91.8542 52.1655M91.8542 52.1655V52.5631" stroke="#90AAD3" stroke-width="2" stroke-miterlimit="10" stroke-linecap="round" stroke-linejoin="round"/>
<path d="M15.8818 64.2812H16.2795M16.2795 64.2812C17.1596 64.2812 17.8732 63.5676 17.8732 62.6874M16.2795 64.2812C17.1596 64.2812 17.8732 64.9948 17.8732 65.8749M17.8732 62.6874V62.2898M17.8732 62.6874C17.8732 63.5676 18.5868 64.2812 19.467 64.2812M19.467 64.2812H19.8646M19.467 64.2812C18.5868 64.2812 17.8732 64.9948 17.8732 65.8749M17.8732 65.8749V66.2726" stroke="#90AAD3" stroke-width="2" stroke-miterlimit="10" stroke-linecap="round" stroke-linejoin="round"/>
</g>
<defs>
<linearGradient id="paint0_linear_483_9313" x1="13.1313" y1="82.7125" x2="89.8637" y2="5.98016" gradientUnits="userSpaceOnUse">
<stop stop-color="#CFDBFF" stop-opacity="0"/>
<stop offset="1" stop-color="#D9DDEE"/>
</linearGradient>
<clipPath id="clip0_483_9313">
<rect width="102" height="102" fill="white"/>
</clipPath>
</defs>
</svg>
