<svg width="102" height="102" viewBox="0 0 102 102" fill="none" xmlns="http://www.w3.org/2000/svg">
<g clip-path="url(#clip0_485_9966)">
<path d="M80.4958 3.64527C71.388 -0.486724 57.8662 3.03805 56.2577 15.8436C54.5617 29.3467 66.4238 41.6614 46.6791 41.6614C34.6014 41.6614 24.2177 33.7512 25.3714 19.8105C26.3725 7.71372 26.5345 -3.44871 13.393 0.997256C0.905161 5.22189 0.533817 25.5536 5.77108 36.6837C10.1896 46.0737 25.5455 58.4986 17.9286 68.7711C12.9693 75.4594 -3.21289 76.7299 0.939426 87.1727C5.03337 97.4685 16.5932 101.703 26.967 101.987C49.2139 102.597 46.8825 81.584 41.1908 66.7195C39.247 61.6428 44.5147 59.9839 48.8065 62.1642C61.3796 68.5509 65.6889 100.52 82.7054 94.2402C92.4743 90.6349 85.6128 70.8647 75.1614 55.9133C70.6538 49.465 66.684 35.6177 77.0611 34.2074C83.5497 33.3257 88.676 40.0744 93.4644 43.902C108.056 55.5651 103.099 13.8995 80.4958 3.64527Z" fill="url(#paint0_linear_485_9966)"/>
<path opacity="0.1" d="M85.1318 85.5664L84.6756 83.9547C83.7691 80.7632 80.8566 78.5618 77.5396 78.5618H76.7815V50.155C76.7815 45.7941 75.7165 41.6826 73.8343 38.064C78.7078 36.4553 82.2264 31.8673 82.2264 26.455C82.2264 19.7028 76.7527 14.2291 70.0005 14.2291C66.0825 14.2291 62.5976 16.0743 60.3601 18.9408C59.8559 13.9685 55.6452 10.0752 50.5422 10.0752C45.1008 10.0752 40.6735 14.5022 40.6735 19.9437C40.6735 21.9002 41.2481 23.7239 42.234 25.2594C31.8145 28.735 24.3025 38.5673 24.3025 50.1552V67.5088C16.5511 67.5088 10.2676 73.7925 10.2676 81.5437C10.2676 89.2951 16.5513 95.5787 24.3025 95.5787C28.924 95.5787 33.0227 93.3443 35.5801 89.8976H43.0156C42.8181 90.5853 42.7102 91.3108 42.7102 92.0621C42.7102 96.3875 46.2166 99.894 50.542 99.894C54.8675 99.894 58.3739 96.3875 58.3739 92.0621C58.3739 91.3108 58.2659 90.5853 58.0685 89.8976H81.8606C84.1178 89.8974 85.7494 87.7398 85.1318 85.5664ZM50.5422 23.8356C48.3963 23.8356 46.6501 22.0895 46.6501 19.9435C46.6501 17.7975 48.3963 16.0516 50.5422 16.0516C52.6882 16.0516 54.4342 17.7975 54.4342 19.9435C54.4342 22.0895 52.6884 23.8356 50.5422 23.8356Z" fill="#3A5482"/>
<path d="M50.5425 25.0311C45.1011 25.0311 40.6738 20.6039 40.6738 15.1624C40.6738 9.72098 45.1011 5.29395 50.5425 5.29395C55.984 5.29395 60.411 9.72098 60.411 15.1624C60.411 20.6039 55.9842 25.0311 50.5425 25.0311ZM50.5425 11.2703C48.3965 11.2703 46.6504 13.0163 46.6504 15.1622C46.6504 17.3082 48.3965 19.0544 50.5425 19.0544C52.6885 19.0544 54.4345 17.3082 54.4345 15.1622C54.4345 13.0163 52.6887 11.2703 50.5425 11.2703Z" fill="#90AAD3"/>
<path d="M50.5423 95.1125C54.8678 95.1125 58.3742 91.606 58.3742 87.2806C58.3742 82.9552 54.8678 79.4487 50.5423 79.4487C46.2169 79.4487 42.7104 82.9552 42.7104 87.2806C42.7104 91.606 46.2169 95.1125 50.5423 95.1125Z" fill="#90AAD3"/>
<path d="M81.8608 85.1161H19.2245C16.9673 85.1161 15.3357 82.9585 15.9513 80.785L16.4095 79.1734C17.3159 75.9819 20.2285 73.7805 23.5455 73.7805H77.5398C80.8568 73.7805 83.7693 75.9819 84.6758 79.1734L85.132 80.785C85.7496 82.9585 84.118 85.1161 81.8608 85.1161Z" fill="white"/>
<path d="M38.3375 81.5441C38.3375 82.7792 38.1781 83.9765 37.8773 85.1161H19.2245C16.9673 85.1161 15.3357 82.9585 15.9513 80.785L16.4095 79.1734C17.3159 75.9819 20.2285 73.7805 23.5455 73.7805H35.9967C37.4769 76.0038 38.3375 78.6733 38.3375 81.5441Z" fill="#90AAD3"/>
<path d="M50.5422 19.1343C36.0505 19.1343 24.3027 30.882 24.3027 45.3738V73.7812H76.7815V45.3738C76.7815 30.882 65.0338 19.1343 50.5422 19.1343Z" fill="#90AAD3"/>
<path d="M37.7437 44.9476V73.7811H63.3413V44.9476C63.3413 37.8789 57.6111 32.1488 50.5425 32.1488C43.4738 32.1488 37.7437 37.8789 37.7437 44.9476Z" fill="white"/>
<path d="M41.728 73.7811V44.9476C41.728 40.0875 45.6821 36.1332 50.5423 36.1332C55.4026 36.1332 59.3569 40.0875 59.3569 44.9476V73.7809H41.728V73.7811Z" fill="#90AAD3"/>
<path d="M24.303 90.7971C32.0543 90.7971 38.338 84.5134 38.338 76.7621C38.338 69.0108 32.0543 62.7272 24.303 62.7272C16.5517 62.7272 10.2681 69.0108 10.2681 76.7621C10.2681 84.5134 16.5517 90.7971 24.303 90.7971Z" fill="#90AAD3"/>
<path d="M30.4913 73.8743H27.1909V70.5739C27.1909 69.4736 26.299 68.5817 25.1987 68.5817H23.4071C22.3068 68.5817 21.4149 69.4736 21.4149 70.5739V73.8743H18.1143C17.014 73.8743 16.1221 74.7662 16.1221 75.8665V77.6581C16.1221 78.7584 17.014 79.6503 18.1143 79.6503H21.4147V82.9507C21.4147 84.051 22.3066 84.9429 23.4069 84.9429H25.1985C26.2988 84.9429 27.1907 84.051 27.1907 82.9507V79.6503H30.4911C31.5914 79.6503 32.4833 78.7584 32.4833 77.6581V75.8665C32.4835 74.7662 31.5916 73.8743 30.4913 73.8743Z" fill="white"/>
<path d="M70.0008 33.8993C76.7529 33.8993 82.2266 28.4256 82.2266 21.6735C82.2266 14.9213 76.7529 9.44763 70.0008 9.44763C63.2486 9.44763 57.7749 14.9213 57.7749 21.6735C57.7749 28.4256 63.2486 33.8993 70.0008 33.8993Z" fill="#90AAD3"/>
<path d="M72.0366 25.3211C71.7818 25.3211 71.5266 25.2239 71.3323 25.0293C70.9433 24.6404 70.9433 24.0097 71.3323 23.6208C72.4059 22.547 72.4059 20.8001 71.3323 19.7263C70.9433 19.3374 70.9433 18.7067 71.3323 18.3178C71.721 17.9287 72.3521 17.9287 72.7408 18.3178C73.6373 19.2141 74.131 20.4058 74.131 21.6736C74.131 22.9415 73.6373 24.1332 72.7408 25.0295C72.5466 25.2239 72.2914 25.3211 72.0366 25.3211Z" fill="white"/>
<path d="M67.9652 25.3211C67.7104 25.3211 67.4552 25.2239 67.261 25.0293C65.4104 23.1789 65.4104 20.1682 67.261 18.3178C67.6496 17.9287 68.2808 17.9287 68.6694 18.3178C69.0585 18.7067 69.0585 19.3374 68.6694 19.7263C67.5958 20.8001 67.5958 22.547 68.6694 23.6208C69.0585 24.0097 69.0585 24.6404 68.6694 25.0293C68.475 25.2239 68.22 25.3211 67.9652 25.3211Z" fill="white"/>
<path d="M74.706 27.9905C74.4512 27.9905 74.196 27.8933 74.0016 27.6986C73.6127 27.3098 73.6127 26.679 74.0018 26.2902C75.2348 25.0572 75.9141 23.4176 75.9141 21.6737C75.9141 19.9297 75.235 18.2903 74.0018 17.057C73.6127 16.6681 73.6127 16.0374 74.0018 15.6485C74.3905 15.2594 75.0216 15.2594 75.4103 15.6485C77.0198 17.2578 77.9061 19.3976 77.9061 21.6737C77.9061 23.9497 77.0198 26.0893 75.4103 27.6988C75.2158 27.8933 74.9608 27.9905 74.706 27.9905Z" fill="white"/>
<path d="M65.2958 27.9905C65.041 27.9905 64.7859 27.8933 64.5915 27.6988C62.982 26.0893 62.0957 23.9497 62.0957 21.6737C62.0957 19.3976 62.982 17.2578 64.5915 15.6485C64.9802 15.2594 65.6113 15.2594 66 15.6485C66.3891 16.0374 66.3891 16.6681 66 17.057C64.767 18.2901 64.0877 19.9297 64.0877 21.6737C64.0877 23.4176 64.7668 25.057 66 26.2902C66.3891 26.679 66.3891 27.3098 66 27.6986C65.8058 27.8933 65.5508 27.9905 65.2958 27.9905Z" fill="white"/>
<path d="M86.0907 80.5138L85.6331 78.9013C84.6328 75.3767 81.4234 72.8942 77.7779 72.7899V45.3738C77.7779 43.0529 77.4847 40.7455 76.9063 38.5161C76.7683 37.9837 76.225 37.6632 75.6919 37.8021C75.1594 37.9401 74.8398 38.484 74.9779 39.0165C75.5138 41.0826 75.7857 43.2214 75.7857 45.3738V72.7851H43.7478H38.796C37.1323 66.7298 31.7695 62.1936 25.2991 61.7679V45.3738C25.2991 31.4546 36.6233 20.1304 50.5425 20.1304C52.6628 20.1304 54.7676 20.3953 56.8022 20.9145C56.7878 21.1659 56.7789 21.4187 56.7789 21.6735C56.7789 28.9641 62.7102 34.8955 70.0008 34.8955C77.2914 34.8955 83.2228 28.9641 83.2228 21.6735C83.2228 14.3829 77.2914 8.45176 70.0008 8.45176C66.5009 8.45176 63.3166 9.82119 60.9489 12.0493C59.607 7.57141 55.4513 4.29785 50.5425 4.29785C44.5516 4.29785 39.6777 9.17174 39.6777 15.1624C39.6777 16.8781 40.0806 18.5004 40.7926 19.9441C30.5766 23.8743 23.3069 33.7904 23.3069 45.374V61.7681C15.4818 62.2831 9.27197 68.8093 9.27197 76.7625C9.27197 85.0508 16.0149 91.7935 24.303 91.7935C29.0608 91.7935 33.3063 89.5691 36.0625 86.1082C36.0773 86.1088 36.0912 86.1126 36.1061 86.1126H41.7936C41.7424 86.4949 41.7145 86.8846 41.7145 87.2806C41.7145 92.1485 45.6748 96.1086 50.5425 96.1086C55.4102 96.1086 59.3703 92.1483 59.3703 87.2806C59.3703 86.8844 59.3424 86.4949 59.2912 86.1126H81.8603C83.2513 86.1126 84.53 85.4761 85.3688 84.3663C86.2075 83.2562 86.4706 81.8521 86.0907 80.5138ZM50.5423 18.0583C48.9454 18.0583 47.6463 16.7592 47.6463 15.1622C47.6463 13.5653 48.9454 12.2664 50.5423 12.2664C52.1393 12.2664 53.4382 13.5655 53.4382 15.1622C53.4382 16.759 52.1393 18.0583 50.5423 18.0583ZM70.0006 10.4439C76.1927 10.4439 81.2304 15.4816 81.2304 21.6735C81.2304 27.8656 76.1927 32.9033 70.0006 32.9033C63.8085 32.9033 58.7709 27.8656 58.7709 21.6735C58.7709 15.4816 63.8085 10.4439 70.0006 10.4439ZM41.6697 15.1622C41.6697 10.2698 45.6499 6.28984 50.5423 6.28984C55.0034 6.28984 58.7017 9.60046 59.3193 13.8932C58.2401 15.3706 57.4592 17.0781 57.0669 18.9285C56.1266 18.6972 55.1734 18.5155 54.2107 18.3858C54.9688 17.5248 55.4302 16.397 55.4302 15.1622C55.4302 12.467 53.2374 10.2742 50.5421 10.2742C47.8467 10.2742 45.6539 12.467 45.6539 15.1622C45.6539 16.397 46.1159 17.5248 46.8739 18.386C45.4429 18.5794 44.047 18.8846 42.6949 19.2922C42.0417 18.0581 41.6697 16.6534 41.6697 15.1622ZM24.3028 89.8011C17.1132 89.8011 11.264 83.9519 11.264 76.7623C11.264 69.5727 17.1132 63.7234 24.3028 63.7234C31.4924 63.7234 37.3417 69.5727 37.3417 76.7623C37.3417 83.9519 31.4924 89.8011 24.3028 89.8011ZM57.3781 87.2804C57.3781 91.0499 54.3115 94.1162 50.5425 94.1162C46.7731 94.1162 43.7067 91.0497 43.7067 87.2804C43.7067 86.882 43.7432 86.4921 43.8093 86.1124H57.2757C57.3417 86.4921 57.3781 86.882 57.3781 87.2804ZM83.7792 83.165C83.3204 83.772 82.6211 84.1202 81.8601 84.1202H37.4025C38.63 81.9436 39.3341 79.4342 39.3341 76.7621C39.3341 76.0889 39.2851 75.4271 39.199 74.7771H43.748H76.782H77.5395C80.3967 74.7771 82.9367 76.6967 83.7168 79.4454L84.1746 81.0578C84.3818 81.79 84.238 82.5577 83.7792 83.165Z" fill="#3A5482"/>
<path d="M69.8901 56.7966H66.188C65.6377 56.7966 65.1919 57.2425 65.1919 57.7927C65.1919 58.343 65.6377 58.7888 66.188 58.7888H69.8901C70.4403 58.7888 70.8862 58.343 70.8862 57.7927C70.8862 57.2425 70.4403 56.7966 69.8901 56.7966Z" fill="#3A5482"/>
<path d="M69.8901 60.4586H54.2349C53.6846 60.4586 53.2388 60.9045 53.2388 61.4547C53.2388 62.005 53.6846 62.4508 54.2349 62.4508H69.8901C70.4403 62.4508 70.8862 62.005 70.8862 61.4547C70.8862 60.9045 70.4403 60.4586 69.8901 60.4586Z" fill="#3A5482"/>
<path d="M69.8901 64.1205H54.2349C53.6846 64.1205 53.2388 64.5663 53.2388 65.1166C53.2388 65.6668 53.6846 66.1127 54.2349 66.1127H69.8901C70.4403 66.1127 70.8862 65.6668 70.8862 65.1166C70.8862 64.5663 70.4403 64.1205 69.8901 64.1205Z" fill="#3A5482"/>
<path d="M69.2099 94.9974C68.9551 94.9974 68.6999 94.9002 68.5057 94.7055L67.4169 93.617L66.3282 94.7055C65.9395 95.0946 65.3084 95.0946 64.9197 94.7055C64.5307 94.3167 64.5307 93.6859 64.9197 93.2971L66.7127 91.5041C67.1014 91.115 67.7325 91.115 68.1212 91.5041L69.9141 93.2971C70.3032 93.6859 70.3032 94.3167 69.9141 94.7055C69.7199 94.9 69.4649 94.9974 69.2099 94.9974Z" fill="#90AAD3"/>
<path d="M34.7075 17.9442C34.4527 17.9442 34.1975 17.8469 34.0032 17.6523L32.9145 16.5638L31.8258 17.6523C31.4371 18.0414 30.806 18.0414 30.4173 17.6523C30.0282 17.2634 30.0282 16.6327 30.4173 16.2438L32.2103 14.4509C32.5989 14.0618 33.2301 14.0618 33.6187 14.4509L35.4117 16.2438C35.8008 16.6327 35.8008 17.2634 35.4117 17.6523C35.2173 17.8469 34.9623 17.9442 34.7075 17.9442Z" fill="#90AAD3"/>
<path d="M84.0419 49.2468C83.7871 49.2468 83.5319 49.1496 83.3377 48.9549L82.249 47.8664L81.1602 48.9549C80.7716 49.344 80.1404 49.344 79.7518 48.9549C79.3627 48.566 79.3627 47.9353 79.7518 47.5464L81.5447 45.7535C81.9334 45.3644 82.5645 45.3644 82.9532 45.7535L84.7462 47.5464C85.1353 47.9353 85.1353 48.566 84.7462 48.9549C84.5519 49.1496 84.2969 49.2468 84.0419 49.2468Z" fill="#90AAD3"/>
<path d="M82.1364 38.9253C81.9667 38.9253 81.795 38.8819 81.6376 38.7906L81.6181 38.7793C81.1421 38.5032 80.9802 37.8938 81.2563 37.4178C81.5324 36.9421 82.1418 36.7799 82.6177 37.056L82.6373 37.0674C83.1132 37.3435 83.2752 37.9529 82.999 38.4289C82.8142 38.7472 82.4801 38.9253 82.1364 38.9253Z" fill="#90AAD3"/>
<path d="M87.0975 41.7895C86.9292 41.7895 86.7589 41.7468 86.6025 41.657L86.5827 41.6456C86.1056 41.3717 85.9411 40.7627 86.215 40.2858C86.4891 39.8088 87.0977 39.6437 87.5749 39.918L87.5946 39.9294C88.0717 40.2033 88.2363 40.8123 87.9623 41.2892C87.7781 41.6098 87.4428 41.7895 87.0975 41.7895Z" fill="#90AAD3"/>
<path d="M82.1364 38.9253C81.9667 38.9253 81.795 38.8819 81.6376 38.7906L81.6181 38.7793C81.1421 38.5032 80.9802 37.8938 81.2563 37.4178C81.5324 36.9421 82.1418 36.7799 82.6177 37.056L82.6373 37.0674C83.1132 37.3435 83.2752 37.9529 82.999 38.4289C82.8142 38.7472 82.4801 38.9253 82.1364 38.9253Z" fill="#90AAD3"/>
<path d="M87.0975 41.7895C86.9292 41.7895 86.7589 41.7468 86.6025 41.657L86.5827 41.6456C86.1056 41.3717 85.9411 40.7627 86.215 40.2858C86.4891 39.8088 87.0977 39.6437 87.5749 39.918L87.5946 39.9294C88.0717 40.2033 88.2363 40.8123 87.9623 41.2892C87.7781 41.6098 87.4428 41.7895 87.0975 41.7895Z" fill="#90AAD3"/>
<path d="M87.0798 38.9253C86.7347 38.9253 86.3993 38.7458 86.215 38.4251C85.9411 37.9479 86.1056 37.3391 86.5827 37.0652L86.6025 37.0538C87.08 36.7801 87.6884 36.9447 87.9623 37.4216C88.2363 37.8987 88.0717 38.5075 87.5946 38.7815L87.5749 38.7928C87.4187 38.8825 87.2479 38.9253 87.0798 38.9253Z" fill="#90AAD3"/>
<path d="M82.1189 41.7894C81.7752 41.7894 81.4411 41.6113 81.2562 41.293C80.9801 40.817 81.1423 40.2076 81.618 39.9315L81.6375 39.9202C82.1139 39.6442 82.7229 39.8064 82.999 40.2819C83.2751 40.7579 83.113 41.3673 82.6372 41.6434L82.6177 41.6548C82.4603 41.746 82.2886 41.7894 82.1189 41.7894Z" fill="#90AAD3"/>
<path d="M87.0798 38.9253C86.7347 38.9253 86.3993 38.7458 86.215 38.4251C85.9411 37.9479 86.1056 37.3391 86.5827 37.0652L86.6025 37.0538C87.08 36.7801 87.6884 36.9447 87.9623 37.4216C88.2363 37.8987 88.0717 38.5075 87.5946 38.7815L87.5749 38.7928C87.4187 38.8825 87.2479 38.9253 87.0798 38.9253Z" fill="#90AAD3"/>
<path d="M82.1189 41.7894C81.7752 41.7894 81.4411 41.6113 81.2562 41.293C80.9801 40.817 81.1423 40.2076 81.618 39.9315L81.6375 39.9202C82.1139 39.6442 82.7229 39.8064 82.999 40.2819C83.2751 40.7579 83.113 41.3673 82.6372 41.6434L82.6177 41.6548C82.4603 41.746 82.2886 41.7894 82.1189 41.7894Z" fill="#90AAD3"/>
<path d="M84.6079 37.4987C84.0577 37.4987 83.6118 37.0529 83.6118 36.5026V36.4801C83.6118 35.9299 84.0577 35.484 84.6079 35.484C85.1582 35.484 85.604 35.9299 85.604 36.4801V36.5026C85.604 37.0527 85.1582 37.4987 84.6079 37.4987Z" fill="#90AAD3"/>
<path d="M84.6079 43.2268C84.0577 43.2268 83.6118 42.781 83.6118 42.2307V42.208C83.6118 41.6578 84.0577 41.2119 84.6079 41.2119C85.1582 41.2119 85.604 41.6578 85.604 42.208V42.2307C85.604 42.781 85.1582 43.2268 84.6079 43.2268Z" fill="#90AAD3"/>
<path d="M13.6506 55.3512C13.4809 55.3512 13.3091 55.3077 13.1517 55.2165L13.1322 55.2051C12.6563 54.929 12.4943 54.3196 12.7704 53.8437C13.0468 53.3679 13.6558 53.2062 14.1319 53.4819L14.1514 53.4932C14.6274 53.7694 14.7893 54.3788 14.5132 54.8547C14.3285 55.1731 13.9942 55.3512 13.6506 55.3512Z" fill="#90AAD3"/>
<path d="M18.6117 58.2154C18.4433 58.2154 18.273 58.1727 18.1166 58.0829L18.0969 58.0715C17.6198 57.7976 17.4552 57.1886 17.7291 56.7117C18.0033 56.2347 18.6119 56.0696 19.089 56.3439L19.1087 56.3553C19.5859 56.6292 19.7504 57.2382 19.4765 57.7151C19.2922 58.0357 18.9567 58.2154 18.6117 58.2154Z" fill="#90AAD3"/>
<path d="M13.6506 55.3512C13.4809 55.3512 13.3091 55.3077 13.1517 55.2165L13.1322 55.2051C12.6563 54.929 12.4943 54.3196 12.7704 53.8437C13.0468 53.3679 13.6558 53.2062 14.1319 53.4819L14.1514 53.4932C14.6274 53.7694 14.7893 54.3788 14.5132 54.8547C14.3285 55.1731 13.9942 55.3512 13.6506 55.3512Z" fill="#90AAD3"/>
<path d="M18.6117 58.2154C18.4433 58.2154 18.273 58.1727 18.1166 58.0829L18.0969 58.0715C17.6198 57.7976 17.4552 57.1886 17.7291 56.7117C18.0033 56.2347 18.6119 56.0696 19.089 56.3439L19.1087 56.3553C19.5859 56.6292 19.7504 57.2382 19.4765 57.7151C19.2922 58.0357 18.9567 58.2154 18.6117 58.2154Z" fill="#90AAD3"/>
<path d="M18.594 55.3511C18.2489 55.3511 17.9134 55.1716 17.7291 54.8508C17.4552 54.3737 17.6198 53.7649 18.0969 53.4909L18.1166 53.4796C18.5942 53.2057 19.2026 53.3704 19.4765 53.8473C19.7504 54.3245 19.5859 54.9333 19.1087 55.2072L19.089 55.2186C18.9326 55.3082 18.7621 55.3511 18.594 55.3511Z" fill="#90AAD3"/>
<path d="M13.633 58.2153C13.2894 58.2153 12.9553 58.0372 12.7704 57.7188C12.4943 57.2429 12.6564 56.6335 13.1322 56.3573L13.1517 56.346C13.6282 56.0699 14.2372 56.2324 14.5132 56.7078C14.7893 57.1837 14.6271 57.7931 14.1514 58.0692L14.1319 58.0806C13.9743 58.1718 13.8025 58.2153 13.633 58.2153Z" fill="#90AAD3"/>
<path d="M18.594 55.3511C18.2489 55.3511 17.9134 55.1716 17.7291 54.8508C17.4552 54.3737 17.6198 53.7649 18.0969 53.4909L18.1166 53.4796C18.5942 53.2057 19.2026 53.3704 19.4765 53.8473C19.7504 54.3245 19.5859 54.9333 19.1087 55.2072L19.089 55.2186C18.9326 55.3082 18.7621 55.3511 18.594 55.3511Z" fill="#90AAD3"/>
<path d="M13.633 58.2153C13.2894 58.2153 12.9553 58.0372 12.7704 57.7188C12.4943 57.2429 12.6564 56.6335 13.1322 56.3573L13.1517 56.346C13.6282 56.0699 14.2372 56.2324 14.5132 56.7078C14.7893 57.1837 14.6271 57.7931 14.1514 58.0692L14.1319 58.0806C13.9743 58.1718 13.8025 58.2153 13.633 58.2153Z" fill="#90AAD3"/>
<path d="M16.1226 53.9245C15.5723 53.9245 15.1265 53.4786 15.1265 52.9284V52.9059C15.1265 52.3556 15.5723 51.9098 16.1226 51.9098C16.6728 51.9098 17.1187 52.3556 17.1187 52.9059V52.9284C17.1187 53.4784 16.6726 53.9245 16.1226 53.9245Z" fill="#90AAD3"/>
<path d="M16.1226 59.6529C15.5723 59.6529 15.1265 59.207 15.1265 58.6568V58.6343C15.1265 58.084 15.5723 57.6382 16.1226 57.6382C16.6728 57.6382 17.1187 58.084 17.1187 58.6343V58.6568C17.1187 59.2068 16.6726 59.6529 16.1226 59.6529Z" fill="#90AAD3"/>
</g>
<defs>
<linearGradient id="paint0_linear_485_9966" x1="3.3179" y1="91.835" x2="87.2669" y2="7.88584" gradientUnits="userSpaceOnUse">
<stop stop-color="#D2DEFF" stop-opacity="0"/>
<stop offset="1" stop-color="#D9DDEE"/>
</linearGradient>
<clipPath id="clip0_485_9966">
<rect width="102" height="102" fill="white"/>
</clipPath>
</defs>
</svg>
