<svg width="102" height="102" viewBox="0 0 102 102" fill="none" xmlns="http://www.w3.org/2000/svg">
<g clip-path="url(#clip0_485_9653)">
<path d="M98.3873 13.1633C98.7421 3.05214 87.2466 -6.42331 81.1833 5.70095C66.3001 35.4614 20.1077 -11.3414 5.08339 16.764C-1.447 28.9801 15.4563 38.3083 20.8065 48.2698C29.0725 63.6601 11.722 79.0728 15.1246 93.663C17.5517 104.07 31.8379 103.721 39.6164 98.1486C48.5894 91.72 50.3546 81.1756 52.5809 71.221C58.1951 46.1167 97.3768 41.9609 98.3873 13.1633Z" fill="url(#paint0_linear_485_9653)"/>
<g opacity="0.1">
<path d="M89.3344 65.24H77.6636C77.1135 65.24 76.6675 64.7939 76.6675 64.2439C76.6675 63.6939 77.1135 63.2478 77.6636 63.2478H89.3344C89.8845 63.2478 90.3305 63.6939 90.3305 64.2439C90.3305 64.7939 89.8847 65.24 89.3344 65.24Z" fill="#3A5482"/>
<path d="M84.296 61.1794H77.6636C77.1135 61.1794 76.6675 60.7334 76.6675 60.1833C76.6675 59.6333 77.1135 59.1873 77.6636 59.1873H84.296C84.846 59.1873 85.2921 59.6333 85.2921 60.1833C85.2921 60.7334 84.846 61.1794 84.296 61.1794Z" fill="#3A5482"/>
<path d="M77.6636 57.142C77.1135 57.142 76.6675 56.696 76.6675 56.146V56.123C76.6675 55.573 77.1135 55.127 77.6636 55.127C78.2136 55.127 78.6597 55.573 78.6597 56.123V56.146C78.6597 56.696 78.2138 57.142 77.6636 57.142Z" fill="#3A5482"/>
<path d="M80.918 57.142C80.3679 57.142 79.9219 56.696 79.9219 56.146V56.123C79.9219 55.573 80.3679 55.127 80.918 55.127C81.468 55.127 81.9141 55.573 81.9141 56.123V56.146C81.9141 56.696 81.468 57.142 80.918 57.142Z" fill="#3A5482"/>
</g>
<path opacity="0.1" d="M85.7888 78.9079C80.2047 72.3356 66.2355 64.4546 66.2355 64.4546V60.2423C70.0412 58.8067 72.9101 55.4041 73.5377 51.2063C74.1646 51.4101 74.8511 51.4816 75.5659 51.3814C77.6085 51.0951 79.2156 49.4024 79.3991 47.348C79.5559 45.5927 78.701 44.0245 77.3527 43.1567C78.3801 41.3657 79.6248 38.4308 79.6248 34.7044C79.6248 27.4345 77.4161 23.1617 76.0357 21.201C75.5335 20.4876 74.5941 20.2232 73.7921 20.5667C70.5994 21.9343 66.6467 20.1196 62.224 19.9154C62.2193 19.8987 62.2163 19.8818 62.2103 19.8652C61.6318 18.2828 60.7845 16.8293 59.7233 15.5613C59.5065 15.3023 59.1451 15.2161 58.8365 15.3535L55.5803 16.8042C54.5762 15.937 53.4086 15.2547 52.1296 14.8098L51.7593 11.2655C51.7242 10.9299 51.4698 10.6593 51.1375 10.6015C50.3301 10.4611 49.4993 10.3882 48.6521 10.3882C47.8046 10.3882 46.9748 10.4611 46.1678 10.6015C45.8355 10.6593 45.5813 10.9299 45.5461 11.2653L45.1743 14.8098C43.8953 15.2547 42.7275 15.937 41.725 16.8042L38.4682 15.3533C38.1604 15.2162 37.7994 15.3009 37.5831 15.5593C36.5208 16.8267 35.6734 18.2796 35.0946 19.8612C34.9787 20.1782 35.0853 20.5342 35.3584 20.7326L38.2443 22.8282C38.121 23.4731 38.0548 24.1389 38.0548 24.8212C38.0548 25.5021 38.121 26.1679 38.2443 26.8142L35.3584 28.9084C35.0857 29.1062 34.9781 29.4616 35.0938 29.7781C35.4636 30.7894 35.9439 31.7468 36.5187 32.6377L34.0171 33.7522C33.013 32.885 31.8454 32.2026 30.5662 31.7578L30.1958 28.2135C30.1608 27.8778 29.9064 27.6073 29.5741 27.5495C28.7667 27.409 27.9359 27.3361 27.0884 27.3361C26.241 27.3361 25.4112 27.409 24.6042 27.5495C24.2719 27.6073 24.0177 27.8778 23.9824 28.2133L23.6107 31.7578C22.3317 32.2026 21.1639 32.885 20.1614 33.7522L16.9046 32.3013C16.5968 32.1642 16.2358 32.2489 16.0192 32.5072C14.957 33.7747 14.1095 35.2276 13.5308 36.8092C13.4149 37.1261 13.5214 37.4821 13.7946 37.6806L16.6804 39.7761C16.5571 40.421 16.491 41.0868 16.491 41.7691C16.491 42.4501 16.5571 43.1158 16.6804 43.7621L13.7942 45.8557C13.521 46.0539 13.4143 46.4099 13.5302 46.7269C14.1091 48.3097 14.9564 49.7626 16.0186 51.0302C16.2352 51.2886 16.5964 51.3733 16.9042 51.236L20.1608 49.7839C21.1633 50.6527 22.3311 51.335 23.6101 51.7799L23.9818 55.3238C24.0171 55.6593 24.2715 55.93 24.604 55.9876C25.411 56.1274 26.2408 56.2015 27.088 56.2015C27.9353 56.2015 28.7659 56.1276 29.5733 55.9876C29.9058 55.93 30.1604 55.6592 30.1954 55.3234L30.5658 51.7797C31.8448 51.3348 33.0126 50.6525 34.0167 49.7837L37.2731 51.2358C37.5811 51.3731 37.9423 51.2882 38.1588 51.0298C39.2201 49.7624 40.0671 48.3095 40.6459 46.7269C40.7618 46.4099 40.655 46.0539 40.3819 45.8557L37.496 43.7615C37.6193 43.1152 37.6855 42.4495 37.6855 41.7685C37.6855 41.0862 37.6193 40.4204 37.496 39.7755L40.3819 37.68C40.6544 37.4819 40.762 37.1267 40.6463 36.8102C40.2765 35.7997 39.7964 34.8427 39.2219 33.952L41.7246 32.836C42.5195 33.5247 43.4196 34.094 44.3954 34.5229C44.3772 34.7487 44.3645 34.9784 44.3645 35.2168C44.3645 39.2076 45.52 42.0028 46.4407 43.5999C45.4265 44.5154 44.8317 45.8866 44.9801 47.3909C45.1809 49.4265 46.7786 51.094 48.8039 51.3802C49.5207 51.4814 50.209 51.4101 50.8375 51.2059C51.465 55.4037 54.3338 58.8063 58.1395 60.2419V64.4542C58.1395 64.4542 53.7881 66.0411 49.3129 70.7459H44.3754V69.3964C44.3754 68.6565 44.0232 68.0005 43.479 67.5815V63.9663C43.479 62.3159 42.141 60.978 40.4907 60.978H26.3908C24.7404 60.978 23.4025 62.3159 23.4025 63.9663V67.5815C22.8582 68.0005 22.506 68.6565 22.506 69.3962V70.7457H17.2267C16.1264 70.7457 15.2345 71.6376 15.2345 72.7379V95.9935C15.2345 97.0938 16.1264 97.9857 17.2267 97.9857H39.6998V97.9867H74.3539V79.4454C76.2265 80.8718 77.9139 82.3241 79.0156 83.621C79.9459 84.7167 79.9539 85.0255 79.9639 85.5355C79.9818 86.3065 79.9001 87.7189 78.9738 90.0936C78.3243 91.7571 77.1708 93.7313 76.1767 95.2872C75.1846 96.8451 74.3539 97.9867 74.3539 97.9867H83.2663C83.6283 97.9867 83.961 97.7896 84.1375 97.4737C90.4179 86.2316 88.9841 82.6721 85.7888 78.9079ZM27.088 46.9645C24.2185 46.9645 21.892 44.6381 21.892 41.7685C21.892 38.899 24.2185 36.5725 27.088 36.5725C29.9576 36.5725 32.2841 38.899 32.2841 41.7685C32.2841 44.6381 29.9576 46.9645 27.088 46.9645ZM25.3947 67.1872V63.9669C25.3947 63.4176 25.8415 62.9708 26.3908 62.9708H40.4907C41.0399 62.9708 41.4868 63.4176 41.4868 63.9669V67.1872C40.5118 67.4504 39.7934 68.3385 39.7934 69.3968V70.7463H27.088V69.3968C27.088 68.3385 26.3697 67.4504 25.3947 67.1872ZM43.4555 24.821C43.4555 21.9514 45.7819 19.625 48.6515 19.625C50.609 19.625 52.3131 20.7081 53.199 22.3072C50.1922 24.566 49.5671 27.5963 49.5671 27.5963C49.5671 27.5963 48.0512 28.1938 46.6557 29.6194C44.7769 28.8368 43.4555 26.9833 43.4555 24.821Z" fill="#3A5482"/>
<path d="M59.2485 20.0397C59.2485 19.3574 59.1823 18.6916 59.059 18.0467L61.9449 15.9511C62.2168 15.7537 62.3254 15.3993 62.2101 15.0837C61.6307 13.4993 60.7823 12.0442 59.719 10.775C59.5035 10.5178 59.1427 10.4354 58.8361 10.572L55.5799 12.0229C54.5758 11.1557 53.4082 10.4734 52.129 10.0285L51.7586 6.48425C51.7238 6.15016 51.4718 5.87842 51.1407 5.82085C50.3318 5.68 49.4999 5.60669 48.6512 5.60669C47.8024 5.60669 46.9714 5.68 46.163 5.82085C45.8321 5.87842 45.5803 6.14996 45.5452 6.48405L45.1735 10.0285C43.8945 10.4734 42.7267 11.1557 41.7242 12.0229L38.4674 10.572C38.161 10.4356 37.8002 10.5178 37.5848 10.7748C36.5204 12.044 35.6717 13.4993 35.0922 15.0839C34.9769 15.3995 35.0856 15.7539 35.3574 15.9513L38.2432 18.0469C38.1199 18.6918 38.0538 19.3576 38.0538 20.0399C38.0538 20.7208 38.1199 21.3866 38.2432 22.0329L35.3574 24.1271C35.0854 24.3245 34.9767 24.6787 35.092 24.9945C35.6713 26.58 36.52 28.0355 37.5844 29.3048C37.8 29.5619 38.1608 29.644 38.4674 29.5076L41.724 28.0555C42.7265 28.9242 43.8943 29.6066 45.1733 30.0514L45.545 33.5953C45.5801 33.9294 45.8323 34.201 46.1632 34.2585C46.9714 34.399 47.8024 34.4731 48.651 34.4731C49.4997 34.4731 50.3316 34.399 51.1403 34.2585C51.4714 34.201 51.7236 33.9294 51.7586 33.5951L52.129 30.0514C53.408 29.6066 54.5758 28.9242 55.5799 28.0555L58.8363 29.5076C59.1429 29.6442 59.5039 29.5619 59.7194 29.3046C60.7827 28.0353 61.6311 26.58 62.2105 24.9947C62.3258 24.6791 62.217 24.3247 61.9451 24.1273L59.0592 22.0331C59.1823 21.3864 59.2485 20.7206 59.2485 20.0397ZM48.6512 25.2359C45.7817 25.2359 43.4552 22.9094 43.4552 20.0399C43.4552 17.1703 45.7817 14.8439 48.6512 14.8439C51.5208 14.8439 53.8473 17.1703 53.8473 20.0399C53.8473 22.9094 51.5208 25.2359 48.6512 25.2359Z" fill="white"/>
<path d="M39.708 92.2072C40.1588 66.2276 58.1391 59.6733 58.1391 59.6733H66.2354C66.2354 59.6733 80.2046 67.5544 85.7887 74.1267C89.032 77.9477 90.4604 81.5575 83.8483 93.2058H74.3535C74.3535 93.2058 75.1843 92.0643 76.1764 90.5064C77.1705 88.9505 78.324 86.9763 78.9734 85.3128C79.8998 82.9381 79.9815 81.5256 79.9635 80.7547C79.9536 80.2447 79.9456 79.9359 79.0153 78.8402C77.9136 77.5433 76.2262 76.091 74.3535 74.6646V93.2058H49.6544L39.708 92.2072Z" fill="#90AAD3"/>
<path d="M58.1387 50.4573V59.6741L62.187 64.5116L66.2355 59.6741V50.4573H58.1387Z" fill="white"/>
<path d="M58.1385 59.6743L62.1869 64.5117L56.648 67.4289C55.9348 67.8044 55.0781 67.2875 55.0781 66.4814V61.8161C55.0781 60.6332 56.037 59.6743 57.2199 59.6743H58.1385Z" fill="#90AAD3"/>
<path d="M66.2347 59.6743L62.187 64.5117L67.7259 67.4289C68.4391 67.8044 69.2957 67.2875 69.2957 66.4814V61.8161C69.2957 60.6332 68.3369 59.6743 67.1539 59.6743H66.2347Z" fill="#90AAD3"/>
<path d="M76.6147 39.544C77.6399 38.073 79.6247 34.6279 79.6247 29.9231C79.6247 22.6656 77.4235 18.3947 76.0425 16.4296C75.5409 15.7156 74.6064 15.4341 73.8051 15.7798C70.4242 17.2383 66.1898 15.115 61.4462 15.115C51.1537 15.115 49.5668 22.8152 49.5668 22.8152C49.5668 22.8152 44.3638 24.8598 44.3638 30.4361C44.3638 35.1168 45.9545 38.1592 46.8901 39.5442L76.6147 39.544Z" fill="#90AAD3"/>
<path d="M49.4482 46.645C51.9286 46.645 53.9394 44.6342 53.9394 42.1538C53.9394 39.6734 51.9286 37.6626 49.4482 37.6626C46.9678 37.6626 44.957 39.6734 44.957 42.1538C44.957 44.6342 46.9678 46.645 49.4482 46.645Z" fill="white"/>
<path d="M74.9262 46.645C77.4067 46.645 79.4174 44.6342 79.4174 42.1538C79.4174 39.6734 77.4067 37.6626 74.9262 37.6626C72.4458 37.6626 70.4351 39.6734 70.4351 42.1538C70.4351 44.6342 72.4458 46.645 74.9262 46.645Z" fill="white"/>
<path d="M62.187 56.1991C56.3032 56.1991 51.3724 51.7499 50.7697 45.8971L50.0862 39.2575C49.3477 32.0843 54.9758 25.8469 62.187 25.8469C69.3981 25.8469 75.0262 32.0843 74.2877 39.2575L73.6042 45.8971C73.0015 51.7499 68.0707 56.1991 62.187 56.1991Z" fill="white"/>
<path d="M60.0163 50.6678C59.6545 50.4218 59.3326 50.1138 59.0686 49.7528C59.0654 49.7484 59.0622 49.7438 59.0591 49.7394C58.6507 49.1613 59.1023 48.3608 59.8101 48.3608H64.57C65.232 48.3608 65.6944 49.0716 65.3715 49.6498C65.3518 49.685 65.3297 49.7195 65.3054 49.753C65.043 50.1116 64.7234 50.4182 64.3644 50.6634L60.0163 50.6678Z" fill="#90AAD3"/>
<path d="M64.3635 50.6616C63.728 51.0959 62.971 51.3389 62.1881 51.3389C61.4071 51.3389 60.6501 51.0979 60.0166 50.6676C60.4927 49.9803 61.2896 49.53 62.1901 49.53C63.0886 49.53 63.8834 49.9763 64.3635 50.6616Z" fill="#3A5482"/>
<path d="M62.1872 42.967C61.5931 42.967 61.0809 43.3175 60.846 43.8231C60.7113 44.1129 60.9221 44.4452 61.2417 44.4452H63.1327C63.4522 44.4452 63.6632 44.1129 63.5283 43.8231C63.2936 43.3175 62.7814 42.967 62.1872 42.967Z" fill="#90AAD3"/>
<path d="M75.4392 30.3205V35.293C73.7538 35.293 72.176 35.2312 70.6998 35.1197C69.2236 34.9942 67.835 34.4921 66.6417 33.6933C66.6417 33.6933 65.7512 34.01 64.3507 34.2551C61.1612 34.8149 55.3181 35.0181 51.248 30.3205C51.248 26.8103 54.0949 23.9614 57.6071 23.9614H69.0781C72.5904 23.9614 75.4392 26.8103 75.4392 30.3205Z" fill="#90AAD3"/>
<path d="M56.7393 41.9828C56.1892 41.9828 55.7432 41.5367 55.7432 40.9867V40.4717C55.7432 39.9216 56.1892 39.4756 56.7393 39.4756C57.2893 39.4756 57.7354 39.9216 57.7354 40.4717V40.9867C57.7354 41.5367 57.2895 41.9828 56.7393 41.9828Z" fill="#90AAD3"/>
<path d="M67.6348 41.9828C67.0847 41.9828 66.6387 41.5367 66.6387 40.9867V40.4717C66.6387 39.9216 67.0847 39.4756 67.6348 39.4756C68.1848 39.4756 68.6309 39.9216 68.6309 40.4717V40.9867C68.6309 41.5367 68.1848 41.9828 67.6348 41.9828Z" fill="#90AAD3"/>
<path d="M24.7969 68.8987C23.5316 68.8987 22.5059 67.8729 22.5059 66.6077V64.6155C22.5059 63.3502 23.5316 62.3245 24.7969 62.3245C26.0621 62.3245 27.0879 63.3502 27.0879 64.6155V66.6077C27.0879 67.8729 26.0621 68.8987 24.7969 68.8987Z" fill="#90AAD3"/>
<path d="M42.0845 68.8987C40.8192 68.8987 39.7935 67.8729 39.7935 66.6077V64.6155C39.7935 63.3502 40.8192 62.3245 42.0845 62.3245C43.3497 62.3245 44.3755 63.3502 44.3755 64.6155V66.6077C44.3755 67.8729 43.3497 68.8987 42.0845 68.8987Z" fill="#90AAD3"/>
<path d="M49.6546 93.2047H17.2266C16.1263 93.2047 15.2344 92.3128 15.2344 91.2125V72.7382L51.6468 72.2136V91.2125C51.6468 92.3128 50.7547 93.2047 49.6546 93.2047Z" fill="#90AAD3"/>
<path d="M46.4671 77.3934H20.4141C17.5535 77.3934 15.2344 75.0743 15.2344 72.2137V67.957C15.2344 66.8567 16.1263 65.9648 17.2266 65.9648H49.6546C50.7549 65.9648 51.6468 66.8567 51.6468 67.957V72.2137C51.6468 75.0745 49.3277 77.3934 46.4671 77.3934Z" fill="white"/>
<path d="M34.5591 81.0319H32.3223C31.3319 81.0319 30.5293 80.2293 30.5293 79.239V74.7456C30.5293 74.1985 30.9728 73.7549 31.52 73.7549H32.4081L33.4379 74.751L34.4732 73.7549H35.3613C35.9084 73.7549 36.3521 74.1983 36.3521 74.7456V79.239C36.3521 80.2293 35.5492 81.0319 34.5591 81.0319Z" fill="white"/>
<path d="M34.4733 76.7261V73.7551H32.4082V76.7261C32.4082 77.2962 32.8704 77.7586 33.4408 77.7586C34.0109 77.7586 34.4733 77.2962 34.4733 76.7261Z" fill="#90AAD3"/>
<path d="M37.6852 36.9874C37.6852 36.3051 37.6191 35.6393 37.4957 34.9945L40.3816 32.8989C40.6536 32.7015 40.7621 32.347 40.6468 32.0315C40.0675 30.4471 39.219 28.992 38.1558 27.7228C37.9402 27.4656 37.5794 27.3831 37.2728 27.5198L34.0162 28.9707C33.0121 28.1035 31.8445 27.4212 30.5653 26.9763L30.195 23.432C30.1601 23.0979 29.9081 22.8262 29.577 22.7686C28.7684 22.6278 27.9362 22.5544 27.0876 22.5544C26.2387 22.5544 25.4077 22.6278 24.5993 22.7686C24.2684 22.8262 24.0166 23.0977 23.9815 23.4318L23.6098 26.9763C22.3308 27.4212 21.163 28.1035 20.1605 28.9707L16.9037 27.5198C16.5973 27.3833 16.2365 27.4656 16.0212 27.7226C14.9567 28.9918 14.1081 30.4471 13.5285 32.0317C13.4132 32.3472 13.522 32.7017 13.7937 32.8991L16.6796 34.9947C16.5563 35.6393 16.4901 36.3053 16.4901 36.9876C16.4901 37.6686 16.5563 38.3344 16.6796 38.9806L13.7941 41.0746C13.5222 41.272 13.4134 41.6263 13.5287 41.942C14.1081 43.5276 14.9567 44.9831 16.0212 46.2523C16.2367 46.5095 16.5975 46.5916 16.9041 46.4551L20.1607 45.003C21.1632 45.8718 22.331 46.5541 23.61 46.999L23.9817 50.5429C24.0168 50.877 24.269 51.1485 24.5999 51.2061C25.4081 51.3465 26.2391 51.4206 27.0878 51.4206C27.9364 51.4206 28.7684 51.3465 29.577 51.2061C29.9081 51.1485 30.1603 50.877 30.1954 50.5427L30.5657 46.999C31.8447 46.5541 33.0125 45.8718 34.0166 45.003L37.273 46.4551C37.5796 46.5918 37.9406 46.5095 38.1562 46.2521C39.2194 44.9829 40.0679 43.5276 40.6472 41.9422C40.7625 41.6266 40.6538 41.2722 40.3818 41.0748L37.4959 38.9806C37.6191 38.3342 37.6852 37.6684 37.6852 36.9874ZM27.088 42.1835C24.2184 42.1835 21.8919 39.857 21.8919 36.9874C21.8919 34.1179 24.2184 31.7914 27.088 31.7914C29.9575 31.7914 32.284 34.1179 32.284 36.9874C32.284 39.857 29.9575 42.1835 27.088 42.1835Z" fill="#90AAD3"/>
<path d="M74.9477 63.9266C74.4915 63.6196 73.8725 63.7405 73.5653 64.1969C73.2581 64.6533 73.3792 65.2723 73.8357 65.5793C79.0028 69.0556 82.8734 72.2344 85.0288 74.7724C87.9752 78.2414 89.4243 81.3642 82.983 92.7131C82.7114 93.1916 82.8792 93.7996 83.3575 94.0711C83.5127 94.1592 83.6816 94.201 83.8484 94.201C84.1952 94.201 84.5321 94.0195 84.7156 93.6964C87.9146 88.0601 89.4381 83.9476 89.5102 80.7538C89.5791 77.6956 88.3756 75.6354 86.5472 73.4827C84.2428 70.7695 80.3401 67.5545 74.9477 63.9266Z" fill="#3A5482"/>
<path d="M74.9563 73.8711C74.655 73.642 74.25 73.6032 73.9106 73.7713C73.5715 73.9395 73.3569 74.2853 73.3569 74.6638V93.2049C73.3569 93.6362 73.6346 94.0185 74.0446 94.152C74.1462 94.1851 74.25 94.201 74.3528 94.201C74.6652 94.201 74.967 94.0536 75.1581 93.7912C75.2969 93.6006 78.5741 89.0825 79.9019 85.675C80.6459 83.7653 80.9924 82.1489 80.9603 80.7332C80.9424 79.9355 80.8197 79.4251 79.7748 78.1948C78.7283 76.9624 77.107 75.5077 74.9563 73.8711ZM78.9689 80.7782C78.9948 81.9261 78.6928 83.2914 78.0459 84.9519C77.4298 86.5333 76.3149 88.4366 75.3493 89.9515V76.7217C76.5978 77.7531 77.572 78.6787 78.2567 79.4847C78.9584 80.3109 78.9614 80.4475 78.9689 80.7782Z" fill="#3A5482"/>
<path d="M89.3344 58.4666H77.6636C77.1135 58.4666 76.6675 58.9126 76.6675 59.4626C76.6675 60.0127 77.1135 60.4587 77.6636 60.4587H89.3344C89.8845 60.4587 90.3305 60.0127 90.3305 59.4626C90.3305 58.9126 89.8847 58.4666 89.3344 58.4666Z" fill="#3A5482"/>
<path d="M76.6675 55.4021C76.6675 55.9521 77.1135 56.3982 77.6636 56.3982H84.296C84.846 56.3982 85.2921 55.9521 85.2921 55.4021C85.2921 54.8521 84.846 54.406 84.296 54.406H77.6636C77.1135 54.406 76.6675 54.8521 76.6675 55.4021Z" fill="#3A5482"/>
<path d="M77.6636 52.3608C78.2136 52.3608 78.6597 51.9147 78.6597 51.3647V51.3418C78.6597 50.7918 78.2136 50.3457 77.6636 50.3457C77.1135 50.3457 76.6675 50.7918 76.6675 51.3418V51.3647C76.6675 51.9147 77.1135 52.3608 77.6636 52.3608Z" fill="#3A5482"/>
<path d="M79.9219 51.3415V51.3645C79.9219 51.9145 80.3679 52.3606 80.918 52.3606C81.468 52.3606 81.9141 51.9145 81.9141 51.3645V51.3415C81.9141 50.7915 81.468 50.3455 80.918 50.3455C80.3679 50.3455 79.9219 50.7915 79.9219 51.3415Z" fill="#3A5482"/>
<path d="M78.6297 38.1087C79.6158 36.1783 80.6199 33.3673 80.6199 29.9228C80.6199 22.3366 78.2611 17.8542 76.8566 15.858C76.0837 14.7543 74.6334 14.3379 73.4102 14.8659C71.6351 15.6309 69.4696 15.2344 66.9614 14.7722C65.6605 14.5332 64.3278 14.2901 62.9253 14.1786C62.3256 12.7163 61.5068 11.3576 60.4829 10.1364C59.9828 9.53877 59.1381 9.34553 58.4329 9.66228L55.7355 10.8636C54.9107 10.2261 54.0142 9.7081 53.056 9.31564L52.7492 6.37916C52.6675 5.60619 52.0758 4.97268 51.3128 4.8392C49.5697 4.53439 47.7388 4.53439 45.9917 4.8392C45.2287 4.97268 44.637 5.60619 44.5553 6.38115L44.2465 9.31564C43.2883 9.7081 42.3918 10.2261 41.569 10.8636L38.8736 9.66428C38.1644 9.34553 37.3197 9.54076 36.8216 10.1364C35.6682 11.511 34.7717 13.061 34.1581 14.7424C33.8891 15.4695 34.1422 16.2983 34.7717 16.7585L37.1623 18.4937C37.0926 19.0056 37.0587 19.5236 37.0587 20.0396C37.0587 20.5556 37.0926 21.0735 37.1623 21.5855L34.7717 23.3227C34.1422 23.7809 33.8891 24.6097 34.1561 25.3368C34.4151 26.044 34.7298 26.7353 35.0924 27.4007L34.172 27.8111C33.3493 27.1756 32.4508 26.6556 31.4925 26.2632L31.1857 23.3287C31.1041 22.5537 30.5144 21.9202 29.7474 21.7867C28.0042 21.4839 26.1714 21.4839 24.4282 21.7867C23.6632 21.9202 23.0716 22.5537 22.9919 23.3287L22.6831 26.2632C21.7249 26.6556 20.8264 27.1756 20.0056 27.8111L17.3102 26.6098C16.6009 26.2931 15.7563 26.4883 15.2582 27.082C14.1047 28.4586 13.2082 30.0085 12.5927 31.6899C12.3257 32.419 12.5787 33.2478 13.2082 33.704L15.5989 35.4412C15.5291 35.9532 15.4953 36.4731 15.4953 36.9871C15.4953 37.5011 15.5291 38.0191 15.5989 38.5351L13.2102 40.2683C12.5787 40.7245 12.3257 41.5532 12.5927 42.2844C13.2082 43.9658 14.1047 45.5157 15.2582 46.8923C15.7563 47.486 16.6009 47.6812 17.3102 47.3644L20.0056 46.1631C20.8264 46.7986 21.7229 47.3186 22.6831 47.7131L22.9919 50.6456C23.0716 51.4205 23.6632 52.054 24.4302 52.1875C25.3048 52.3389 26.1993 52.4166 27.0878 52.4166C27.9763 52.4166 28.8708 52.3389 29.7474 52.1875C30.5124 52.054 31.1041 51.4205 31.1857 50.6456L31.4925 47.7131C32.4528 47.3186 33.3493 46.7986 34.172 46.1631L36.8675 47.3644C37.5767 47.6812 38.4214 47.486 38.9194 46.8923C40.0729 45.5157 40.9674 43.9658 41.583 42.2844C41.8499 41.5532 41.5949 40.7245 40.9674 40.2683L38.5768 38.5351C38.6465 38.0191 38.6804 37.5011 38.6804 36.9871C38.6804 36.4731 38.6465 35.9532 38.5768 35.4412L40.9674 33.704C41.5969 33.2478 41.8499 32.419 41.583 31.6899C41.322 30.9767 41.0072 30.2874 40.6466 29.626L41.569 29.2136C42.1348 29.6519 42.7365 30.0344 43.37 30.3591C43.37 30.385 43.368 30.4109 43.368 30.4368C43.368 34.1224 44.3063 36.8636 45.2207 38.6606C44.4338 39.6088 43.9616 40.8261 43.9616 42.1529C43.9616 45.179 46.422 47.6413 49.4481 47.6413C49.6513 47.6413 49.8525 47.6254 50.0518 47.6035C50.9622 51.4703 53.6297 54.5921 57.142 56.138V58.682C55.9048 58.7119 54.843 59.463 54.3609 60.5308C52.4125 61.756 50.5757 63.2462 48.8903 64.9694H45.3721V64.6148C45.3721 63.2999 44.5952 62.1684 43.4795 61.6424V59.1861C43.4795 57.5385 42.1388 56.1978 40.4913 56.1978H26.3906C24.743 56.1978 23.4023 57.5385 23.4023 59.1861V61.6424C22.2866 62.1684 21.5097 63.3019 21.5097 64.6148V64.9694H17.2265C15.579 64.9694 14.2382 66.3101 14.2382 67.9577V91.2125C14.2382 92.86 15.579 94.2008 17.2265 94.2008H23.5517C24.1015 94.2008 24.5478 93.7545 24.5478 93.2047C24.5478 92.6548 24.1015 92.2086 23.5517 92.2086H17.2265C16.6766 92.2086 16.2304 91.7623 16.2304 91.2125V76.7512C17.3321 77.7672 18.8003 78.3888 20.414 78.3888H29.533V79.239C29.533 80.777 30.7841 82.0281 32.3221 82.0281H34.5589C36.0969 82.0281 37.348 80.777 37.348 79.239V78.3888H46.4678C48.0795 78.3888 49.5497 77.7672 50.6514 76.7512V91.2125C50.6514 91.7623 50.2032 92.2086 49.6553 92.2086H29.4346C28.8848 92.2086 28.4385 92.6548 28.4385 93.2047C28.4385 93.7545 28.8848 94.2008 29.4346 94.2008H49.6553C51.3029 94.2008 52.6436 92.86 52.6436 91.2125V67.9577C52.6436 66.8998 52.0898 65.9715 51.259 65.4396C52.1615 64.5949 53.1038 63.8179 54.082 63.1167V66.4815C54.082 67.2126 54.4565 67.874 55.082 68.2505C55.4127 68.4497 55.7793 68.5513 56.1479 68.5513C56.4786 68.5513 56.8073 68.4697 57.1121 68.3103L61.1921 66.1627V93.2066H63.1843V66.1627L67.2623 68.3103C67.5671 68.4697 67.8958 68.5513 68.2265 68.5513C68.595 68.5513 68.9636 68.4497 69.2923 68.2505C69.9179 67.874 70.2924 67.2126 70.2924 66.4815V61.8158C70.2924 60.1124 68.9258 58.7239 67.2324 58.682V56.14C70.7446 54.5921 73.4122 51.4703 74.3226 47.6035C74.5238 47.6254 74.723 47.6413 74.9262 47.6413C77.9523 47.6413 80.4127 45.179 80.4127 42.1529C80.4127 40.5531 79.7254 39.1128 78.6297 38.1087ZM43.3799 64.6148V64.9694H40.7901V64.6148C40.7901 63.9016 41.3718 63.3199 42.085 63.3199C42.7982 63.3199 43.3799 63.9016 43.3799 64.6148ZM25.3945 59.1861C25.3945 58.6362 25.8407 58.19 26.3906 58.19H40.4913C41.0391 58.19 41.4873 58.6362 41.4873 59.1861V61.3854C39.9593 61.6683 38.7979 63.0071 38.7979 64.6148V64.9694H28.0839V64.6148C28.0839 63.0071 26.9225 61.6663 25.3945 61.3854V59.1861ZM23.5019 64.6148C23.5019 63.9016 24.0836 63.3199 24.7968 63.3199C25.51 63.3199 26.0917 63.9016 26.0917 64.6148V64.9694H23.5019V64.6148ZM35.3558 79.239C35.3558 79.6785 34.9984 80.0359 34.5589 80.0359H32.3221C31.8826 80.0359 31.5252 79.6785 31.5252 79.239L31.5198 74.7512L35.3558 74.7458V79.239ZM50.6514 72.213C50.6514 74.5199 48.7748 76.3966 46.4678 76.3966H37.348V74.7457C37.348 73.6501 36.4567 72.7588 35.3612 72.7588H31.5196C30.4241 72.7588 29.5328 73.6501 29.5328 74.7457V76.3966H20.414C18.107 76.3966 16.2304 74.5199 16.2304 72.213V67.9577C16.2304 67.4078 16.6766 66.9616 17.2265 66.9616H49.6553C50.2032 66.9616 50.6514 67.4078 50.6514 67.9577V72.213ZM36.9113 34.1881C36.5985 34.4152 36.4451 34.8017 36.5168 35.1822C36.6304 35.7779 36.6882 36.3855 36.6882 36.9871C36.6882 37.5888 36.6304 38.1964 36.5168 38.794C36.4451 39.1726 36.5985 39.559 36.9113 39.7862L39.6466 41.7724C39.1366 43.1131 38.4194 44.3542 37.509 45.4699L34.4211 44.0933C34.0684 43.9359 33.6561 43.9976 33.3652 44.2486C32.4408 45.0495 31.389 45.6571 30.2375 46.0576C29.8729 46.1851 29.6159 46.5118 29.5741 46.8943L29.2234 50.2551C27.813 50.4802 26.3647 50.4802 24.9522 50.2551L24.6016 46.8943C24.5597 46.5098 24.3027 46.1851 23.9382 46.0576C22.7867 45.6571 21.7348 45.0495 20.8124 44.2506C20.5216 43.9956 20.1072 43.9359 19.7546 44.0933L16.6667 45.4699C15.7582 44.3562 15.0391 43.1131 14.5291 41.7724L17.2643 39.7862C17.5771 39.559 17.7305 39.1726 17.6588 38.794C17.5452 38.1964 17.4875 37.5888 17.4875 36.9871C17.4875 36.3855 17.5452 35.7779 17.6588 35.1822C17.7305 34.8017 17.5771 34.4152 17.2643 34.1881L14.5291 32.2019C15.0391 30.8612 15.7582 29.618 16.6667 28.5044L19.7546 29.881C20.1092 30.0384 20.5196 29.9766 20.8124 29.7236C21.7368 28.9247 22.7867 28.3171 23.9382 27.9167C24.3027 27.7912 24.5597 27.4645 24.6016 27.08L24.9522 23.7192C26.3567 23.496 27.8209 23.496 29.2234 23.7192L29.5741 27.08C29.6159 27.4645 29.8729 27.7892 30.2375 27.9167C31.387 28.3171 32.4388 28.9247 33.3652 29.7236C33.6581 29.9766 34.0684 30.0384 34.4211 29.881L37.509 28.5044C38.4174 29.62 39.1366 30.8612 39.6466 32.2019L36.9113 34.1881ZM43.629 28.2195C43.1887 27.9486 42.7703 27.6418 42.3779 27.3011C42.085 27.0481 41.6726 26.9863 41.318 27.1437L39.5709 27.9227C39.3637 27.6378 39.1485 27.3569 38.9194 27.084C38.4333 26.5022 37.6185 26.305 36.9213 26.5879C36.6025 26.0201 36.3236 25.4304 36.0925 24.8248L38.8298 22.8386C39.1425 22.6115 39.294 22.223 39.2222 21.8445C39.1087 21.2488 39.0509 20.6432 39.0509 20.0396C39.0509 19.434 39.1087 18.8283 39.2222 18.2347C39.2959 17.8562 39.1425 17.4677 38.8298 17.2406L36.0925 15.2544C36.6025 13.9136 37.3217 12.6725 38.2301 11.5569L41.32 12.9335C41.6726 13.0908 42.083 13.0291 42.3759 12.7761C43.3022 11.9752 44.3521 11.3676 45.4996 10.9692C45.8642 10.8437 46.1232 10.5169 46.163 10.1324L46.5176 6.77162C47.9221 6.5465 49.3844 6.5465 50.7869 6.77162L51.1395 10.1324C51.1793 10.5169 51.4383 10.8437 51.8029 10.9692C52.9484 11.3676 54.0003 11.9752 54.9286 12.7781C55.2215 13.0291 55.6319 13.0888 55.9845 12.9335L59.0744 11.5569C59.7218 12.3537 60.2697 13.2163 60.7199 14.1328C57.5324 14.2463 55.1757 15.091 53.4624 16.1488C52.297 14.7105 50.5359 13.8479 48.6513 13.8479C45.2366 13.8479 42.4595 16.625 42.4595 20.0396C42.4595 22.0935 43.4636 23.9682 45.0972 25.1097C44.4697 25.9524 43.9298 26.9824 43.629 28.2195ZM44.4517 20.0396C44.4517 17.7247 46.3363 15.8401 48.6513 15.8401C49.9024 15.8401 51.0718 16.3979 51.8627 17.3362C51.4961 17.6629 51.1754 17.9916 50.8965 18.3084C49.5796 19.8165 48.974 21.3345 48.7309 22.1015C48.217 22.3585 47.3543 22.8506 46.4698 23.6295C45.2267 22.8765 44.4517 21.5278 44.4517 20.0396ZM49.4481 45.6492C47.5217 45.6492 45.9538 44.0813 45.9538 42.1529C45.9538 40.3619 47.3085 38.8837 49.0457 38.6845C49.0557 38.9096 49.0716 39.1347 49.0955 39.3598L49.743 45.6352C49.6454 45.6452 49.5457 45.6492 49.4481 45.6492ZM56.1837 66.5472C56.1718 66.5552 56.1479 66.5671 56.11 66.5452C56.0741 66.5233 56.0741 66.4954 56.0741 66.4815V61.8158C56.0741 61.1842 56.5881 60.6703 57.2197 60.6703H57.6739L60.6323 64.2044L56.1837 66.5472ZM62.1882 62.9593L59.1341 59.3116V56.8194C60.1123 57.0644 61.1363 57.1959 62.1882 57.1959C63.24 57.1959 64.262 57.0644 65.2402 56.8194V59.3116L62.1882 62.9593ZM68.3002 61.8158V66.4815C68.3002 66.4954 68.3002 66.5233 68.2643 66.5452C68.2285 66.5671 68.2026 66.5552 68.1906 66.5472L63.7421 64.2044L66.7005 60.6703H67.1547C67.7862 60.6703 68.3002 61.1842 68.3002 61.8158ZM73.2986 39.1566L72.6153 45.7946C72.0615 51.1576 67.579 55.2037 62.1882 55.2037C56.7953 55.2037 52.3129 51.1576 51.7611 45.7946L51.0757 39.1566C50.8486 36.9313 51.2969 34.6921 52.3428 32.7378C55.1637 34.9451 58.395 35.5547 61.1024 35.5547C63.5827 35.5547 65.6227 35.0447 66.5112 34.7798C67.7802 35.5388 69.2226 36.0129 70.7347 36.1225C71.5435 36.1823 72.3762 36.2241 73.2189 36.252C73.3086 36.8238 73.3584 37.4075 73.3584 37.9952C73.3584 38.3777 73.3384 38.7681 73.2986 39.1566ZM74.9262 45.6492C74.8286 45.6492 74.731 45.6452 74.6334 45.6372L75.2788 39.3598C75.3027 39.1347 75.3207 38.9096 75.3326 38.6845C77.0678 38.8857 78.4205 40.3639 78.4205 42.1529C78.4205 44.0813 76.8527 45.6492 74.9262 45.6492ZM76.9324 37.0469C76.4144 36.8437 75.8606 36.7162 75.2808 36.6783C75.2609 36.4751 75.235 36.2719 75.2051 36.0707C75.4362 35.8914 75.5876 35.6145 75.5916 35.2997C75.5996 34.7499 75.1593 34.2977 74.6075 34.2917C73.3384 34.2758 72.0854 34.224 70.8801 34.1363C68.1946 33.9391 65.7781 32.3075 64.5708 29.879C64.3258 29.3849 63.7281 29.1837 63.2361 29.4288C62.742 29.6738 62.5408 30.2715 62.7858 30.7655C63.2381 31.674 63.8277 32.4928 64.519 33.204C61.6323 33.7578 55.8769 34.1423 52.0001 29.6698C51.6395 29.2535 51.012 29.2076 50.5956 29.5682C50.1793 29.9288 50.1354 30.5583 50.496 30.9747C50.6076 31.1022 50.7211 31.2277 50.8347 31.3512C49.8784 32.9828 49.2888 34.8037 49.0975 36.6783C48.2668 36.7321 47.4878 36.9692 46.7965 37.3517C46.0594 35.7699 45.3602 33.4709 45.3602 30.4368C45.3602 25.6277 49.749 23.8148 49.9322 23.7411C50.243 23.6195 50.4721 23.3466 50.5418 23.0199C50.6036 22.737 52.1376 16.111 61.4471 16.111C63.2201 16.111 64.9394 16.4278 66.6029 16.7326C69.3102 17.2306 71.8702 17.7008 74.1991 16.6947C74.5597 16.5393 74.992 16.6688 75.227 17.0035C76.498 18.8064 78.6277 22.8844 78.6277 29.9228C78.6277 32.8932 77.785 35.3356 76.9324 37.0469Z" fill="#3A5482"/>
<path d="M62.187 73.6677C62.7371 73.6677 63.1831 73.2218 63.1831 72.6716C63.1831 72.1215 62.7371 71.6755 62.187 71.6755C61.6369 71.6755 61.1909 72.1215 61.1909 72.6716C61.1909 73.2218 61.6369 73.6677 62.187 73.6677Z" fill="white"/>
<path d="M62.187 81.5771C62.7371 81.5771 63.1831 81.1312 63.1831 80.5811C63.1831 80.0309 62.7371 79.585 62.187 79.585C61.6369 79.585 61.1909 80.0309 61.1909 80.5811C61.1909 81.1312 61.6369 81.5771 62.187 81.5771Z" fill="white"/>
<path d="M62.187 89.4867C62.7371 89.4867 63.1831 89.0407 63.1831 88.4906C63.1831 87.9405 62.7371 87.4945 62.187 87.4945C61.6369 87.4945 61.1909 87.9405 61.1909 88.4906C61.1909 89.0407 61.6369 89.4867 62.187 89.4867Z" fill="white"/>
<path d="M27.0876 30.7952C23.6732 30.7952 20.8955 33.5729 20.8955 36.9875C20.8955 40.4019 23.6732 43.1796 27.0876 43.1796C30.502 43.1796 33.2799 40.4019 33.2799 36.9875C33.2797 33.5729 30.502 30.7952 27.0876 30.7952ZM27.0876 41.1872C24.7717 41.1872 22.8877 39.303 22.8877 36.9873C22.8877 34.6714 24.7719 32.7872 27.0876 32.7872C29.4035 32.7872 31.2878 34.6714 31.2878 36.9873C31.2876 39.3032 29.4035 41.1872 27.0876 41.1872Z" fill="#3A5482"/>
<path d="M13.4828 58.3807C12.9328 58.3807 12.4867 57.9347 12.4867 57.3846C12.4867 56.689 11.9208 56.123 11.2251 56.123C10.6751 56.123 10.229 55.6769 10.229 55.1269C10.229 54.5768 10.6751 54.1308 11.2251 54.1308C11.9208 54.1308 12.4867 53.5648 12.4867 52.8691C12.4867 52.3191 12.9328 51.873 13.4828 51.873C14.0329 51.873 14.4789 52.3191 14.4789 52.8691C14.4789 53.5648 15.0449 54.1308 15.7406 54.1308C16.2906 54.1308 16.7367 54.5768 16.7367 55.1269C16.7367 55.6769 16.2906 56.123 15.7406 56.123C15.0449 56.123 14.4789 56.689 14.4789 57.3846C14.4789 57.9347 14.0329 58.3807 13.4828 58.3807Z" fill="#90AAD3"/>
<path d="M87.7407 29.546C87.1906 29.546 86.7446 29.1 86.7446 28.5499C86.7446 27.8542 86.1786 27.2883 85.4829 27.2883C84.9329 27.2883 84.4868 26.8422 84.4868 26.2922C84.4868 25.7421 84.9329 25.2961 85.4829 25.2961C86.1786 25.2961 86.7446 24.7301 86.7446 24.0344C86.7446 23.4844 87.1906 23.0383 87.7407 23.0383C88.2907 23.0383 88.7368 23.4844 88.7368 24.0344C88.7368 24.7301 89.3027 25.2961 89.9984 25.2961C90.5484 25.2961 90.9945 25.7421 90.9945 26.2922C90.9945 26.8422 90.5484 27.2883 89.9984 27.2883C89.3027 27.2883 88.7368 27.8542 88.7368 28.5499C88.7368 29.1 88.2909 29.546 87.7407 29.546Z" fill="#90AAD3"/>
<path d="M17.9985 20.6271C17.4484 20.6271 17.0024 20.181 17.0024 19.631C17.0024 18.9353 16.4364 18.3693 15.7407 18.3693C15.1907 18.3693 14.7446 17.9233 14.7446 17.3732C14.7446 16.8232 15.1907 16.3771 15.7407 16.3771C16.4364 16.3771 17.0024 15.8112 17.0024 15.1155C17.0024 14.5654 17.4484 14.1194 17.9985 14.1194C18.5485 14.1194 18.9946 14.5654 18.9946 15.1155C18.9946 15.8112 19.5605 16.3771 20.2562 16.3771C20.8063 16.3771 21.2523 16.8232 21.2523 17.3732C21.2523 17.9233 20.8063 18.3693 20.2562 18.3693C19.5605 18.3693 18.9946 18.9353 18.9946 19.631C18.9946 20.181 18.5485 20.6271 17.9985 20.6271Z" fill="#90AAD3"/>
<path d="M91.8999 70.6468C91.6449 70.6468 91.3901 70.5496 91.1954 70.3551L90.1069 69.2666L89.0184 70.3551C88.6293 70.744 87.9988 70.744 87.6097 70.3551C87.2206 69.966 87.2206 69.3353 87.6097 68.9464L89.4026 67.1535C89.7917 66.7646 90.4223 66.7646 90.8113 67.1535L92.6043 68.9464C92.9934 69.3355 92.9934 69.9662 92.6043 70.3551C92.4097 70.5494 92.1549 70.6468 91.8999 70.6468Z" fill="#90AAD3"/>
<path d="M69.4277 9.44804C69.1727 9.44804 68.9179 9.35082 68.7232 9.15639L67.6347 8.06786L66.5462 9.15639C66.1571 9.54526 65.5266 9.54526 65.1375 9.15639C64.7484 8.76731 64.7484 8.13659 65.1375 7.74771L66.9305 5.95474C67.3196 5.56587 67.9501 5.56587 68.3392 5.95474L70.1321 7.74771C70.5212 8.13679 70.5212 8.76751 70.1321 9.15639C69.9377 9.35082 69.6827 9.44804 69.4277 9.44804Z" fill="#90AAD3"/>
</g>
<defs>
<linearGradient id="paint0_linear_485_9653" x1="-0.703319" y1="80.1008" x2="85.4761" y2="-6.07865" gradientUnits="userSpaceOnUse">
<stop stop-color="#D1DDFF" stop-opacity="0"/>
<stop offset="1" stop-color="#D9DDEE"/>
</linearGradient>
<clipPath id="clip0_485_9653">
<rect width="102" height="102" fill="white"/>
</clipPath>
</defs>
</svg>
