<svg width="108" height="102" viewBox="0 0 108 102" fill="none" xmlns="http://www.w3.org/2000/svg">
<g clip-path="url(#clip0_550_8537)">
<path d="M104.404 35.6572C114.926 11.3356 80.1984 -11.5339 58.4213 6.43479C48.522 14.603 5.68245 5.06138 1.98493 19.4561C-0.433894 28.8722 11.2265 35.3307 14.3872 43.7198C18.1929 53.8204 12.8436 65.037 14.5773 75.6324C18.4408 99.2434 48.569 105.565 70.3892 100.233C92.8984 94.7331 81.9075 81.2906 83.1756 66.4783C84.2347 54.1082 99.4334 47.1455 104.404 35.6572Z" fill="url(#paint0_linear_550_8537)"/>
<path d="M6.16406 31.9844H4.05469C3.47229 31.9844 3 31.5383 3 30.9883V28.9961C3 28.4461 3.47229 28 4.05469 28H6.16406C6.74646 28 7.21875 28.4461 7.21875 28.9961V30.9883C7.21875 31.5383 6.74667 31.9844 6.16406 31.9844Z" stroke="#90AAD3" stroke-width="2" stroke-miterlimit="10" stroke-linecap="round" stroke-linejoin="round"/>
<path d="M95.1641 86.9844H93.0547C92.4723 86.9844 92 86.5383 92 85.9883V83.9961C92 83.4461 92.4723 83 93.0547 83H95.1641C95.7465 83 96.2188 83.4461 96.2188 83.9961V85.9883C96.2188 86.5385 95.7467 86.9844 95.1641 86.9844Z" stroke="#90AAD3" stroke-width="2" stroke-miterlimit="10" stroke-linecap="round" stroke-linejoin="round"/>
<path d="M96 13.9914H96.421M96.421 13.9914C97.353 13.9914 98.1085 13.2778 98.1085 12.3976M96.421 13.9914C97.353 13.9914 98.1085 14.705 98.1085 15.5851M98.1085 12.3976V12M98.1085 12.3976C98.1085 13.2778 98.8641 13.9914 99.796 13.9914M99.796 13.9914H100.217M99.796 13.9914C98.8641 13.9914 98.1085 14.705 98.1085 15.5851M98.1085 15.5851V15.9828" stroke="#90AAD3" stroke-width="2" stroke-miterlimit="10" stroke-linecap="round" stroke-linejoin="round"/>
<path d="M11 90.9914H11.421M11.421 90.9914C12.353 90.9914 13.1085 90.2778 13.1085 89.3976M11.421 90.9914C12.353 90.9914 13.1085 91.705 13.1085 92.5851M13.1085 89.3976V89M13.1085 89.3976C13.1085 90.2778 13.8641 90.9914 14.796 90.9914M14.796 90.9914H15.2171M14.796 90.9914C13.8641 90.9914 13.1085 91.705 13.1085 92.5851M13.1085 92.5851V92.9828" stroke="#90AAD3" stroke-width="2" stroke-miterlimit="10" stroke-linecap="round" stroke-linejoin="round"/>
<path d="M17 9.99139H17.421M17.421 9.99139C18.353 9.99139 19.1085 9.27779 19.1085 8.39764M17.421 9.99139C18.353 9.99139 19.1085 10.705 19.1085 11.5851M19.1085 8.39764V8M19.1085 8.39764C19.1085 9.27779 19.8641 9.99139 20.796 9.99139M20.796 9.99139H21.2171M20.796 9.99139C19.8641 9.99139 19.1085 10.705 19.1085 11.5851M19.1085 11.5851V11.9828" stroke="#90AAD3" stroke-width="2" stroke-miterlimit="10" stroke-linecap="round" stroke-linejoin="round"/>
<path d="M41.6576 94.483C38.2456 94.4998 34.9687 93.1317 32.5702 90.7162L14.7669 72.9129C12.3514 70.5144 10.9833 67.2375 11.0002 63.8255V38.6576C10.9833 35.2456 12.3514 31.9687 14.7669 29.5702L32.5702 11.7669C34.9687 9.35145 38.2456 7.98326 41.6576 8.00015H66.8424C70.2544 7.98326 73.5144 9.35145 75.9298 11.7669L93.7331 29.5702C96.1486 31.9687 97.4998 35.2456 97.4998 38.6576V63.8424C97.5167 67.2544 96.1486 70.5144 93.7331 72.9298L75.9129 90.7162C73.5144 93.1317 70.2375 94.483 66.8255 94.483H41.6576Z" fill="#3A5482"/>
<path d="M66.8257 9.68945H41.6578C38.7019 9.68945 35.8641 10.8718 33.7696 12.9663L15.9663 30.7696C13.8718 32.8473 12.6895 35.685 12.6895 38.6578V63.8426C12.6895 66.7985 13.8718 69.6362 15.9663 71.7307L33.7696 89.534C35.8641 91.6285 38.7019 92.8109 41.6578 92.8109H66.8426C69.7985 92.8109 72.6362 91.6285 74.7307 89.534L92.534 71.7307C94.6285 69.6362 95.8109 66.7985 95.8109 63.8426V38.6578C95.8109 35.7019 94.6285 32.8641 92.534 30.7696L74.7138 12.9663C72.6362 10.8718 69.7985 9.68945 66.8257 9.68945Z" fill="white"/>
<path d="M62.8566 67.3731C61.7418 67.3731 60.6776 66.934 59.8837 66.1401L54.2421 60.4984L48.6004 66.1401C46.962 67.7785 44.2932 67.7785 42.6547 66.1401L39.3441 62.8294C37.7056 61.191 37.7056 58.5391 39.3441 56.8837L44.9857 51.2421L39.3441 45.6004C37.7056 43.962 37.7056 41.3101 39.3441 39.6547L42.6547 36.3441C44.2932 34.7056 46.962 34.7056 48.6004 36.3441L54.2421 41.9857L59.8837 36.3441C61.5222 34.7056 64.191 34.7056 65.8294 36.3441L69.1401 39.6547C70.7785 41.2932 70.7785 43.962 69.1401 45.6004L63.4984 51.2421L69.1401 56.8837C70.7785 58.5222 70.7785 61.1741 69.1401 62.8294L65.8294 66.1401C65.0355 66.934 63.9714 67.3731 62.8566 67.3731Z" fill="#3A5482"/>
<path d="M61.1161 51.2411L67.9571 44.4002C68.9367 43.4205 68.9367 41.8327 67.9571 40.8531L64.6464 37.5424C63.6667 36.5627 62.0789 36.5627 61.0992 37.5424L54.2414 44.3664L47.4005 37.5424C46.4208 36.5627 44.833 36.5627 43.8533 37.5424L40.5427 40.8531C39.563 41.8327 39.563 43.4205 40.5427 44.4002L47.3667 51.2411L40.5258 58.0821C39.5461 59.0617 39.5461 60.6495 40.5258 61.6292L43.8365 64.9399C44.8161 65.9196 46.4039 65.9196 47.3836 64.9399L54.2245 58.1158L61.0654 64.9568C62.0451 65.9364 63.6329 65.9364 64.6126 64.9568L67.9233 61.6461C68.903 60.6664 68.903 59.0786 67.9233 58.0989L61.1161 51.2411Z" fill="#90AAD3"/>
</g>
<defs>
<linearGradient id="paint0_linear_550_8537" x1="13.9035" y1="82.7125" x2="90.5106" y2="1.59904" gradientUnits="userSpaceOnUse">
<stop stop-color="#CFDBFF" stop-opacity="0"/>
<stop offset="1" stop-color="#D9DDEE"/>
</linearGradient>
<clipPath id="clip0_550_8537">
<rect width="108" height="102" fill="white"/>
</clipPath>
</defs>
</svg>
