<svg width="108" height="102" viewBox="0 0 108 102" fill="none" xmlns="http://www.w3.org/2000/svg">
<g clip-path="url(#clip0_550_8632)">
<path d="M104.404 35.6572C114.926 11.3356 80.1984 -11.5339 58.4213 6.43479C48.522 14.603 5.68245 5.06138 1.98493 19.4561C-0.433894 28.8722 11.2265 35.3307 14.3872 43.7198C18.1929 53.8204 12.8436 65.037 14.5773 75.6324C18.4408 99.2434 48.569 105.565 70.3892 100.233C92.8984 94.7331 81.9075 81.2906 83.1756 66.4783C84.2347 54.1082 99.4334 47.1455 104.404 35.6572Z" fill="url(#paint0_linear_550_8632)"/>
<path d="M6.16406 31.9844H4.05469C3.47229 31.9844 3 31.5383 3 30.9883V28.9961C3 28.4461 3.47229 28 4.05469 28H6.16406C6.74646 28 7.21875 28.4461 7.21875 28.9961V30.9883C7.21875 31.5383 6.74667 31.9844 6.16406 31.9844Z" stroke="#90AAD3" stroke-width="2" stroke-miterlimit="10" stroke-linecap="round" stroke-linejoin="round"/>
<path d="M99.1641 47.9844H97.0547C96.4723 47.9844 96 47.5383 96 46.9883V44.9961C96 44.4461 96.4723 44 97.0547 44H99.1641C99.7465 44 100.219 44.4461 100.219 44.9961V46.9883C100.219 47.5385 99.7467 47.9844 99.1641 47.9844Z" stroke="#90AAD3" stroke-width="2" stroke-miterlimit="10" stroke-linecap="round" stroke-linejoin="round"/>
<path d="M96 13.9914H96.421M96.421 13.9914C97.353 13.9914 98.1085 13.2778 98.1085 12.3976M96.421 13.9914C97.353 13.9914 98.1085 14.705 98.1085 15.5851M98.1085 12.3976V12M98.1085 12.3976C98.1085 13.2778 98.8641 13.9914 99.796 13.9914M99.796 13.9914H100.217M99.796 13.9914C98.8641 13.9914 98.1085 14.705 98.1085 15.5851M98.1085 15.5851V15.9828" stroke="#90AAD3" stroke-width="2" stroke-miterlimit="10" stroke-linecap="round" stroke-linejoin="round"/>
<path d="M8 57.9914H8.42103M8.42103 57.9914C9.35295 57.9914 10.1085 57.2778 10.1085 56.3976M8.42103 57.9914C9.35295 57.9914 10.1085 58.705 10.1085 59.5851M10.1085 56.3976V56M10.1085 56.3976C10.1085 57.2778 10.8641 57.9914 11.796 57.9914M11.796 57.9914H12.2171M11.796 57.9914C10.8641 57.9914 10.1085 58.705 10.1085 59.5851M10.1085 59.5851V59.9828" stroke="#90AAD3" stroke-width="2" stroke-miterlimit="10" stroke-linecap="round" stroke-linejoin="round"/>
<path d="M26 17.9914H26.421M26.421 17.9914C27.353 17.9914 28.1085 17.2778 28.1085 16.3976M26.421 17.9914C27.353 17.9914 28.1085 18.705 28.1085 19.5851M28.1085 16.3976V16M28.1085 16.3976C28.1085 17.2778 28.8641 17.9914 29.796 17.9914M29.796 17.9914H30.2171M29.796 17.9914C28.8641 17.9914 28.1085 18.705 28.1085 19.5851M28.1085 19.5851V19.9828" stroke="#90AAD3" stroke-width="2" stroke-miterlimit="10" stroke-linecap="round" stroke-linejoin="round"/>
<path d="M13.7988 92.281C10.8628 92.281 8.20908 90.8318 6.87282 88.4981C5.70594 86.5219 5.70594 84.0564 6.89164 82.0991L47.2806 12.7453C48.6168 10.4304 51.2705 9 54.1877 9C57.1049 9 59.7586 10.4304 61.0949 12.7453L101.484 82.1179C102.669 84.0752 102.669 86.5407 101.503 88.5169C100.166 90.8506 97.5126 92.2998 94.5766 92.2998L13.7988 92.281Z" fill="#3A5482"/>
<path d="M94.5766 90.3992H13.7987C9.41353 90.3992 6.55281 86.4281 8.51015 83.0592L48.9179 13.7055C51.0823 9.96016 57.293 9.96016 59.4762 13.7055L99.8652 83.078C101.823 86.4469 98.9618 90.3992 94.5766 90.3992Z" fill="white"/>
<path d="M60.1162 34.615V60.5685C60.1162 62.5447 58.5164 64.1444 56.5403 64.1444H51.4587C49.4826 64.1444 47.8828 62.5447 47.8828 60.5685V34.615C47.8828 32.6388 49.4826 31.0391 51.4587 31.0391H56.5403C58.5164 31.0579 60.1162 32.6388 60.1162 34.615Z" fill="#3A5482"/>
<path d="M56.5401 62.2433H51.4585C50.5363 62.2433 49.7646 61.4905 49.7646 60.5495V34.6147C49.7646 33.6925 50.5175 32.9209 51.4585 32.9209H56.5401C57.4623 32.9209 58.2339 33.6737 58.2339 34.6147V60.5683C58.2339 61.4905 57.4811 62.2433 56.5401 62.2433Z" fill="#90AAD3"/>
<path d="M56.6213 77.7209C60.0789 76.2877 61.72 72.323 60.2868 68.8654C58.8537 65.4079 54.8889 63.7668 51.4314 65.1999C47.9738 66.6331 46.3327 70.5978 47.7659 74.0554C49.199 77.513 53.1638 79.1541 56.6213 77.7209Z" fill="#3A5482"/>
<path d="M53.9998 76.359C56.7023 76.359 58.8931 74.1681 58.8931 71.4656C58.8931 68.7631 56.7023 66.5723 53.9998 66.5723C51.2973 66.5723 49.1064 68.7631 49.1064 71.4656C49.1064 74.1681 51.2973 76.359 53.9998 76.359Z" fill="#90AAD3"/>
<path d="M53.9993 66.5723V76.359C51.3079 76.4719 49.0118 74.3828 48.8989 71.6915C48.786 69.0001 50.8751 66.704 53.5664 66.5911C53.717 66.5723 53.8675 66.5723 53.9993 66.5723Z" fill="#90AAD3"/>
<path d="M49.7842 60.5683V34.6147C49.7842 33.6737 50.537 32.9209 51.478 32.9209H54V62.2433H51.4592C50.537 62.2433 49.7842 61.4905 49.7842 60.5683Z" fill="#90AAD3"/>
</g>
<defs>
<linearGradient id="paint0_linear_550_8632" x1="13.9035" y1="82.7125" x2="90.5106" y2="1.59904" gradientUnits="userSpaceOnUse">
<stop stop-color="#CFDBFF" stop-opacity="0"/>
<stop offset="1" stop-color="#D9DDEE"/>
</linearGradient>
<clipPath id="clip0_550_8632">
<rect width="108" height="102" fill="white"/>
</clipPath>
</defs>
</svg>
