<svg width="108" height="102" viewBox="0 0 108 102" fill="none" xmlns="http://www.w3.org/2000/svg">
<g clip-path="url(#clip0_550_8327)">
<path d="M104.404 35.6572C114.926 11.3356 80.1984 -11.5339 58.4213 6.43479C48.522 14.603 5.68245 5.06138 1.98493 19.4561C-0.433894 28.8722 11.2265 35.3307 14.3872 43.7198C18.1929 53.8204 12.8436 65.037 14.5773 75.6324C18.4408 99.2434 48.569 105.565 70.3892 100.233C92.8984 94.7331 81.9075 81.2906 83.1756 66.4783C84.2347 54.1082 99.4334 47.1455 104.404 35.6572Z" fill="url(#paint0_linear_550_8327)"/>
<path d="M13.1641 66.9844H11.0547C10.4723 66.9844 10 66.5383 10 65.9883V63.9961C10 63.4461 10.4723 63 11.0547 63H13.1641C13.7465 63 14.2188 63.4461 14.2188 63.9961V65.9883C14.2188 66.5383 13.7467 66.9844 13.1641 66.9844Z" stroke="#90AAD3" stroke-width="2" stroke-miterlimit="10" stroke-linecap="round" stroke-linejoin="round"/>
<path d="M86.7891 13.6201H84.6797C84.0973 13.6201 83.625 13.1741 83.625 12.624V10.6318C83.625 10.0818 84.0973 9.63574 84.6797 9.63574H86.7891C87.3715 9.63574 87.8438 10.0818 87.8438 10.6318V12.624C87.8438 13.1743 87.3717 13.6201 86.7891 13.6201Z" stroke="#90AAD3" stroke-width="2" stroke-miterlimit="10" stroke-linecap="round" stroke-linejoin="round"/>
<path d="M22 37.9914H22.421M22.421 37.9914C23.353 37.9914 24.1085 37.2778 24.1085 36.3976M22.421 37.9914C23.353 37.9914 24.1085 38.705 24.1085 39.5851M24.1085 36.3976V36M24.1085 36.3976C24.1085 37.2778 24.8641 37.9914 25.796 37.9914M25.796 37.9914H26.2171M25.796 37.9914C24.8641 37.9914 24.1085 38.705 24.1085 39.5851M24.1085 39.5851V39.9828" stroke="#90AAD3" stroke-width="2" stroke-miterlimit="10" stroke-linecap="round" stroke-linejoin="round"/>
<path d="M32 87.9914H32.421M32.421 87.9914C33.353 87.9914 34.1085 87.2778 34.1085 86.3976M32.421 87.9914C33.353 87.9914 34.1085 88.705 34.1085 89.5851M34.1085 86.3976V86M34.1085 86.3976C34.1085 87.2778 34.8641 87.9914 35.796 87.9914M35.796 87.9914H36.2171M35.796 87.9914C34.8641 87.9914 34.1085 88.705 34.1085 89.5851M34.1085 89.5851V89.9828" stroke="#90AAD3" stroke-width="2" stroke-miterlimit="10" stroke-linecap="round" stroke-linejoin="round"/>
<path d="M97.2168 66.798H97.6378M97.6378 66.798C98.5698 66.798 99.3253 66.0844 99.3253 65.2043M97.6378 66.798C98.5698 66.798 99.3253 67.5116 99.3253 68.3918M99.3253 65.2043V64.8066M99.3253 65.2043C99.3253 66.0844 100.081 66.798 101.013 66.798M101.013 66.798H101.434M101.013 66.798C100.081 66.798 99.3253 67.5116 99.3253 68.3918M99.3253 68.3918V68.7894" stroke="#90AAD3" stroke-width="2" stroke-miterlimit="10" stroke-linecap="round" stroke-linejoin="round"/>
<path d="M53.499 102C46.3669 102 40.5697 96.2027 40.5697 89.0707C40.5697 81.9387 46.3669 76.1414 53.499 76.1414H53.738C60.8701 76.2609 66.5677 82.1578 66.4482 89.2898C66.3287 96.2625 60.7107 101.861 53.738 102C53.6583 102 53.5786 102 53.499 102ZM47.6021 71.3004C45.2115 71.3004 43.2591 69.348 43.2591 66.9574C43.2591 66.9375 43.2591 66.9176 43.2591 66.8977C43.2591 64.0687 43.4783 61.2598 43.8966 58.4508C44.2951 55.9605 44.8927 53.9086 45.6896 52.2152C47.0044 49.4062 49.156 46.5574 52.2638 43.5293C52.7619 43.0512 53.2997 42.5332 53.8775 42.0152C57.065 39.1465 59.4954 36.477 61.149 34.1063C62.4837 32.1738 63.1411 30.1816 63.1411 28.0301C63.1411 25.4801 62.3642 23.5277 60.7306 21.8941C59.1369 20.3004 56.806 19.5035 53.6384 19.4836H53.479C50.431 19.4836 48.2595 20.2207 46.8052 21.7547C44.9126 23.7668 43.5181 25.8586 42.6615 27.9504C41.765 30.1617 39.2349 31.2375 37.0236 30.341C36.9837 30.3211 36.9439 30.3012 36.904 30.2812L26.5845 25.7391C24.4728 24.8027 23.4767 22.4121 24.2736 20.2605C25.3095 17.4914 26.724 14.8816 28.4771 12.5109C30.29 10.0805 32.4017 7.90898 34.7923 6.03633C39.8326 2.03203 46.1279 0 53.499 0H53.7181C62.9818 0.0398437 70.313 2.78906 75.5126 8.12813C80.7122 13.4672 83.3818 20.0215 83.3818 27.552C83.3818 32.1738 82.3658 36.457 80.3736 40.2621C78.481 43.868 75.4927 47.6133 71.4884 51.4582C66.6673 56.0801 65.5318 58.1121 65.2728 58.7695C64.9142 59.6461 64.3165 61.8773 64.2369 67.057C64.197 69.4277 62.2646 71.3203 59.8939 71.3203H47.6021V71.3004Z" fill="#3A5482"/>
<path d="M61.2286 81.3405C59.2364 79.2886 56.527 78.153 53.6782 78.1331H53.4989C47.4626 78.1331 42.5618 83.0339 42.5618 89.0702C42.5618 95.1065 47.4626 100.007 53.4989 100.007H53.6782C59.7145 99.9077 64.5356 94.9272 64.436 88.8909C64.3962 86.0421 63.2407 83.3327 61.2286 81.3405ZM74.0981 9.52217C69.2571 4.56162 62.404 2.03154 53.6782 1.9917H53.4989C46.6059 1.9917 40.729 3.88428 36.0274 7.58975C33.7762 9.34287 31.7841 11.3948 30.0708 13.6858C28.4173 15.9171 27.1024 18.3476 26.1262 20.9573C25.688 22.1128 26.2458 23.4276 27.3614 23.9257L37.6809 28.4679C38.8563 28.9858 40.2508 28.4679 40.7688 27.2726C40.7887 27.2526 40.7887 27.2128 40.8087 27.1929C41.7649 24.862 43.2989 22.571 45.3708 20.3796C47.2235 18.4272 49.8731 17.4909 53.4989 17.4909H53.6782C57.4036 17.5308 60.1727 18.5069 62.145 20.4792C64.1571 22.4913 65.1333 24.9616 65.1333 28.0296C65.1333 30.5995 64.3762 32.9503 62.7825 35.2413C61.0493 37.7515 58.4993 40.5206 55.2122 43.489C54.6743 43.987 54.1563 44.4651 53.6583 44.9632C50.7298 47.8319 48.6977 50.5015 47.4825 53.0714C46.7653 54.5854 46.2274 56.478 45.8489 58.769C45.4505 61.4784 45.2512 64.2077 45.2512 66.937C45.2313 68.2319 46.2673 69.2878 47.5622 69.3077H47.602H59.8739C61.1489 69.3077 62.2048 68.2917 62.2247 66.9968C62.3243 61.7772 62.9219 59.2272 63.4001 58.012C63.8782 56.8167 65.4122 54.4659 70.0938 49.9835C73.9387 46.2979 76.8075 42.712 78.6005 39.3054C80.4532 35.7792 81.3895 31.8347 81.3895 27.5315C81.3895 20.5589 78.9192 14.4827 74.0981 9.52217Z" fill="#90AAD3"/>
</g>
<defs>
<linearGradient id="paint0_linear_550_8327" x1="13.9035" y1="82.7125" x2="90.5106" y2="1.59904" gradientUnits="userSpaceOnUse">
<stop stop-color="#CFDBFF" stop-opacity="0"/>
<stop offset="1" stop-color="#D9DDEE"/>
</linearGradient>
<clipPath id="clip0_550_8327">
<rect width="108" height="102" fill="white"/>
</clipPath>
</defs>
</svg>
