<svg width="108" height="102" viewBox="0 0 108 102" fill="none" xmlns="http://www.w3.org/2000/svg">
<g clip-path="url(#clip0_550_8407)">
<path d="M104.404 35.6572C114.926 11.3356 80.1984 -11.5339 58.4213 6.43479C48.522 14.603 5.68245 5.06138 1.98493 19.4561C-0.433894 28.8722 11.2265 35.3307 14.3872 43.7198C18.1929 53.8204 12.8436 65.037 14.5773 75.6324C18.4408 99.2434 48.569 105.565 70.3892 100.233C92.8984 94.7331 81.9075 81.2906 83.1756 66.4783C84.2347 54.1082 99.4334 47.1455 104.404 35.6572Z" fill="url(#paint0_linear_550_8407)"/>
<path d="M6.16406 31.9844H4.05469C3.47229 31.9844 3 31.5383 3 30.9883V28.9961C3 28.4461 3.47229 28 4.05469 28H6.16406C6.74646 28 7.21875 28.4461 7.21875 28.9961V30.9883C7.21875 31.5383 6.74667 31.9844 6.16406 31.9844Z" stroke="#90AAD3" stroke-width="2" stroke-miterlimit="10" stroke-linecap="round" stroke-linejoin="round"/>
<path d="M68.1641 8.98437H66.0547C65.4723 8.98437 65 8.53832 65 7.98828V5.99609C65 5.44605 65.4723 5 66.0547 5H68.1641C68.7465 5 69.2188 5.44605 69.2188 5.99609V7.98828C69.2188 8.53852 68.7467 8.98437 68.1641 8.98437Z" stroke="#90AAD3" stroke-width="2" stroke-miterlimit="10" stroke-linecap="round" stroke-linejoin="round"/>
<path d="M43 36.9914H43.421M43.421 36.9914C44.353 36.9914 45.1085 36.2778 45.1085 35.3976M43.421 36.9914C44.353 36.9914 45.1085 37.705 45.1085 38.5851M45.1085 35.3976V35M45.1085 35.3976C45.1085 36.2778 45.8641 36.9914 46.796 36.9914M46.796 36.9914H47.2171M46.796 36.9914C45.8641 36.9914 45.1085 37.705 45.1085 38.5851M45.1085 38.5851V38.9828" stroke="#90AAD3" stroke-width="2" stroke-miterlimit="10" stroke-linecap="round" stroke-linejoin="round"/>
<path d="M22 89.9914H22.421M22.421 89.9914C23.353 89.9914 24.1085 89.2778 24.1085 88.3976M22.421 89.9914C23.353 89.9914 24.1085 90.705 24.1085 91.5851M24.1085 88.3976V88M24.1085 88.3976C24.1085 89.2778 24.8641 89.9914 25.796 89.9914M25.796 89.9914H26.2171M25.796 89.9914C24.8641 89.9914 24.1085 90.705 24.1085 91.5851M24.1085 91.5851V91.9828" stroke="#90AAD3" stroke-width="2" stroke-miterlimit="10" stroke-linecap="round" stroke-linejoin="round"/>
<path d="M97.2168 66.798H97.6378M97.6378 66.798C98.5698 66.798 99.3253 66.0844 99.3253 65.2043M97.6378 66.798C98.5698 66.798 99.3253 67.5116 99.3253 68.3918M99.3253 65.2043V64.8066M99.3253 65.2043C99.3253 66.0844 100.081 66.798 101.013 66.798M101.013 66.798H101.434M101.013 66.798C100.081 66.798 99.3253 67.5116 99.3253 68.3918M99.3253 68.3918V68.7894" stroke="#90AAD3" stroke-width="2" stroke-miterlimit="10" stroke-linecap="round" stroke-linejoin="round"/>
<path d="M84.0674 15.9834C89.0317 11.2642 96.8876 11.3397 101.759 16.2109L101.979 16.4365C104.222 18.7938 105.475 21.9208 105.475 25.1641C105.475 28.4258 104.222 31.5527 101.979 33.9102L101.759 34.1357L50.6182 85.2764C48.2571 87.6574 45.014 89.0119 41.6455 88.9922V88.9932L41.6445 88.9922L41.6426 88.9932V88.9922C38.3817 88.9915 35.2553 87.7401 32.8984 85.4971L32.6729 85.2764L7.21094 59.7949C2.26291 54.8465 2.26272 46.8184 7.21094 41.8701L7.4375 41.6504C9.79499 39.4069 12.9218 38.1543 16.1836 38.1543C19.5507 38.1543 22.7746 39.4885 25.1562 41.8701L41.665 58.3789L83.833 16.2109L84.0674 15.9834Z" fill="#3A5482" stroke="#3A5482"/>
<path d="M103.792 25.1638C103.792 28.0827 102.628 30.8833 100.577 32.9345L49.4362 84.0948C45.1367 88.3943 38.1747 88.3943 33.8751 84.0948L8.39358 58.6133C4.09407 54.3137 4.09407 47.3517 8.39358 43.0522C12.6931 38.7526 19.6552 38.7526 23.9547 43.0522L41.6656 60.7433L85.0157 17.3931C89.3153 13.0936 96.2773 13.0936 100.577 17.3931C102.628 19.464 103.792 22.2646 103.792 25.1638Z" fill="#90AAD3"/>
</g>
<defs>
<linearGradient id="paint0_linear_550_8407" x1="13.9035" y1="82.7125" x2="90.5106" y2="1.59904" gradientUnits="userSpaceOnUse">
<stop stop-color="#CFDBFF" stop-opacity="0"/>
<stop offset="1" stop-color="#D9DDEE"/>
</linearGradient>
<clipPath id="clip0_550_8407">
<rect width="108" height="102" fill="white"/>
</clipPath>
</defs>
</svg>
