<svg width="25" height="25" viewBox="0 0 25 25" fill="none" xmlns="http://www.w3.org/2000/svg">
<path d="M21 6C15.3337 6.0103 9.66659 6.0021 4 6.00504V19.395C4.00001 19.5316 4.04715 19.6626 4.13104 19.7592C4.21494 19.8557 4.32872 19.91 4.44737 19.91H20.5526C20.6713 19.91 20.7851 19.8557 20.869 19.7592C20.9529 19.6626 21 19.5316 21 19.395V6ZM15.7434 8.32253H18.2039C18.3226 8.32254 18.4364 8.3768 18.5203 8.47338C18.6042 8.56996 18.6513 8.70094 18.6513 8.83752V17.0775C18.6513 17.2141 18.6042 17.3451 18.5203 17.4417C18.4364 17.5382 18.3226 17.5925 18.2039 17.5925H15.7434C15.6248 17.5925 15.511 17.5382 15.4271 17.4417C15.3432 17.3451 15.2961 17.2141 15.2961 17.0775V8.83752C15.2961 8.70094 15.3432 8.56996 15.4271 8.47338C15.511 8.3768 15.6248 8.32254 15.7434 8.32253ZM16.1908 9.35252V16.5625H17.7566V9.35252H16.1908ZM11.2697 10.3825H13.7303C13.8489 10.3825 13.9627 10.4368 14.0466 10.5334C14.1305 10.63 14.1776 10.7609 14.1776 10.8975V17.0775C14.1776 17.2141 14.1305 17.3451 14.0466 17.4417C13.9627 17.5382 13.8489 17.5925 13.7303 17.5925H11.2697C11.1511 17.5925 11.0373 17.5382 10.9534 17.4417C10.8695 17.3451 10.8224 17.2141 10.8224 17.0775V10.8975C10.8224 10.7609 10.8695 10.63 10.9534 10.5334C11.0373 10.4368 11.1511 10.3825 11.2697 10.3825ZM11.7171 11.4125V16.5625H13.2829V11.4125H11.7171ZM6.79605 12.4425H9.25658C9.37522 12.4425 9.48901 12.4968 9.5729 12.5934C9.6568 12.69 9.70393 12.8209 9.70395 12.9575V17.0775C9.70393 17.2141 9.6568 17.3451 9.5729 17.4417C9.48901 17.5382 9.37522 17.5925 9.25658 17.5925H6.79605C6.67741 17.5925 6.56362 17.5382 6.47973 17.4417C6.39583 17.3451 6.3487 17.2141 6.34868 17.0775V12.9575C6.3487 12.8209 6.39583 12.69 6.47973 12.5934C6.56362 12.4968 6.67741 12.4425 6.79605 12.4425ZM7.24342 13.4725V16.5625H8.80921V13.4725H7.24342ZM12.0526 20.941V22.485C12.0526 22.6216 12.0998 22.7526 12.1837 22.8492C12.2676 22.9457 12.3813 23 12.5 23C12.6186 23 12.7324 22.9457 12.8163 22.8492C12.9002 22.7526 12.9474 22.6216 12.9474 22.485V20.941C12.6491 20.9409 12.3509 20.9412 12.0526 20.941Z" fill="#3A5482"/>
<path d="M22.8265 10H23.6C23.8209 10 24 9.82091 24 9.6V3.4C24 3.17909 23.8209 3 23.6 3H1.4C1.17909 3 1 3.17909 1 3.4V9.6C1 9.82091 1.17909 10 1.4 10H2.53333" stroke="#3A5482" stroke-width="1.2"/>
</svg>
