<svg width="22" height="22" viewBox="0 0 22 22" fill="none" xmlns="http://www.w3.org/2000/svg">
<path fill-rule="evenodd" clip-rule="evenodd" d="M11.8563 2.68486H14.5207C14.7223 2.68486 14.8859 2.52136 14.8859 2.31967C14.8859 2.11797 14.7223 1.95443 14.5207 1.95443H11.8563C11.6546 1.95443 11.491 2.11797 11.491 2.31967C11.491 2.52136 11.6546 2.68486 11.8563 2.68486ZM16.7046 19.7267C16.9886 19.7267 17.2202 19.4951 17.2202 19.2111V0.923828C17.2202 0.639848 16.9886 0.408203 16.7046 0.408203H7.60085V4.30964C7.60085 4.96431 7.06778 5.49751 6.41298 5.49751H2.51172V19.2111C2.51172 19.4951 2.74336 19.7267 3.02734 19.7267H16.7046ZM2.87695 4.767H6.41298C6.66443 4.767 6.87038 4.56105 6.87038 4.30959V0.773438L2.87695 4.767ZM11.8563 17.5211H9.19203C8.99029 17.5211 8.82679 17.6846 8.82679 17.8863C8.82679 18.088 8.99029 18.2515 9.19203 18.2515H11.8563C12.058 18.2515 12.2215 18.088 12.2215 17.8863C12.2215 17.6846 12.058 17.5211 11.8563 17.5211ZM14.5207 16.0227H9.19203C8.99029 16.0227 8.82679 16.1863 8.82679 16.388C8.82679 16.5897 8.99029 16.7532 9.19203 16.7532H14.5207C14.7222 16.7532 14.8859 16.5897 14.8859 16.388C14.8859 16.1863 14.7222 16.0227 14.5207 16.0227ZM11.8563 14.1042H9.19203C8.99029 14.1042 8.82679 14.2677 8.82679 14.4694C8.82679 14.6711 8.99029 14.8347 9.19203 14.8347H11.8563C12.058 14.8347 12.2215 14.6711 12.2215 14.4694C12.2215 14.2677 12.058 14.1042 11.8563 14.1042ZM14.5207 12.6059H9.19203C8.99029 12.6059 8.82679 12.7695 8.82679 12.9711C8.82679 13.1728 8.99029 13.3363 9.19203 13.3363H14.5207C14.7222 13.3363 14.8859 13.1728 14.8859 12.9711C14.8859 12.7695 14.7222 12.6059 14.5207 12.6059ZM11.8563 10.6874H9.19203C8.99029 10.6874 8.82679 10.8509 8.82679 11.0526C8.82679 11.2543 8.99029 11.4179 9.19203 11.4179H11.8563C12.058 11.4179 12.2215 11.2543 12.2215 11.0526C12.2215 10.8509 12.058 10.6874 11.8563 10.6874ZM14.5207 9.18908H9.19203C8.99029 9.18908 8.82679 9.35258 8.82679 9.55432C8.82679 9.75597 8.99029 9.91955 9.19203 9.91955H14.5207C14.7222 9.91955 14.8859 9.75597 14.8859 9.55432C14.8859 9.35258 14.7222 9.18908 14.5207 9.18908ZM11.8563 7.27053H9.19203C8.99029 7.27053 8.82679 7.43407 8.82679 7.63576C8.82679 7.83741 8.99029 8.001 9.19203 8.001H11.8563C12.058 8.001 12.2215 7.83741 12.2215 7.63576C12.2215 7.43407 12.058 7.27053 11.8563 7.27053ZM14.5207 5.77225H9.19203C8.99029 5.77225 8.82679 5.93579 8.82679 6.13748C8.82679 6.33914 8.99029 6.50272 9.19203 6.50272H14.5207C14.7222 6.50272 14.8859 6.33914 14.8859 6.13748C14.8859 5.93579 14.7222 5.77225 14.5207 5.77225ZM7.16008 12.7484L5.99709 13.9223L5.46518 13.4039C5.32102 13.2636 5.09045 13.2668 4.95024 13.411C4.8099 13.5552 4.81313 13.7858 4.95729 13.926L5.7477 14.6963C5.89052 14.8353 6.11899 14.8338 6.2598 14.6921L7.67661 13.262C7.81845 13.1194 7.81776 12.8888 7.67527 12.747C7.53253 12.6052 7.30192 12.6058 7.16008 12.7484ZM7.16008 9.33161L5.99709 10.5055L5.46518 9.98705C5.32102 9.8468 5.09045 9.85003 4.95024 9.99419C4.8099 10.1383 4.81313 10.369 4.95729 10.5092L5.7477 11.2795C5.89052 11.4185 6.11899 11.4169 6.2598 11.2753L7.67661 9.84521C7.81845 9.70264 7.81776 9.47199 7.67527 9.33019C7.53253 9.18835 7.30192 9.18904 7.16008 9.33161ZM7.16008 5.91473L5.99709 7.08864L5.46518 6.57018C5.32102 6.42993 5.09045 6.43315 4.95024 6.57731C4.8099 6.72147 4.81313 6.95213 4.95729 7.09234L5.7477 7.86268C5.89052 8.00164 6.11899 8.00005 6.2598 7.85843L7.67661 6.42834C7.81845 6.28577 7.81776 6.05511 7.67527 5.91332C7.53253 5.77148 7.30192 5.77216 7.16008 5.91473ZM9.19203 4.18318H14.5207C14.7223 4.18318 14.8859 4.01964 14.8859 3.81795C14.8859 3.61625 14.7223 3.45271 14.5207 3.45271H9.19203C8.99029 3.45271 8.82679 3.61625 8.82679 3.81795C8.82679 4.01964 8.99029 4.18318 9.19203 4.18318ZM5.42393 16.0744C5.32927 16.0744 5.25205 16.1516 5.25205 16.2463V18.028C5.25205 18.1227 5.32927 18.1999 5.42393 18.1999H7.20571C7.30037 18.1999 7.37759 18.1227 7.37759 18.028V16.2463C7.37759 16.1516 7.30037 16.0744 7.20571 16.0744H5.42393Z" fill="#3A5482"/>
<path fill-rule="evenodd" clip-rule="evenodd" d="M19.0061 22H4.75401C4.55971 22 4.40002 21.8352 4.40002 21.6316V20.7408H5.108H18.0611V2.49705V1.76001H19.006C19.2003 1.76001 19.36 1.92529 19.36 2.12855V21.6316C19.3601 21.8352 19.2004 22 19.0061 22Z" fill="#3A5482"/>
</svg>
