<svg width="22" height="22" viewBox="0 0 22 22" fill="none" xmlns="http://www.w3.org/2000/svg">
<g clip-path="url(#clip0_8_1211)">
<path d="M6.21199 2.71563C6.21199 3.88164 5.2624 4.83125 4.09641 4.83125C2.93035 4.83125 1.98074 3.88162 1.98074 2.71563C1.98074 1.54963 2.93039 0.6 4.09641 0.6C5.2624 0.6 6.21199 1.54961 6.21199 2.71563Z" stroke="#3A5482" stroke-width="1.2"/>
<path d="M20.0192 2.71563C20.0192 3.88164 19.0696 4.83125 17.9037 4.83125C16.7376 4.83125 15.788 3.88162 15.788 2.71563C15.788 1.54963 16.7376 0.6 17.9037 0.6C19.0696 0.6 20.0192 1.54961 20.0192 2.71563Z" stroke="#3A5482" stroke-width="1.2"/>
<path d="M11.0001 6.81199C12.4975 6.81199 13.7157 5.59374 13.7157 4.09636C13.7157 2.59899 12.4975 1.38074 11.0001 1.38074C9.50272 1.38074 8.28442 2.59899 8.28442 4.09636C8.28442 5.59374 9.50267 6.81199 11.0001 6.81199Z" fill="#3A5482"/>
<path d="M8.97472 17.4803V21.3555C8.97472 21.5789 9.09035 21.7864 9.2804 21.9038C9.47432 22.0236 9.71181 22.0299 9.90749 21.932L12.669 20.5513C12.8874 20.4421 13.0253 20.219 13.0253 19.9748V17.4803L16.8816 13.624H5.11841L8.97472 17.4803Z" fill="#3A5482"/>
<path d="M18.594 8.28442H3.40598C2.28927 8.28442 1.38074 9.19295 1.38074 10.3097C1.38074 11.4264 2.28927 12.335 3.40598 12.335H18.594C19.7107 12.335 20.6193 11.4264 20.6193 10.3097C20.6193 9.19295 19.7107 8.28442 18.594 8.28442Z" fill="#3A5482"/>
</g>
<defs>
<clipPath id="clip0_8_1211">
<rect width="22" height="22" fill="white"/>
</clipPath>
</defs>
</svg>
