<svg width="22" height="22" viewBox="0 0 22 22" fill="none" xmlns="http://www.w3.org/2000/svg">
<path d="M14.882 9.65826C16.6518 9.65826 18.0912 8.21848 18.0912 6.4487C18.0912 4.67892 16.6518 3.23914 14.882 3.23914C13.1122 3.23914 11.6721 4.67892 11.6721 6.4487C11.6721 8.21848 13.1122 9.65826 14.882 9.65826Z" fill="#3A5482"/>
<path d="M14.8847 10.6895C14.2375 10.6895 13.0444 10.9976 13.0444 10.9976L13.213 11.666L13.4121 12.3062C13.4121 12.3062 13.4751 12.3038 13.5063 12.2927C13.9313 12.1413 14.3953 12.0645 14.8847 12.0645C16.0529 12.0645 17.15 12.518 17.9731 13.3411C18.7962 14.1646 19.2501 15.2616 19.2501 16.4301C19.2501 16.6856 19.1507 16.9253 18.9701 17.1062C18.7895 17.2865 18.5525 17.3859 18.3014 17.3859H14.6027C14.5543 17.3859 14.4663 17.3859 14.4663 17.3859C14.4663 17.3859 14.4663 17.742 14.4663 18.0734C14.4663 18.453 14.4663 18.7609 14.4663 18.7609H18.3014C18.9197 18.7609 19.5025 18.5182 19.9423 18.0784C20.3827 17.6383 20.6251 17.0532 20.6251 16.4301C20.6251 14.8943 20.0282 13.4522 18.9452 12.3689C17.8623 11.286 16.4202 10.6895 14.8847 10.6895Z" fill="#3A5482"/>
<path d="M7.11804 9.65826C8.88782 9.65826 10.3279 8.21848 10.3279 6.4487C10.3279 4.67892 8.88782 3.23914 7.11804 3.23914C5.34827 3.23914 3.90881 4.67892 3.90881 6.4487C3.90881 8.21848 5.34827 9.65826 7.11804 9.65826Z" fill="#3A5482"/>
<path d="M3.70068 18.7585H10.5361C11.8184 18.7585 12.8618 17.7152 12.8618 16.4328C12.8618 13.2659 10.285 10.6895 7.11804 10.6895C3.95111 10.6895 1.375 13.2659 1.375 16.4328C1.375 17.7152 2.41833 18.7585 3.70068 18.7585Z" fill="#3A5482"/>
</svg>
