<svg width="22" height="22" viewBox="0 0 22 22" fill="none" xmlns="http://www.w3.org/2000/svg">
<path d="M19.9375 4.125H17.1875C17.0051 4.125 16.8303 4.19743 16.7013 4.32636C16.5724 4.4553 16.5 4.63016 16.5 4.8125C16.5 4.99484 16.5724 5.1697 16.7013 5.29864C16.8303 5.42757 17.0051 5.5 17.1875 5.5H18.2806L13.75 10.0306L9.42558 5.69937C9.36167 5.63494 9.28563 5.58379 9.20185 5.54889C9.11808 5.51398 9.02822 5.49601 8.93746 5.49601C8.8467 5.49601 8.75684 5.51398 8.67306 5.54889C8.58928 5.58379 8.51325 5.63494 8.44933 5.69937L1.57433 12.5744C1.50989 12.6383 1.45875 12.7143 1.42385 12.7981C1.38894 12.8819 1.37097 12.9717 1.37097 13.0625C1.37097 13.1533 1.38894 13.2431 1.42385 13.3269C1.45875 13.4107 1.50989 13.4867 1.57433 13.5506C1.63825 13.6151 1.71428 13.6662 1.79806 13.7011C1.88184 13.736 1.9717 13.754 2.06246 13.754C2.15322 13.754 2.24308 13.736 2.32685 13.7011C2.41063 13.6662 2.48667 13.6151 2.55058 13.5506L8.93746 7.15687L13.2618 11.4881C13.3257 11.5526 13.4018 11.6037 13.4856 11.6386C13.5693 11.6735 13.6592 11.6915 13.75 11.6915C13.8407 11.6915 13.9306 11.6735 14.0144 11.6386C14.0981 11.6037 14.1742 11.5526 14.2381 11.4881L19.25 6.46937V7.5625C19.25 7.74484 19.3224 7.9197 19.4513 8.04864C19.5803 8.17757 19.7551 8.25 19.9375 8.25C20.1198 8.25 20.2947 8.17757 20.4236 8.04864C20.5525 7.9197 20.625 7.74484 20.625 7.5625V4.8125C20.625 4.63016 20.5525 4.4553 20.4236 4.32636C20.2947 4.19743 20.1198 4.125 19.9375 4.125Z" fill="#3A5482"/>
<path d="M3.4375 14.5888V17.1875C3.4375 17.3699 3.50993 17.5447 3.63886 17.6737C3.7678 17.8026 3.94266 17.875 4.125 17.875H6.875C7.05734 17.875 7.2322 17.8026 7.36114 17.6737C7.49007 17.5447 7.5625 17.3699 7.5625 17.1875V10.4775L3.52 14.52L3.4375 14.5888Z" fill="#3A5482"/>
<path d="M14.4375 12.9388V17.1875C14.4375 17.3699 14.5099 17.5447 14.6389 17.6737C14.7678 17.8026 14.9427 17.875 15.125 17.875H17.875C18.0573 17.875 18.2322 17.8026 18.3611 17.6737C18.4901 17.5447 18.5625 17.3699 18.5625 17.1875V9.10254L15.2075 12.4575C14.9898 12.6732 14.7267 12.8376 14.4375 12.9388Z" fill="#3A5482"/>
<path d="M8.9375 9.10254V17.1875C8.9375 17.3699 9.00993 17.5447 9.13886 17.6737C9.2678 17.8026 9.44266 17.875 9.625 17.875H12.375C12.5573 17.875 12.7322 17.8026 12.8611 17.6737C12.9901 17.5447 13.0625 17.3699 13.0625 17.1875V12.9388" stroke="#3A5482" stroke-width="1.3"/>
</svg>
