<svg width="22" height="22" viewBox="0 0 22 22" fill="none" xmlns="http://www.w3.org/2000/svg">
<g clip-path="url(#clip0_2_115)">
<path d="M4.93042 6.16876H8.29116V7.57982H4.93042V6.16876Z" fill="#3A5482"/>
<path d="M4.93042 9.37744H8.29116V10.7885H4.93042V9.37744Z" fill="#3A5482"/>
<path d="M4.93042 12.5861H8.29116V13.9971H4.93042V12.5861Z" fill="#3A5482"/>
<path d="M4.93042 15.7947H8.29116V17.2057H4.93042V15.7947Z" fill="#3A5482"/>
<path d="M20.5051 19.0847V6.84007C20.5051 6.45474 20.1835 6.13508 19.7992 6.13452L11.0208 6.14477C10.6317 6.14524 10.3165 6.46095 10.3165 6.85027V19.0846H2.90513V5.12332L10.3165 3.12954V4.73136H11.7268V2.20926C11.7268 1.7528 11.2797 1.40927 10.8385 1.52791L2.0169 3.90105C1.70895 3.98392 1.49487 4.2633 1.49487 4.58239V19.0847H0V20.4957H22V19.0847H20.5051ZM17.0696 15.8418V17.1588H13.7088V15.8418H17.0696ZM13.7088 13.9501V12.6331H17.0696V13.9501H13.7088ZM17.0696 10.7415H13.7088V9.42446H17.0696V10.7415Z" fill="#3A5482"/>
</g>
<defs>
<clipPath id="clip0_2_115">
<rect width="22" height="22" fill="white"/>
</clipPath>
</defs>
</svg>
