<svg width="22" height="22" viewBox="0 0 22 22" fill="none" xmlns="http://www.w3.org/2000/svg">
<g clip-path="url(#clip0_15_107)">
<path fill-rule="evenodd" clip-rule="evenodd" d="M10.8422 18.4961V19.5925C10.8422 20.4717 10.404 21.2308 9.64251 21.6703C9.27616 21.8818 8.86727 21.9998 8.44334 22C8.01902 22.0003 7.61026 21.882 7.24365 21.6703L2.36859 18.8557C1.60705 18.4161 1.16895 17.6572 1.16895 16.7779V2.39929C1.16895 1.07624 2.24523 0 3.56823 0H14.3049C15.628 0 16.7043 1.07615 16.7043 2.39929V5.43026H15.9179H15.1288V2.39929C15.1288 1.94498 14.7592 1.57532 14.3049 1.57532H4.89679L9.64251 4.31574C10.4037 4.75531 10.8422 5.51414 10.8422 6.39315V16.9206H14.3049C14.7591 16.9206 15.1288 16.5512 15.1288 16.0968V13.4398H15.9165H16.7043V16.0968C16.7043 17.42 15.628 18.4961 14.3049 18.4961H10.8422ZM18.1418 10.0357L17.2742 10.9033C16.9666 11.2109 16.9667 11.7096 17.2742 12.0172C17.4223 12.1654 17.6219 12.2477 17.8312 12.2477C18.0408 12.2477 18.2402 12.1656 18.3885 12.0172L20.6004 9.80487C20.908 9.4973 20.908 8.99886 20.6004 8.69129L18.3885 6.47926C18.0808 6.1716 17.5821 6.17173 17.2743 6.47921C16.9668 6.78653 16.9668 7.28544 17.2743 7.59284L18.1418 8.4602H12.3299C11.8946 8.4602 11.5422 8.81289 11.5422 9.24808C11.5422 9.68327 11.8947 10.0357 12.3299 10.0357L18.1418 10.0357Z" fill="#3A5482"/>
</g>
<defs>
<clipPath id="clip0_15_107">
<rect width="22" height="22" fill="white"/>
</clipPath>
</defs>
</svg>
