<svg width="22" height="22" viewBox="0 0 22 22" fill="none" xmlns="http://www.w3.org/2000/svg">
<path d="M6.43042 4.90881H12.8379V6.28381H6.43042V4.90881Z" fill="#3A5482"/>
<path d="M1.60413 6.47627C1.60413 6.10961 1.85621 5.80252 2.19538 5.72002V9.76711C2.53454 9.31794 3.01579 8.96961 3.57038 8.74961V5.01419V2.38794H15.6979V6.83377V7.11336H18.7458C18.402 6.54502 17.7833 6.15544 17.0729 6.14627V1.70044C17.0729 1.32002 16.7658 1.01294 16.3854 1.01294H2.88288C2.50246 1.01294 2.19538 1.32002 2.19538 1.70044V4.34044C1.09538 4.43669 0.229126 5.35336 0.229126 6.47627V16.5367L1.60413 11.2154V6.47627Z" fill="#3A5482"/>
<path d="M21.4637 8.72211C21.1199 8.28211 20.5424 8.03003 19.8778 8.03003H14.5749C13.7499 8.03003 12.9983 8.55253 12.8287 9.2217C12.8012 9.2767 12.6224 9.40961 12.3978 9.40961H4.85368C3.80868 9.40961 2.85535 10.0559 2.63076 10.9084L0.536179 19.0209C0.430763 19.4334 0.499513 19.855 0.719513 20.185C1.00826 20.6388 1.53535 20.9275 2.16785 20.9734C2.2366 20.9779 2.30993 20.9871 2.37868 20.9871H16.8849C18.017 20.9871 19.0574 20.2904 19.3003 19.3646L21.7203 10.0009C21.8395 9.54253 21.7478 9.08878 21.4637 8.72211Z" fill="#3A5482"/>
</svg>
