<svg width="22" height="22" viewBox="0 0 22 22" fill="none" xmlns="http://www.w3.org/2000/svg">
<path d="M19.5288 9.73269L17.8332 9.52902C17.66 8.88228 17.4061 8.27127 17.0793 7.70433L18.1334 6.36451C18.2946 6.15855 18.2763 5.84013 18.0901 5.65469L16.3429 3.90676C16.159 3.72209 15.8398 3.70233 15.633 3.86345L14.2909 4.91904C13.7262 4.59226 13.1152 4.33843 12.4699 4.16667L12.267 2.47118C12.2358 2.21203 11.9964 2 11.735 2H9.26348C9.00204 2 8.76264 2.21203 8.73224 2.47118L8.52856 4.16667C7.88256 4.33919 7.27076 4.59378 6.70608 4.9198L5.36468 3.86573C5.15948 3.70461 4.84028 3.72361 4.6556 3.90828L2.9076 5.65697C2.72368 5.84089 2.70468 6.16007 2.86656 6.36679L3.91992 7.70737C3.59312 8.27279 3.33928 8.88456 3.16676 9.5313L1.47196 9.73421C1.2128 9.76461 1 10.004 1 10.2662V12.7376C1 12.999 1.21204 13.2369 1.47196 13.2688L3.16752 13.4725C3.3408 14.117 3.59388 14.728 3.92068 15.2934L2.86732 16.6355C2.70696 16.8414 2.7252 17.1599 2.91064 17.3453L4.6556 19.094C4.84028 19.2779 5.15948 19.2984 5.36468 19.1373L6.70684 18.081C7.27228 18.4077 7.88332 18.6623 8.52932 18.8341L8.733 20.5288C8.76416 20.7887 9.0028 21 9.26424 21H11.7358C11.998 21 12.2366 20.7887 12.267 20.5288L12.4707 18.8341C13.1174 18.6608 13.7285 18.407 14.2932 18.081L15.6353 19.135C15.8413 19.2961 16.1597 19.2771 16.3444 19.0925L18.0916 17.3438C18.2771 17.1599 18.2961 16.8407 18.1342 16.6332L17.0793 15.2926C17.4069 14.7272 17.66 14.1162 17.8332 13.471L19.528 13.2673C19.788 13.2362 20 12.999 20 12.7361V10.2647C20.0008 10.0017 19.7895 9.76385 19.5288 9.73269ZM10.5008 16.2494C7.87724 16.2494 5.75076 14.123 5.75076 11.4996C5.75076 8.8762 7.87724 6.74981 10.5008 6.74981C13.1243 6.74981 15.2508 8.8762 15.2508 11.4996C15.2508 14.123 13.125 16.2494 10.5008 16.2494Z" fill="#3A5482"/>
</svg>
