<svg width="22" height="22" viewBox="0 0 22 22" fill="none" xmlns="http://www.w3.org/2000/svg">
<path d="M20.4828 12.3201H1.51723C0.679293 12.3201 0 13.305 0 14.5201V18.9201C0 20.1351 0.679293 21.1201 1.51723 21.1201H20.4828C21.3207 21.1201 22 20.1351 22 18.9201V14.5201C22 13.305 21.3207 12.3201 20.4828 12.3201ZM7.9655 15.0701H9.86206C10.0715 15.0701 10.2414 15.3163 10.2414 15.6201C10.2414 15.9238 10.0716 16.1701 9.86206 16.1701H7.9655C7.75603 16.1701 7.58618 15.9239 7.58618 15.6201C7.58622 15.3163 7.75603 15.0701 7.9655 15.0701ZM6.44828 17.8201C6.44828 18.7313 5.9388 19.4701 5.31034 19.4701H2.27588C1.64742 19.4701 1.13794 18.7313 1.13794 17.8201V15.6201C1.13794 14.7088 1.64742 13.9701 2.27588 13.9701H5.31038C5.93884 13.9701 6.44832 14.7088 6.44832 15.6201V17.8201H6.44828ZM19.7241 18.3701H7.9655C7.75603 18.3701 7.58618 18.1238 7.58618 17.8201C7.58618 17.5163 7.75599 17.27 7.9655 17.27H19.7241C19.9336 17.27 20.1034 17.5163 20.1034 17.8201C20.1034 18.1238 19.9336 18.3701 19.7241 18.3701Z" fill="#3A5482"/>
<path d="M20.1666 1.76001H1.83334C0.821303 1.76161 0.00120312 2.85508 0 4.20446V8.11556C0.00120312 9.46489 0.821303 10.5583 1.83334 10.56H20.1667C21.1787 10.5584 21.9988 9.46494 22 8.11556V4.20446C21.9988 2.85508 21.1787 1.76161 20.1666 1.76001ZM21.2666 8.11551C21.2666 8.92549 20.7741 9.58216 20.1666 9.58216H1.83334C1.22585 9.58216 0.733346 8.92549 0.733346 8.11551V4.20446C0.733346 3.39447 1.22585 2.7378 1.83334 2.7378H20.1667C20.7741 2.7378 21.2667 3.39447 21.2667 4.20446L21.2666 8.11551Z" fill="#3A5482"/>
<path d="M4.98751 5.95041C5.18939 5.68877 5.2994 5.36793 5.30059 5.03742C5.30059 4.19941 4.6212 3.52002 3.78319 3.52002C2.94518 3.52002 2.26579 4.19941 2.26579 5.03742C2.26751 5.36704 2.37752 5.68694 2.57887 5.94786C2.06468 6.32697 1.76078 6.92753 1.76001 7.56644C1.76001 8.12515 2.21292 8.57806 2.77163 8.57806H4.79481C5.35352 8.57806 5.80643 8.12515 5.80643 7.56644C5.80477 6.92848 5.50099 6.32899 4.98751 5.95041ZM3.27735 5.03742C3.27735 4.75806 3.50383 4.53164 3.78313 4.53164C4.06249 4.53164 4.28891 4.75812 4.28891 5.03742C4.28891 5.31672 4.06243 5.5432 3.78313 5.5432C3.50383 5.54326 3.27735 5.31677 3.27735 5.03742ZM2.77157 7.56644C2.77157 7.00773 3.22448 6.55482 3.78319 6.55482C4.3419 6.55482 4.79481 7.00773 4.79481 7.56644H2.77157Z" fill="#3A5482"/>
<path fill-rule="evenodd" clip-rule="evenodd" d="M8.42582 5.80642H10.9548C11.2342 5.80642 11.4606 5.57994 11.4606 5.30064C11.4606 5.02134 11.2342 4.7948 10.9548 4.7948H8.42582C8.14647 4.7948 7.92004 5.02128 7.92004 5.30058C7.92004 5.57988 8.14653 5.80642 8.42582 5.80642Z" fill="#3A5482"/>
<path fill-rule="evenodd" clip-rule="evenodd" d="M19.0134 7.04004H8.2667C8.07523 7.04004 7.92004 7.23707 7.92004 7.48004C7.92004 7.72306 8.07527 7.92004 8.2667 7.92004H19.0134C19.2049 7.92004 19.36 7.72301 19.36 7.48004C19.3601 7.23707 19.2049 7.04004 19.0134 7.04004Z" fill="#3A5482"/>
</svg>
