<svg width="22" height="22" viewBox="0 0 22 22" fill="none" xmlns="http://www.w3.org/2000/svg">
<path d="M16.2708 5.49996V11C16.2708 12.3905 15.1406 13.5208 13.75 13.5208H6.11967C5.89783 13.5208 5.68242 13.584 5.49725 13.705L3.83258 14.784C3.64283 14.9077 3.4265 14.9691 3.20833 14.9691C3.02042 14.9691 2.8325 14.9224 2.66017 14.8298C2.29167 14.629 2.0625 14.2431 2.0625 13.8233V5.49996C2.0625 4.10938 3.19275 2.97913 4.58333 2.97913H13.75C15.1406 2.97913 16.2708 4.10938 16.2708 5.49996Z" fill="#3A5482"/>
<path d="M19.2225 19.0291C19.0053 19.0291 18.788 18.9677 18.5983 18.844L17.3901 18.0602C16.9061 17.7467 16.3451 17.5817 15.7685 17.5817H8.68087C7.29028 17.5817 6.16003 16.4515 6.16003 15.0609V14.52H6.84753H7.53503V15.0609C7.53503 15.6925 8.04928 16.2067 8.68087 16.2067H15.7685C16.611 16.2067 17.4295 16.4496 18.1372 16.907L18.9934 17.4616V9.56087C18.9934 8.92929 18.4791 8.41504 17.8475 8.41504H17.16V7.72754V7.04004H17.8475C19.2381 7.04004 20.3684 8.17029 20.3684 9.56087V17.8842C20.3684 18.304 20.1392 18.69 19.7707 18.8907C19.5984 18.9842 19.4105 19.0291 19.2225 19.0291Z" fill="#3A5482"/>
</svg>
