<svg width="31" height="31" viewBox="0 0 31 31" fill="none" xmlns="http://www.w3.org/2000/svg">
<path d="M1.67029 16.4133L10.712 25.4549C10.9556 25.6902 11.2818 25.8204 11.6205 25.8175C11.9592 25.8145 12.2832 25.6787 12.5226 25.4392C12.7621 25.1997 12.898 24.8757 12.9009 24.5371C12.9039 24.1984 12.7737 23.8721 12.5384 23.6285L5.70158 16.7917L28.4168 16.7917C28.7594 16.7917 29.0879 16.6556 29.3302 16.4134C29.5724 16.1712 29.7085 15.8426 29.7085 15.5C29.7085 15.1575 29.5724 14.8289 29.3302 14.5867C29.0879 14.3445 28.7594 14.2084 28.4168 14.2084L5.70158 14.2084L12.5384 7.37159C12.6617 7.25244 12.7601 7.1099 12.8278 6.95232C12.8955 6.79473 12.9312 6.62523 12.9327 6.45373C12.9341 6.28222 12.9015 6.11214 12.8365 5.9534C12.7716 5.79465 12.6757 5.65044 12.5544 5.52916C12.4331 5.40788 12.2889 5.31197 12.1301 5.24702C11.9714 5.18208 11.8013 5.1494 11.6298 5.15089C11.4583 5.15238 11.2888 5.18801 11.1312 5.2557C10.9736 5.3234 10.8311 5.4218 10.712 5.54517L1.67029 14.5868C1.42814 14.8291 1.29211 15.1575 1.29211 15.5C1.29211 15.8425 1.42814 16.171 1.67029 16.4133Z" fill="#9A9A9A"/>
</svg>
