<svg width="31" height="31" viewBox="0 0 31 31" fill="none" xmlns="http://www.w3.org/2000/svg">
<path d="M1.3783 17.2624L10.42 26.304C10.6636 26.5393 10.9899 26.6695 11.3285 26.6666C11.6672 26.6636 11.9912 26.5278 12.2306 26.2883C12.4701 26.0488 12.606 25.7249 12.6089 25.3862C12.6119 25.0475 12.4817 24.7212 12.2464 24.4776L5.40959 17.6408L28.1248 17.6408C28.4674 17.6408 28.7959 17.5047 29.0382 17.2625C29.2804 17.0203 29.4165 16.6917 29.4165 16.3492C29.4165 16.0066 29.2804 15.6781 29.0382 15.4358C28.7959 15.1936 28.4674 15.0575 28.1248 15.0575L5.40959 15.0575L12.2464 8.22071C12.3697 8.10156 12.4681 7.95903 12.5358 7.80144C12.6035 7.64385 12.6392 7.47436 12.6407 7.30285C12.6421 7.13134 12.6095 6.96126 12.5445 6.80252C12.4796 6.64378 12.3837 6.49956 12.2624 6.37828C12.1411 6.257 11.9969 6.16109 11.8382 6.09615C11.6794 6.0312 11.5093 5.99852 11.3378 6.00001C11.1663 6.0015 10.9968 6.03713 10.8392 6.10483C10.6816 6.17252 10.5391 6.27092 10.42 6.39429L1.37829 15.436C1.13614 15.6782 1.00011 16.0067 1.00011 16.3492C1.00011 16.6917 1.13614 17.0202 1.3783 17.2624Z" fill="#3A5482"/>
</svg>
