<svg width="19" height="20" viewBox="0 0 19 20" fill="none" xmlns="http://www.w3.org/2000/svg">
<g clip-path="url(#clip0_440_6905)">
<path d="M16.625 2.875H15.8334V1.29162C15.8334 0.854713 15.4787 0.5 15.0416 0.5H14.25C13.813 0.5 13.4584 0.854713 13.4584 1.29162V2.875H5.54162V1.29162C5.54162 0.854713 5.18705 0.5 4.75 0.5H3.95838C3.52133 0.5 3.16662 0.854713 3.16662 1.29162V2.875H2.375C1.06559 2.875 0 3.94059 0 5.25V17.125C0 18.4344 1.06559 19.5 2.375 19.5H16.625C17.9344 19.5 19 18.4344 19 17.125V5.25C19 3.94059 17.9344 2.875 16.625 2.875ZM17.4166 17.125C17.4166 17.5612 17.0612 17.9166 16.625 17.9166H2.375C1.93882 17.9166 1.58338 17.5612 1.58338 17.125V8.44836H17.4166V17.125Z" fill="#3A5482"/>
</g>
<defs>
<clipPath id="clip0_440_6905">
<rect width="19" height="19" fill="white" transform="translate(0 0.5)"/>
</clipPath>
</defs>
</svg>
