<svg width="20" height="20" viewBox="0 0 20 20" fill="none" xmlns="http://www.w3.org/2000/svg">
<g clip-path="url(#clip0_4017_1127)">
<path d="M16.958 2.875H16.1664V1.29162C16.1664 0.854713 15.8117 0.5 15.3746 0.5H14.583C14.146 0.5 13.7914 0.854713 13.7914 1.29162V2.875H5.87463V1.29162C5.87463 0.854713 5.52006 0.5 5.08301 0.5H4.29139C3.85434 0.5 3.49963 0.854713 3.49963 1.29162V2.875H2.70801C1.3986 2.875 0.333008 3.94059 0.333008 5.25V17.125C0.333008 18.4344 1.3986 19.5 2.70801 19.5H16.958C18.2674 19.5 19.333 18.4344 19.333 17.125V5.25C19.333 3.94059 18.2674 2.875 16.958 2.875ZM17.7496 17.125C17.7496 17.5612 17.3942 17.9166 16.958 17.9166H2.70801C2.27183 17.9166 1.91639 17.5612 1.91639 17.125V8.44836H17.7496V17.125Z" fill="#9A9A9A"/>
</g>
<defs>
<clipPath id="clip0_4017_1127">
<rect width="19" height="19" fill="white" transform="translate(0.333008 0.5)"/>
</clipPath>
</defs>
</svg>
