<svg width="19" height="19" viewBox="0 0 19 19" fill="none" xmlns="http://www.w3.org/2000/svg">
<g clip-path="url(#clip0_148_1379)">
<path fill-rule="evenodd" clip-rule="evenodd" d="M5.58155 14.5381C5.27239 14.8473 4.77114 14.8473 4.46196 14.5381C4.15279 14.229 4.1528 13.7277 4.46196 13.4186L8.38051 9.5L4.46196 5.58145C4.1528 5.27229 4.15279 4.77104 4.46196 4.46186C4.77114 4.15269 5.27239 4.1527 5.58155 4.46186L9.5001 8.38041L13.4187 4.46186C13.7278 4.15269 14.2291 4.15269 14.5382 4.46186C14.8474 4.77104 14.8474 5.27228 14.5382 5.58145L10.6197 9.5L14.5382 13.4186C14.8474 13.7277 14.8474 14.229 14.5382 14.5381C14.2291 14.8473 13.7278 14.8473 13.4187 14.5381L9.5001 10.6196L5.58155 14.5381Z" fill="#9A9A9A"/>
</g>
<defs>
<clipPath id="clip0_148_1379">
<rect width="19" height="19" fill="white" transform="matrix(1 0 0 -1 0 19)"/>
</clipPath>
</defs>
</svg>
