<svg width="16" height="16" viewBox="0 0 16 16" fill="none" xmlns="http://www.w3.org/2000/svg">
<path fill-rule="evenodd" clip-rule="evenodd" d="M3.33333 11.7242C3.073 11.9846 3.07304 12.4067 3.33341 12.667C3.59379 12.9274 4.01589 12.9274 4.27622 12.667L7.99971 8.94285L11.7235 12.6666C11.9838 12.927 12.406 12.927 12.6663 12.6666C12.9266 12.4063 12.9266 11.9842 12.6663 11.7238L8.94245 7.99998L12.666 4.27573C12.9263 4.01535 12.9263 3.59325 12.6659 3.33292C12.4056 3.07259 11.9834 3.07263 11.7231 3.333L7.99958 7.05718L4.27577 3.33332C4.01542 3.07297 3.59331 3.07297 3.33296 3.33332C3.07261 3.59367 3.07261 4.01578 3.33296 4.27613L7.05691 8.00005L3.33333 11.7242Z" fill="#9A9A9A"/>
</svg>
