<svg width="18" height="18" viewBox="0 0 18 18" fill="none" xmlns="http://www.w3.org/2000/svg">
<path d="M3.94673 14.2085C4.26866 15.4667 5.1222 16.0917 6.25559 16.2458C7.38898 16.4 10.1312 16.4101 11.5524 16.2458C12.9737 16.0816 13.9057 15.6553 14.1588 13.7611C14.4106 11.8765 14.7443 5.8125 14.7443 5.8125H3.23828C3.23828 5.8125 3.62479 12.9503 3.94673 14.2085Z" fill="#CC5244"/>
<path fill-rule="evenodd" clip-rule="evenodd" d="M7.76648 1.68753L7.73205 1.68751C7.56975 1.68741 7.42834 1.68732 7.29482 1.70864C6.76735 1.79287 6.3109 2.12186 6.06419 2.59563C6.00174 2.71555 5.95712 2.84973 5.90589 3.00373L5.895 3.03643L5.82218 3.25488C5.80794 3.29761 5.80397 3.30939 5.80052 3.31893C5.66918 3.68202 5.32866 3.92745 4.94267 3.93723C4.93253 3.93748 4.9201 3.93753 4.87506 3.93753H2.625C2.31434 3.93753 2.0625 4.18937 2.0625 4.50003C2.0625 4.81069 2.31434 5.06253 2.625 5.06253H4.88149H4.89404H13.1061H13.1186H15.3751C15.6857 5.06253 15.9376 4.81069 15.9376 4.50003C15.9376 4.18937 15.6857 3.93753 15.3751 3.93753H13.1251C13.08 3.93753 13.0676 3.93748 13.0574 3.93723C12.6715 3.92745 12.331 3.682 12.1996 3.31891C12.1962 3.30943 12.1922 3.2974 12.178 3.25488L12.1052 3.03643L12.0942 3.0037C12.043 2.84971 11.9984 2.71555 11.936 2.59563C11.6892 2.12186 11.2328 1.79287 10.7053 1.70864C10.5718 1.68732 10.4304 1.68741 10.2681 1.68751L10.2336 1.68753H7.76648ZM6.85844 3.70161C6.82898 3.78303 6.79475 3.86176 6.75611 3.93753H11.244C11.2054 3.86176 11.1712 3.78304 11.1417 3.70162L11.1127 3.61662L11.0378 3.3922C10.9695 3.18706 10.9538 3.14522 10.9382 3.11523C10.8559 2.95731 10.7037 2.84764 10.5279 2.81956C10.4945 2.81423 10.4498 2.81253 10.2336 2.81253H7.76648C7.55025 2.81253 7.50563 2.81423 7.47222 2.81956C7.2964 2.84764 7.14425 2.95731 7.06201 3.11523C7.04639 3.14522 7.03064 3.18706 6.96227 3.3922L6.88742 3.61675C6.87615 3.65056 6.86738 3.67689 6.85844 3.70161Z" fill="#CC5244"/>
</svg>
