<svg width="23" height="23" viewBox="0 0 23 23" fill="none" xmlns="http://www.w3.org/2000/svg">
<path d="M7.66667 5.75008C8.72521 5.75008 9.58333 4.89196 9.58333 3.83341C9.58333 2.77487 8.72521 1.91675 7.66667 1.91675C6.60812 1.91675 5.75 2.77487 5.75 3.83341C5.75 4.89196 6.60812 5.75008 7.66667 5.75008Z" fill="#3A5482"/>
<path d="M7.66667 13.4166C8.72521 13.4166 9.58333 12.5585 9.58333 11.4999C9.58333 10.4414 8.72521 9.58325 7.66667 9.58325C6.60812 9.58325 5.75 10.4414 5.75 11.4999C5.75 12.5585 6.60812 13.4166 7.66667 13.4166Z" fill="#3A5482"/>
<path d="M7.66667 21.0833C8.72521 21.0833 9.58333 20.2252 9.58333 19.1667C9.58333 18.1081 8.72521 17.25 7.66667 17.25C6.60812 17.25 5.75 18.1081 5.75 19.1667C5.75 20.2252 6.60812 21.0833 7.66667 21.0833Z" fill="#3A5482"/>
<path d="M15.3327 5.75008C16.3912 5.75008 17.2493 4.89196 17.2493 3.83341C17.2493 2.77487 16.3912 1.91675 15.3327 1.91675C14.2741 1.91675 13.416 2.77487 13.416 3.83341C13.416 4.89196 14.2741 5.75008 15.3327 5.75008Z" fill="#3A5482"/>
<path d="M15.3327 13.4166C16.3912 13.4166 17.2493 12.5585 17.2493 11.4999C17.2493 10.4414 16.3912 9.58325 15.3327 9.58325C14.2741 9.58325 13.416 10.4414 13.416 11.4999C13.416 12.5585 14.2741 13.4166 15.3327 13.4166Z" fill="#3A5482"/>
<path d="M15.3327 21.0833C16.3912 21.0833 17.2493 20.2252 17.2493 19.1667C17.2493 18.1081 16.3912 17.25 15.3327 17.25C14.2741 17.25 13.416 18.1081 13.416 19.1667C13.416 20.2252 14.2741 21.0833 15.3327 21.0833Z" fill="#3A5482"/>
</svg>
