<svg width="18" height="18" viewBox="0 0 18 18" fill="none" xmlns="http://www.w3.org/2000/svg">
<path fill-rule="evenodd" clip-rule="evenodd" d="M6.1875 9C6.1875 8.25408 6.48382 7.53871 7.01126 7.01126C7.53871 6.48382 8.25408 6.1875 9 6.1875C9.74592 6.1875 10.4613 6.48382 10.9887 7.01126C11.5162 7.53871 11.8125 8.25408 11.8125 9C11.8125 9.74592 11.5162 10.4613 10.9887 10.9887C10.4613 11.5162 9.74592 11.8125 9 11.8125C8.25408 11.8125 7.53871 11.5162 7.01126 10.9887C6.48382 10.4613 6.1875 9.74592 6.1875 9ZM9 7.3125C8.55245 7.3125 8.12323 7.49029 7.80676 7.80676C7.49029 8.12323 7.3125 8.55245 7.3125 9C7.3125 9.44755 7.49029 9.87677 7.80676 10.1932C8.12323 10.5097 8.55245 10.6875 9 10.6875C9.44755 10.6875 9.87677 10.5097 10.1932 10.1932C10.5097 9.87677 10.6875 9.44755 10.6875 9C10.6875 8.55245 10.5097 8.12323 10.1932 7.80676C9.87677 7.49029 9.44755 7.3125 9 7.3125Z" fill="#9A9A9A"/>
<path fill-rule="evenodd" clip-rule="evenodd" d="M3.24225 7.9845C2.928 8.4375 2.8125 8.79225 2.8125 9C2.8125 9.20775 2.928 9.5625 3.24225 10.0155C3.54675 10.4528 3.99825 10.9275 4.56975 11.3662C5.715 12.2452 7.28475 12.9375 9 12.9375C10.7152 12.9375 12.285 12.2452 13.4302 11.3662C14.0017 10.9275 14.4533 10.4528 14.7578 10.0155C15.072 9.5625 15.1875 9.20775 15.1875 9C15.1875 8.79225 15.072 8.4375 14.7578 7.9845C14.4533 7.54725 14.0017 7.0725 13.4302 6.63375C12.285 5.75475 10.7152 5.0625 9 5.0625C7.28475 5.0625 5.715 5.75475 4.56975 6.63375C3.99825 7.0725 3.54675 7.54725 3.24225 7.9845ZM3.88425 5.74125C5.1825 4.74525 6.987 3.9375 9 3.9375C11.013 3.9375 12.8175 4.74525 14.115 5.74125C14.7652 6.24 15.3023 6.7965 15.6818 7.34325C16.0508 7.875 16.3125 8.45775 16.3125 9C16.3125 9.54225 16.05 10.125 15.6818 10.6567C15.3023 11.2035 14.7652 11.7592 14.1157 12.2587C12.8182 13.2547 11.013 14.0625 9 14.0625C6.987 14.0625 5.1825 13.2547 3.885 12.2587C3.23475 11.76 2.69775 11.2035 2.31825 10.6567C1.95 10.125 1.6875 9.54225 1.6875 9C1.6875 8.45775 1.95 7.875 2.31825 7.34325C2.69775 6.7965 3.23475 6.24075 3.88425 5.74125Z" fill="#9A9A9A"/>
</svg>
