<svg width="46" height="46" viewBox="0 0 46 46" fill="none" xmlns="http://www.w3.org/2000/svg">
<g clip-path="url(#clip0_105_788)">
<path d="M38.3263 16.9089C36.2003 8.43952 27.6112 3.29724 19.1418 5.42325C12.5232 7.08473 7.71737 12.8051 7.22221 19.611C2.52273 20.386 -0.65874 24.8239 0.116257 29.5234C0.805193 33.7013 4.42532 36.7609 8.65955 36.7441H15.8463V33.8694H8.65955C5.48428 33.8694 2.91018 31.2953 2.91018 28.1201C2.91018 24.9448 5.48428 22.3707 8.65955 22.3707C9.45341 22.3707 10.0969 21.7272 10.0969 20.9333C10.0897 13.7889 15.8756 7.99143 23.02 7.98433C29.2046 7.97813 34.5284 12.3503 35.7247 18.418C35.8428 19.0238 36.3345 19.4867 36.9465 19.5679C40.876 20.1274 43.6077 23.7665 43.0482 27.696C42.5458 31.2245 39.5331 33.8517 35.9691 33.8694H30.2197V36.7441H35.9691C41.5258 36.7273 46.0168 32.209 45.9999 26.6523C45.9859 22.0267 42.8198 18.0066 38.3263 16.9089Z" fill="#9A9A9A"/>
<path d="M22.0121 22.7876L16.2627 28.537L18.2893 30.5637L21.5952 27.2721V41.0563H24.4699V27.2721L27.7614 30.5637L29.7881 28.537L24.0387 22.7876C23.4781 22.2303 22.5727 22.2303 22.0121 22.7876Z" fill="#9A9A9A"/>
</g>
<defs>
<clipPath id="clip0_105_788">
<rect width="46" height="46" fill="white"/>
</clipPath>
</defs>
</svg>
