<svg width="19" height="19" viewBox="0 0 19 19" fill="none" xmlns="http://www.w3.org/2000/svg">
<path d="M2.375 4.94792C2.04708 4.94792 1.78125 5.21376 1.78125 5.54167C1.78125 5.86959 2.04708 6.13542 2.375 6.13542V4.94792ZM2.375 12.8646C2.04708 12.8646 1.78125 13.1304 1.78125 13.4583C1.78125 13.7862 2.04708 14.0521 2.375 14.0521V12.8646ZM7.125 14.0521C7.45292 14.0521 7.71875 13.7862 7.71875 13.4583C7.71875 13.1304 7.45292 12.8646 7.125 12.8646V14.0521ZM16.625 14.0521C16.9529 14.0521 17.2188 13.7862 17.2188 13.4583C17.2188 13.1304 16.9529 12.8646 16.625 12.8646V14.0521ZM11.875 4.94792C11.5471 4.94792 11.2812 5.21376 11.2812 5.54167C11.2812 5.86959 11.5471 6.13542 11.875 6.13542V4.94792ZM16.625 6.13542C16.9529 6.13542 17.2188 5.86959 17.2188 5.54167C17.2188 5.21376 16.9529 4.94792 16.625 4.94792V6.13542ZM2.375 6.13542H4.75V4.94792H2.375V6.13542ZM2.375 14.0521H7.125V12.8646H2.375V14.0521ZM14.25 14.0521H16.625V12.8646H14.25V14.0521ZM11.875 6.13542H16.625V4.94792H11.875V6.13542ZM13.6562 13.4583C13.6562 14.4421 12.8587 15.2396 11.875 15.2396V16.4271C13.5146 16.4271 14.8438 15.098 14.8438 13.4583H13.6562ZM11.875 15.2396C10.8913 15.2396 10.0938 14.4421 10.0938 13.4583H8.90625C8.90625 15.098 10.2354 16.4271 11.875 16.4271V15.2396ZM10.0938 13.4583C10.0938 12.4746 10.8913 11.6771 11.875 11.6771V10.4896C10.2354 10.4896 8.90625 11.8187 8.90625 13.4583H10.0938ZM11.875 11.6771C12.8587 11.6771 13.6562 12.4746 13.6562 13.4583H14.8438C14.8438 11.8187 13.5146 10.4896 11.875 10.4896V11.6771ZM8.90625 5.54167C8.90625 6.52543 8.10873 7.32292 7.125 7.32292V8.51042C8.76462 8.51042 10.0938 7.18127 10.0938 5.54167H8.90625ZM7.125 7.32292C6.14124 7.32292 5.34375 6.52543 5.34375 5.54167H4.15625C4.15625 7.18127 5.4854 8.51042 7.125 8.51042V7.32292ZM5.34375 5.54167C5.34375 4.55791 6.14124 3.76042 7.125 3.76042V2.57292C5.4854 2.57292 4.15625 3.90207 4.15625 5.54167H5.34375ZM7.125 3.76042C8.10873 3.76042 8.90625 4.55791 8.90625 5.54167H10.0938C10.0938 3.90207 8.76462 2.57292 7.125 2.57292V3.76042Z" fill="#3A5482"/>
</svg>
