<svg width="18" height="18" viewBox="0 0 18 18" fill="none" xmlns="http://www.w3.org/2000/svg">
<g clip-path="url(#clip0_4028_4143)">
<path d="M15.121 2.87908C14.5541 2.31219 13.8004 2 12.9988 2C12.1971 2 11.4435 2.31219 10.8766 2.87905L2.48904 11.2666C2.41767 11.338 2.36596 11.4266 2.33889 11.5238L1.02147 16.2569C0.964661 16.4611 1.02246 16.68 1.17273 16.8295C1.28406 16.9402 1.43323 17 1.58599 17C1.63937 17 1.69322 16.9927 1.74604 16.9777L6.47915 15.6332C6.67884 15.5765 6.83365 15.4183 6.88603 15.2174C6.93841 15.0165 6.88058 14.8029 6.73401 14.6559L3.75006 11.6629L10.7026 4.71028L13.2883 7.29597L7.96585 12.6039C7.73672 12.8325 7.73622 13.2034 7.96474 13.4326C8.19323 13.6617 8.56427 13.6622 8.79337 13.4337L15.1209 7.12341C15.6878 6.55654 16 5.80288 16 5.00123C16 4.19958 15.6878 3.44592 15.121 2.87908ZM5.20102 14.7781L2.43047 15.565L3.2064 12.7774L5.20102 14.7781ZM14.2929 6.29419L14.1181 6.46848L11.5313 3.88165L11.7053 3.70769C12.0508 3.36216 12.5101 3.17188 12.9988 3.17188C13.4874 3.17188 13.9468 3.36216 14.2923 3.70771C14.6378 4.05321 14.8281 4.51259 14.8281 5.00123C14.8281 5.48987 14.6378 5.94925 14.2929 6.29419Z" fill="#3A5482"/>
<path d="M2.91333 12.1772L6.32598 14.9922L1.4457 16.3505L2.91333 12.1772Z" fill="#3A5482"/>
<rect x="12.9551" y="2.06226" width="4.17225" height="2.48344" transform="rotate(46.1993 12.9551 2.06226)" fill="#3A5482"/>
</g>
<defs>
<clipPath id="clip0_4028_4143">
<rect width="15" height="15" fill="white" transform="translate(1 2)"/>
</clipPath>
</defs>
</svg>
