<svg width="18" height="18" viewBox="0 0 18 18" fill="none" xmlns="http://www.w3.org/2000/svg">
<g clip-path="url(#clip0_4028_4143)">
<path d="M15.1215 2.87908C14.5546 2.31219 13.8009 2 12.9993 2C12.1976 2 11.4439 2.31219 10.8771 2.87905L2.48952 11.2666C2.41816 11.338 2.36645 11.4266 2.33938 11.5238L1.02196 16.2569C0.965149 16.4611 1.02295 16.68 1.17322 16.8295C1.28454 16.9402 1.43372 17 1.58648 17C1.63986 17 1.6937 16.9927 1.74653 16.9777L6.47964 15.6332C6.67933 15.5765 6.83413 15.4183 6.88652 15.2174C6.9389 15.0165 6.88107 14.8029 6.73449 14.6559L3.75055 11.6629L10.7031 4.71028L13.2888 7.29597L7.96634 12.6039C7.73721 12.8325 7.73671 13.2034 7.96523 13.4326C8.19371 13.6617 8.56476 13.6622 8.79386 13.4337L15.1214 7.12341C15.6883 6.55654 16.0005 5.80288 16.0005 5.00123C16.0005 4.19958 15.6883 3.44592 15.1215 2.87908ZM5.20151 14.7781L2.43096 15.565L3.20689 12.7774L5.20151 14.7781ZM14.2934 6.29419L14.1186 6.46848L11.5318 3.88165L11.7058 3.70769C12.0513 3.36216 12.5106 3.17188 12.9993 3.17188C13.4879 3.17188 13.9473 3.36216 14.2928 3.70771C14.6383 4.05321 14.8286 4.51259 14.8286 5.00123C14.8286 5.48987 14.6383 5.94925 14.2934 6.29419Z" fill="#9A9A9A"/>
</g>
<defs>
<clipPath id="clip0_4028_4143">
<rect width="15" height="15" fill="white" transform="translate(1 2)"/>
</clipPath>
</defs>
</svg>
