<svg width="164" height="56" viewBox="0 0 164 56" fill="none" xmlns="http://www.w3.org/2000/svg">
<path d="M29.9625 21.2375L10.7446 1.88838L33.1491 6.57037L29.9625 21.2375Z" fill="#1B2238"/>
<path d="M30.9097 21.9969L34.2293 7.28317L45.3899 24.7854L30.9097 21.9969Z" fill="#1B2238"/>
<path d="M46.1487 23.8395L42.1304 17.3872L48.2785 15.5659L46.1487 23.8395Z" fill="#1B2238"/>
<path d="M49.2999 16.1419L52.545 21.3862L48.1992 20.3921L49.2999 16.1419Z" fill="#1B2238"/>
<path d="M30.6114 23.1205L29.4727 37.4493L45.1222 25.9631L30.6114 23.1205Z" fill="#1B2238"/>
<path d="M29.1967 26.0429L27.58 46.0628L20.8193 54.5304L29.1967 26.0429Z" fill="#1B2238"/>
<path d="M29.3605 39.0015L30.9684 37.8328V41.0122L28.9805 42.8064L29.3605 39.0015Z" fill="#1B2238"/>
<path d="M27.4377 20.4103L12.7719 5.62893L1.38184 3.78803L27.4377 20.4103Z" fill="#1B2238"/>
<path d="M29.9625 21.2375L10.7446 1.88838L33.1491 6.57037L29.9625 21.2375Z" fill="#1B2238"/>
<path d="M30.9097 21.9969L34.2293 7.28317L45.3899 24.7854L30.9097 21.9969Z" fill="#1B2238"/>
<path d="M46.1487 23.8395L42.1304 17.3872L48.2785 15.5659L46.1487 23.8395Z" fill="#1B2238"/>
<path d="M49.2999 16.1419L52.545 21.3862L48.1992 20.3921L49.2999 16.1419Z" fill="#1B2238"/>
<path d="M30.6114 23.1205L29.4727 37.4493L45.1222 25.9631L30.6114 23.1205Z" fill="#1B2238"/>
<path d="M29.1967 26.0429L27.58 46.0628L20.8193 54.5304L29.1967 26.0429Z" fill="#1B2238"/>
<path d="M29.3605 39.0015L30.9684 37.8328V41.0122L28.9805 42.8064L29.3605 39.0015Z" fill="#1B2238"/>
<path d="M27.4377 20.4103L12.7719 5.62893L1.38184 3.78803L27.4377 20.4103Z" fill="#1B2238"/>
<path d="M56.0981 28.0845H59.3559V29.1637H57.2277V33.8077H56.0981V28.0845Z" fill="#1B2238"/>
<path d="M59.9834 28.0845H62.1197C62.6655 28.0845 63.1293 28.2698 63.5113 28.6405C63.8877 29.0111 64.076 29.4662 64.076 30.0058C64.076 30.5455 63.8877 31.0005 63.5113 31.3713C63.1293 31.7419 62.6655 31.9272 62.1197 31.9272H61.1129V33.8077H59.9834V28.0845ZM61.1129 30.8726H62.1197C62.3599 30.8726 62.559 30.7907 62.7173 30.6272C62.8756 30.4583 62.9546 30.2511 62.9546 30.0058C62.9546 29.7551 62.8756 29.5481 62.7173 29.3845C62.559 29.221 62.3599 29.1393 62.1197 29.1393H61.1129V30.8726Z" fill="#1B2238"/>
<path d="M69.5923 33.0638C69.014 33.6361 68.3099 33.9223 67.4805 33.9223C66.6511 33.9223 65.9472 33.6361 65.3688 33.0638C64.7958 32.4805 64.5093 31.7747 64.5093 30.9461C64.5093 30.1122 64.7958 29.409 65.3688 28.8367C65.9472 28.259 66.6511 27.97 67.4805 27.97C68.3099 27.97 69.014 28.259 69.5923 28.8367C70.1708 29.409 70.46 30.1122 70.46 30.9461C70.46 31.7801 70.1708 32.486 69.5923 33.0638ZM66.1627 32.2953C66.5119 32.6441 66.9512 32.8185 67.4805 32.8185C68.0099 32.8185 68.4492 32.6441 68.7983 32.2953C69.1531 31.941 69.3304 31.4912 69.3304 30.9461C69.3304 30.4011 69.1531 29.9514 68.7983 29.5971C68.4437 29.2429 68.0044 29.0657 67.4805 29.0657C66.9567 29.0657 66.5174 29.2429 66.1627 29.5971C65.8081 29.9514 65.6307 30.4011 65.6307 30.9461C65.6307 31.4912 65.8081 31.941 66.1627 32.2953Z" fill="#1B2238"/>
<path d="M75.6979 28.0845H76.8603V33.8077H75.7391V30.0958L74.1269 32.753H73.9957L72.3835 30.104V33.8077H71.2539V28.0845H72.4155L74.0613 30.7907L75.6979 28.0845Z" fill="#1B2238"/>
<path d="M82.8394 33.8077H81.6114L81.2675 32.7776H78.9839L78.64 33.8077H77.4204L79.4259 28.0845H80.8255L82.8394 33.8077ZM80.1295 29.3845L79.3436 31.7228H80.9154L80.1295 29.3845Z" fill="#1B2238"/>
<path d="M87.8318 28.0845V32.7285H88.4452V34.9033H87.3157V33.8077H84.148V34.9033H83.019V32.7285H83.5755C83.8919 32.2925 84.0504 31.6465 84.0504 30.7907V28.0845H87.8318ZM84.7868 32.7285H86.7022V29.1393H85.1793V30.8071C85.1793 31.6411 85.049 32.2816 84.7868 32.7285Z" fill="#1B2238"/>
<path d="M91.8279 33.9223C90.9713 33.9223 90.2597 33.6361 89.6922 33.0638C89.1293 32.4969 88.8491 31.791 88.8491 30.9461C88.8491 30.0959 89.1293 29.39 89.6922 28.8286C90.2597 28.2562 90.9713 27.97 91.8279 27.97C92.3468 27.97 92.8242 28.0927 93.2601 28.3379C93.7024 28.5779 94.0465 28.9049 94.2915 29.3191L93.3187 29.8833C93.1755 29.6271 92.9746 29.4281 92.7125 29.2864C92.4504 29.1393 92.1558 29.0657 91.8279 29.0657C91.2713 29.0657 90.8218 29.2401 90.4777 29.5889C90.1399 29.9433 89.9706 30.3956 89.9706 30.9461C89.9706 31.4912 90.1399 31.941 90.4777 32.2953C90.8218 32.6441 91.2713 32.8185 91.8279 32.8185C92.1558 32.8185 92.4504 32.7476 92.7125 32.6059C92.98 32.4588 93.1818 32.2598 93.3187 32.0091L94.2915 32.5732C94.0465 32.9874 93.7024 33.3172 93.2601 33.5625C92.8242 33.8023 92.3468 33.9223 91.8279 33.9223Z" fill="#1B2238"/>
<path d="M96.1159 29.9649H97.122C97.6679 29.9649 98.1327 30.1503 98.5146 30.521C98.8911 30.8916 99.0794 31.3467 99.0794 31.8864C99.0794 32.4261 98.8911 32.8811 98.5146 33.2517C98.1327 33.6224 97.6679 33.8077 97.122 33.8077H94.9863V28.0845H96.1159V29.9649ZM96.1159 32.753H97.122C97.3625 32.753 97.5625 32.6713 97.7201 32.5078C97.8787 32.3442 97.9579 32.1371 97.9579 31.8864C97.9579 31.6411 97.8787 31.4367 97.7201 31.2731C97.5625 31.1043 97.3625 31.0196 97.122 31.0196H96.1159V32.753Z" fill="#1B2238"/>
<path d="M102.09 30.8643L104.291 33.8077H102.991L100.944 31.126V33.8077H99.8145V28.0845H100.944V30.6108L102.909 28.0845H104.21L102.09 30.8643Z" fill="#1B2238"/>
<path d="M109.906 33.8077H108.678L108.334 32.7776H106.051L105.706 33.8077H104.487L106.492 28.0845H107.892L109.906 33.8077ZM107.196 29.3845L106.41 31.7228H107.982L107.196 29.3845Z" fill="#1B2238"/>
<path d="M117.329 33.0638C116.75 33.6361 116.046 33.9223 115.217 33.9223C114.388 33.9223 113.684 33.6361 113.106 33.0638C112.532 32.4805 112.246 31.7747 112.246 30.9461C112.246 30.1122 112.532 29.409 113.106 28.8367C113.684 28.259 114.388 27.97 115.217 27.97C116.046 27.97 116.75 28.259 117.329 28.8367C117.907 29.409 118.197 30.1122 118.197 30.9461C118.197 31.7801 117.907 32.486 117.329 33.0638ZM113.898 32.2953C114.249 32.6441 114.688 32.8185 115.217 32.8185C115.747 32.8185 116.186 32.6441 116.535 32.2953C116.889 31.941 117.066 31.4912 117.066 30.9461C117.066 30.4011 116.889 29.9514 116.535 29.5971C116.18 29.2429 115.741 29.0657 115.217 29.0657C114.693 29.0657 114.254 29.2429 113.898 29.5971C113.544 29.9514 113.367 30.4011 113.367 30.9461C113.367 31.4912 113.544 31.941 113.898 32.2953Z" fill="#1B2238"/>
<path d="M118.991 28.0845H121.127C121.673 28.0845 122.136 28.2698 122.518 28.6405C122.895 29.0111 123.083 29.4662 123.083 30.0058C123.083 30.5455 122.895 31.0005 122.518 31.3713C122.136 31.7419 121.673 31.9272 121.127 31.9272H120.12V33.8077H118.991V28.0845ZM120.12 30.8726H121.127C121.367 30.8726 121.566 30.7907 121.725 30.6272C121.882 30.4583 121.961 30.2511 121.961 30.0058C121.961 29.7551 121.882 29.5481 121.725 29.3845C121.566 29.221 121.367 29.1393 121.127 29.1393H120.12V30.8726Z" fill="#1B2238"/>
<path d="M123.819 28.0845H127.077V29.1637H124.948V33.8077H123.819V28.0845Z" fill="#1B2238"/>
<path d="M131.959 33.8077H130.731L130.388 32.7776H128.103L127.76 33.8077H126.541L128.546 28.0845H129.945L131.959 33.8077ZM129.249 29.3845L128.464 31.7228H130.035L129.249 29.3845Z" fill="#1B2238"/>
<path d="M135.773 30.3574V28.0845H136.894V33.8077H135.773V31.4367H133.645V33.8077H132.516V28.0845H133.645V30.3574H135.773Z" fill="#1B2238"/>
<path d="M137.959 33.8077V28.0845H139.088V33.8077H137.959Z" fill="#1B2238"/>
<path d="M143.122 30.848C143.668 31.1315 143.941 31.5839 143.941 32.2053C143.941 32.7121 143.746 33.1265 143.359 33.448C142.977 33.7642 142.478 33.9223 141.861 33.9223C140.797 33.9223 140.085 33.4726 139.724 32.5732L140.699 32.0254C140.868 32.5814 141.255 32.8594 141.861 32.8594C142.167 32.8594 142.401 32.7968 142.565 32.6713C142.734 32.5405 142.818 32.3606 142.818 32.1317C142.818 31.9028 142.737 31.7257 142.573 31.6003C142.41 31.4694 142.18 31.4041 141.886 31.4041H141.173V30.3984H141.714C141.998 30.3984 142.218 30.3384 142.377 30.2185C142.535 30.0932 142.615 29.9242 142.615 29.7116C142.615 29.4936 142.544 29.3246 142.401 29.2047C142.265 29.0848 142.066 29.0248 141.804 29.0248C141.313 29.0248 140.969 29.2647 140.773 29.7444L139.815 29.1883C140.202 28.3761 140.865 27.97 141.804 27.97C142.366 27.97 142.83 28.1227 143.195 28.4279C143.556 28.7277 143.735 29.1311 143.735 29.638C143.735 30.1504 143.532 30.5537 143.122 30.848Z" fill="#1B2238"/>
<path d="M149.584 33.8077H148.356L148.013 32.7776H145.728L145.385 33.8077H144.166L146.171 28.0845H147.57L149.584 33.8077ZM146.875 29.3845L146.09 31.7228H147.661L146.875 29.3845Z" fill="#1B2238"/>
<path d="M154.421 28.0845V32.7285H155.035V34.9033H153.905V33.8077H150.14V28.0845H151.27V32.7285H153.292V28.0845H154.421Z" fill="#1B2238"/>
<path d="M155.792 33.8077V28.0845H156.922V33.8077H155.792Z" fill="#1B2238"/>
<path d="M159.734 28.0845H162.026V33.8077H160.897V31.8209H160.25L158.932 33.8077H157.663L159.063 31.6983C158.698 31.5675 158.401 31.344 158.171 31.0279C157.941 30.7117 157.827 30.3628 157.827 29.9814C157.827 29.4581 158.013 29.0111 158.384 28.6405C158.755 28.2698 159.205 28.0845 159.734 28.0845ZM159.734 30.8317H160.897V29.1393H159.734C159.521 29.1393 159.338 29.221 159.185 29.3845C159.033 29.5481 158.957 29.747 158.957 29.9814C158.957 30.2157 159.033 30.4174 159.185 30.5864C159.338 30.7498 159.521 30.8317 159.734 30.8317Z" fill="#1B2238"/>
<path d="M57.4749 17.7623H58.9643L57.5875 20.1055L58.9643 22.4363H57.4749L56.0981 20.1055L57.4749 17.7623ZM59.8528 17.7623H61.3421L59.9655 20.1055L61.3421 22.4363H59.8528L58.4761 20.1055L59.8528 17.7623Z" fill="#1B2238"/>
<path d="M67.5112 19.0958V15.2319H69.2384V23.957H67.5112V20.7661C66.9771 20.9905 66.4057 21.1027 65.7966 21.1027C64.9205 21.1027 64.1904 20.8575 63.6063 20.3673C63.039 19.8687 62.7554 19.1957 62.7554 18.348V15.2319H64.4824V18.1237C64.4824 18.5391 64.6035 18.8674 64.8454 19.1084C65.0957 19.3411 65.4253 19.4573 65.8342 19.4573C66.4265 19.4573 66.9855 19.3369 67.5112 19.0958Z" fill="#1B2238"/>
<path d="M77.659 23.957H75.9317V18.6347L72.1768 23.957H70.8628V15.2319H72.59V20.5668L76.3449 15.2319H77.659V23.957Z" fill="#1B2238"/>
<path d="M83.4393 24.1315C82.129 24.1315 81.0405 23.6952 80.1723 22.8227C79.3132 21.9584 78.8833 20.8823 78.8833 19.5944C78.8833 18.2981 79.3132 17.222 80.1723 16.3662C81.0405 15.4937 82.129 15.0573 83.4393 15.0573C84.2314 15.0573 84.9616 15.2444 85.629 15.6183C86.3046 15.9839 86.8306 16.4825 87.2062 17.114L85.7173 17.974C85.4997 17.5835 85.191 17.2802 84.7908 17.0641C84.3899 16.8397 83.9394 16.7276 83.4393 16.7276C82.5879 16.7276 81.8996 16.9935 81.3743 17.5253C80.8568 18.0654 80.5983 18.7552 80.5983 19.5944C80.5983 20.4253 80.8568 21.1109 81.3743 21.651C81.8996 22.1828 82.5879 22.4487 83.4393 22.4487C83.9394 22.4487 84.3899 22.3407 84.7908 22.1246C85.1994 21.9003 85.5081 21.597 85.7173 21.2148L87.2062 22.0748C86.8306 22.7064 86.3046 23.2091 85.629 23.583C84.9616 23.9486 84.2314 24.1315 83.4393 24.1315Z" fill="#1B2238"/>
<path d="M87.5806 15.2319H94.0255V16.8773H91.6601V23.957H89.9333V16.8773H87.5806V15.2319Z" fill="#1B2238"/>
<path d="M101.786 23.957H100.058V18.6347L96.304 23.957H94.9897V15.2319H96.7165V20.5668L100.472 15.2319H101.786V23.957Z" fill="#1B2238"/>
<path d="M108.618 14.4342H104.987V13.0383H108.618V14.4342ZM110.206 23.9571H108.48V18.6348L104.724 23.9571H103.411V15.2319H105.138V20.5668L108.892 15.2319H110.206V23.9571Z" fill="#1B2238"/>
<path d="M122.47 23.957H120.592L120.066 22.3865H116.576L116.05 23.957H114.185L117.25 15.2319H119.391L122.47 23.957ZM118.327 17.2138L117.126 20.7785H119.528L118.327 17.2138Z" fill="#1B2238"/>
<path d="M123.32 15.2319H126.586C127.421 15.2319 128.13 15.5144 128.714 16.0796C129.29 16.6446 129.578 17.3384 129.578 18.1611C129.578 18.9837 129.29 19.6776 128.714 20.2426C128.13 20.8077 127.421 21.0902 126.586 21.0902H125.048V23.957H123.32V15.2319ZM125.048 19.4823H126.586C126.954 19.4823 127.258 19.3577 127.501 19.1084C127.742 18.8508 127.864 18.535 127.864 18.1611C127.864 17.7789 127.742 17.4631 127.501 17.2138C127.258 16.9646 126.954 16.8398 126.586 16.8398H125.048V19.4823Z" fill="#1B2238"/>
<path d="M134.182 19.4699L137.548 23.957H135.559L132.43 19.8687V23.957H130.702V15.2319H132.43V19.0834L135.434 15.2319H137.424L134.182 19.4699Z" fill="#1B2238"/>
<path d="M141.275 19.4449L143.001 15.2319H144.729L142.1 21.5514C141.4 23.2466 140.249 24.0485 138.646 23.957V22.3491C139.105 22.3906 139.476 22.3284 139.76 22.1621C140.052 21.996 140.299 21.7176 140.498 21.327L137.632 15.2319H139.359L141.275 19.4449Z" fill="#1B2238"/>
<path d="M154.11 22.3116V15.2319H155.837V23.957H145.663V15.2319H147.39V22.3116H149.893V15.2319H151.608V22.3116H154.11Z" fill="#1B2238"/>
<path d="M157.444 17.7623H158.933L160.31 20.1055L158.933 22.4363H157.444L158.821 20.1055L157.444 17.7623ZM159.822 17.7623H161.311L162.688 20.1055L161.311 22.4363H159.822L161.198 20.1055L159.822 17.7623Z" fill="#1B2238"/>
</svg>
