<svg width="16" height="17" viewBox="0 0 16 17" fill="none" xmlns="http://www.w3.org/2000/svg">
<g clip-path="url(#clip0_2004_7236)">
<path d="M8 0.5C4.78125 0.5 2.17188 3.10938 2.17188 6.32812C2.17188 8.85662 3.78222 11.0088 6.03322 11.8157L8 16.5L9.96684 11.8157C12.2178 11.0088 13.8281 8.85662 13.8281 6.32812C13.8281 3.10938 11.2188 0.5 8 0.5ZM8 10.5736C5.6565 10.5736 3.75666 8.67381 3.75666 6.33022C3.75666 3.98672 5.6565 2.08684 8 2.08684C10.3435 2.08684 12.2434 3.98672 12.2434 6.33022C12.2434 8.67384 10.3436 10.5737 8 10.5736Z" fill="#9A9A9A"/>
</g>
<defs>
<clipPath id="clip0_2004_7236">
<rect width="16" height="16" fill="white" transform="translate(0 0.5)"/>
</clipPath>
</defs>
</svg>
