<svg width="18" height="18" viewBox="0 0 18 18" fill="none" xmlns="http://www.w3.org/2000/svg">
<path d="M17.2002 7.97665L11.9502 2.72665C11.8087 2.59003 11.6193 2.51443 11.4226 2.51614C11.226 2.51785 11.0379 2.59673 10.8988 2.73578C10.7598 2.87484 10.6809 3.06295 10.6792 3.2596C10.6775 3.45624 10.7531 3.6457 10.8897 3.78715L14.8594 7.7569L1.66992 7.7569C1.47101 7.7569 1.28024 7.83592 1.13959 7.97657C0.998939 8.11722 0.919922 8.30798 0.919922 8.5069C0.919922 8.70581 0.998939 8.89657 1.13959 9.03723C1.28024 9.17788 1.47101 9.2569 1.66992 9.2569L14.8594 9.2569L10.8897 13.2266C10.818 13.2958 10.7609 13.3786 10.7216 13.4701C10.6823 13.5616 10.6616 13.66 10.6607 13.7596C10.6599 13.8592 10.6788 13.9579 10.7166 14.0501C10.7543 14.1423 10.81 14.226 10.8804 14.2964C10.9508 14.3669 11.0345 14.4226 11.1267 14.4603C11.2189 14.498 11.3176 14.517 11.4172 14.5161C11.5168 14.5152 11.6152 14.4945 11.7067 14.4552C11.7982 14.4159 11.881 14.3588 11.9502 14.2871L17.2002 9.03715C17.3408 8.8965 17.4198 8.70577 17.4198 8.5069C17.4198 8.30802 17.3408 8.11729 17.2002 7.97665Z" fill="#3A5482"/>
</svg>
