<svg width="13" height="13" viewBox="0 0 13 13" fill="none" xmlns="http://www.w3.org/2000/svg">
<path fill-rule="evenodd" clip-rule="evenodd" d="M7.04167 10.8333C7.04167 11.1325 6.79916 11.375 6.5 11.375C6.20084 11.375 5.95833 11.1325 5.95833 10.8333V7.04167H2.16667C1.86751 7.04167 1.625 6.79916 1.625 6.5C1.625 6.20084 1.86751 5.95833 2.16667 5.95833H5.95833V2.16667C5.95833 1.8675 6.20084 1.625 6.5 1.625C6.79916 1.625 7.04167 1.8675 7.04167 2.16667V5.95833H10.8333C11.1325 5.95833 11.375 6.20084 11.375 6.5C11.375 6.79916 11.1325 7.04167 10.8333 7.04167H7.04167V10.8333Z" fill="white"/>
</svg>
