<svg width="13" height="13" viewBox="0 0 13 13" fill="none" xmlns="http://www.w3.org/2000/svg">
<g clip-path="url(#clip0_77_274)">
<path d="M12.8412 12.0757L9.14432 8.37886C9.8604 7.49434 10.2916 6.37038 10.2916 5.14623C10.2916 2.30901 7.98299 0.000442505 5.14577 0.000442505C2.30854 0.000442505 0 2.30899 0 5.14621C0 7.98343 2.30857 10.292 5.14579 10.292C6.36994 10.292 7.49389 9.86085 8.37842 9.14476L12.0753 12.8416C12.1809 12.9472 12.3195 13.0003 12.4582 13.0003C12.5969 13.0003 12.7356 12.9472 12.8412 12.8416C13.053 12.6298 13.053 12.2875 12.8412 12.0757ZM5.14579 9.20867C2.90547 9.20867 1.08333 7.38653 1.08333 5.14621C1.08333 2.90589 2.90547 1.08375 5.14579 1.08375C7.38611 1.08375 9.20825 2.90589 9.20825 5.14621C9.20825 7.38653 7.38609 9.20867 5.14579 9.20867Z" fill="#1D243A"/>
</g>
<defs>
<clipPath id="clip0_77_274">
<rect width="13" height="13" fill="white"/>
</clipPath>
</defs>
</svg>
