<svg width="17" height="17" viewBox="0 0 17 17" fill="none" xmlns="http://www.w3.org/2000/svg">
<path d="M14.1667 4.95834H2.83333C2.64547 4.95834 2.4653 4.88371 2.33247 4.75087C2.19963 4.61803 2.125 4.43787 2.125 4.25001C2.125 4.06214 2.19963 3.88198 2.33247 3.74914C2.4653 3.6163 2.64547 3.54167 2.83333 3.54167H14.1667C14.3545 3.54167 14.5347 3.6163 14.6675 3.74914C14.8004 3.88198 14.875 4.06214 14.875 4.25001C14.875 4.43787 14.8004 4.61803 14.6675 4.75087C14.5347 4.88371 14.3545 4.95834 14.1667 4.95834ZM12.75 8.50001C12.75 8.31214 12.6754 8.13198 12.5425 7.99914C12.4097 7.8663 12.2295 7.79167 12.0417 7.79167H4.95833C4.77047 7.79167 4.5903 7.8663 4.45747 7.99914C4.32463 8.13198 4.25 8.31214 4.25 8.50001C4.25 8.68787 4.32463 8.86803 4.45747 9.00087C4.5903 9.13371 4.77047 9.20834 4.95833 9.20834H12.0417C12.2295 9.20834 12.4097 9.13371 12.5425 9.00087C12.6754 8.86803 12.75 8.68787 12.75 8.50001ZM10.625 12.75C10.625 12.5621 10.5504 12.382 10.4175 12.2491C10.2847 12.1163 10.1045 12.0417 9.91667 12.0417H7.08333C6.89547 12.0417 6.7153 12.1163 6.58247 12.2491C6.44963 12.382 6.375 12.5621 6.375 12.75C6.375 12.9379 6.44963 13.118 6.58247 13.2509C6.7153 13.3837 6.89547 13.4583 7.08333 13.4583H9.91667C10.1045 13.4583 10.2847 13.3837 10.4175 13.2509C10.5504 13.118 10.625 12.9379 10.625 12.75Z" fill="#3A5482"/>
</svg>
